<?xml version="1.0" encoding="UTF-8" standalone="yes"?>
<!DOCTYPE svg PUBLIC "-//W3C//DTD SVG 1.0//EN" "http://www.w3.org/TR/2001/REC-SVG-20010904/DTD/svg10.dtd">
<svg height="2000" width="2000" xmlns="http://www.w3.org/2000/svg" xmlns:svg="http://www.w3.org/2000/svg" xmlns:xlink="http://www.w3.org/1999/xlink">
   <marker id="endArrow" markerHeight="8" markerUnits="strokeWidth" markerWidth="10" orient="auto" refX="1" refY="5" viewBox="0 0 10 10">
      <polyline fill="darkblue" points="0,0 10,5 0,10 1,5" />
   </marker>
<rect fill='white' stroke='none' x='0' y='0' width='2000.000000' height='2000.000000'/>
   <path d="M 561.247 338.251 561.777 338.309 561.946 338.361 562.469 338.522 562.635 338.607 563.14 338.865 563.3 338.982 563.776 339.331 563.927 339.48 564.365 339.913 564.504 340.092 564.896 340.598 565.02 340.806 565.358 341.374 565.463 341.607 565.742 342.224 565.826 342.481 566.04 343.133 566.1 343.409 566.248 344.084 566.281 344.373 566.36 345.056 566.365 345.354 566.375 346.031 566.349 346.333 566.292 346.992 566.235 347.289 566.114 347.918 566.024 348.205 565.842 348.791 565.722 349.061 565.484 349.596 565.334 349.842 565.045 350.315 564.868 350.531 564.534 350.936 564.333 351.115 563.962 351.445 563.741 351.583 563.339 351.834 563.103 351.927 562.677 352.094 562.431 352.139 561.99 352.221 561.739 352.217 561.291 352.211 561.041 352.159 560.592 352.066 560.349 351.967 559.909 351.787 559.678 351.645 559.254 351.382 559.04 351.199 558.64 350.856 558.447 350.638 558.079 350.221 557.911 349.974 557.581 349.489 557.441 349.219 557.157 348.674 557.047 348.389 556.815 347.792 556.735 347.498 556.562 346.86 556.512 346.563 556.401 345.897 556.382 345.604 556.337 344.92 556.347 344.637 556.371 343.95 556.409 343.681 556.502 343.005 556.565 342.755 556.728 342.102 556.813 341.876 557.044 341.261 557.149 341.06 557.443 340.498 557.566 340.325 557.919 339.826 558.056 339.683 558.462 339.26 558.611 339.148 559.061 338.809 559.219 338.73 559.705 338.484 559.87 338.437 560.381 338.29 560.55 338.276 561.076 338.232 z " style="fill: green; stroke: black; stroke-width: 0.000000; fill-type: evenodd"  fill-opacity="1.000000" />
   <path d="M 708.482 324.387 708.759 324.388 708.924 324.412 709.198 324.451 709.358 324.497 709.623 324.573 709.775 324.641 710.027 324.753 710.169 324.84 710.404 324.986 710.532 325.092 710.746 325.27 710.858 325.392 711.048 325.599 711.142 325.735 711.303 325.968 711.377 326.115 711.506 326.371 711.56 326.526 711.655 326.8 711.686 326.961 711.744 327.248 711.753 327.411 711.771 327.708 711.759 327.869 711.736 328.169 711.703 328.326 711.638 328.624 711.584 328.774 711.479 329.064 711.405 329.203 711.259 329.48 711.168 329.606 710.983 329.863 710.877 329.974 710.656 330.204 710.536 330.298 710.284 330.497 710.153 330.572 709.873 330.734 709.734 330.79 709.432 330.911 709.288 330.946 708.971 331.022 708.645 331.052 708.498 331.065 708.352 331.057 708.025 331.039 707.882 331.009 707.56 330.943 707.423 330.893 707.115 330.78 706.986 330.711 706.698 330.554 706.581 330.466 706.318 330.269 706.215 330.164 705.985 329.931 705.897 329.811 705.703 329.549 705.633 329.416 705.48 329.13 705.428 328.988 705.319 328.684 705.287 328.534 705.222 328.221 705.212 328.066 705.191 327.749 705.202 327.593 705.225 327.279 705.259 327.125 705.324 326.82 705.378 326.67 705.483 326.381 705.559 326.239 705.7 325.97 705.795 325.838 705.969 325.594 706.081 325.475 706.284 325.261 706.413 325.158 706.64 324.975 706.781 324.89 707.028 324.741 707.18 324.676 707.442 324.563 707.602 324.519 707.873 324.444 708.038 324.423 708.315 324.386 z " style="fill: green; stroke: black; stroke-width: 0.000000; fill-type: evenodd"  fill-opacity="1.000000" />
   <path d="M 708.326 314.031 708.527 314.032 708.722 314.06 708.919 314.088 709.108 314.143 709.299 314.197 709.479 314.277 709.661 314.358 709.829 314.462 709.998 314.567 710.15 314.693 710.305 314.821 710.437 314.966 710.574 315.115 710.686 315.277 710.802 315.446 710.891 315.621 710.985 315.806 711.048 315.991 711.117 316.19 711.155 316.381 711.197 316.591 711.209 316.785 711.222 317.002 711.207 317.195 711.19 317.415 711.15 317.603 711.15 317.603 711.103 317.822 711.038 318.002 710.96 318.216 710.871 318.384 710.763 318.588 710.653 318.74 710.516 318.93 710.388 319.065 710.224 319.236 710.078 319.35 709.89 319.498 709.732 319.59 709.523 319.71 709.354 319.778 709.129 319.868 708.953 319.911 708.716 319.968 708.472 319.99 708.293 320.006 708.115 319.996 707.869 319.983 707.695 319.947 707.454 319.897 707.286 319.836 707.055 319.751 706.898 319.666 706.682 319.549 706.539 319.441 706.343 319.293 706.216 319.165 706.044 318.991 705.937 318.845 705.792 318.649 705.706 318.488 705.593 318.275 705.53 318.102 705.448 317.876 705.41 317.694 705.361 317.461 705.349 317.274 705.334 317.039 705.348 316.85 705.365 316.619 705.405 316.432 705.453 316.208 705.518 316.027 705.518 316.027 705.595 315.815 705.686 315.644 705.789 315.447 705.903 315.289 706.03 315.111 706.164 314.969 706.312 314.813 706.465 314.69 706.63 314.557 706.798 314.456 706.977 314.348 707.158 314.27 707.348 314.189 707.538 314.136 707.734 314.082 707.929 314.056 708.129 314.03 z " style="fill: green; stroke: black; stroke-width: 0.000000; fill-type: evenodd"  fill-opacity="1.000000" />
   <path d="M 720.004 297.653 720.234 297.656 720.498 297.698 720.722 297.733 720.998 297.814 721.207 297.876 721.488 297.995 721.677 298.075 721.956 298.231 722.121 298.323 722.393 298.513 722.532 298.611 722.79 298.832 722.902 298.929 723.14 299.178 723.229 299.27 723.441 299.541 723.507 299.625 723.69 299.913 723.737 299.987 723.886 300.288 723.918 300.351 724.03 300.658 724.049 300.71 724.122 301.018 724.132 301.061 724.164 301.364 724.168 301.398 724.158 301.692 724.158 301.719 724.107 301.999 724.103 302.02 724.013 302.281 724.007 302.297 723.877 302.536 723.87 302.55 723.703 302.762 723.693 302.774 723.493 302.956 723.48 302.968 723.249 303.118 723.232 303.129 722.974 303.244 722.951 303.255 722.671 303.334 722.639 303.343 722.341 303.385 722.299 303.391 722.254 303.392 721.935 303.397 721.618 303.364 721.551 303.358 721.232 303.289 721.149 303.272 720.835 303.17 720.737 303.138 720.432 303.004 720.321 302.955 720.031 302.792 719.906 302.722 719.638 302.535 719.504 302.441 719.261 302.233 719.122 302.114 718.909 301.89 718.771 301.744 718.592 301.51 718.462 301.338 718.321 301.1 718.206 300.904 718.104 300.666 718.013 300.452 717.953 300.219 717.894 299.993 717.874 299.771 717.855 299.541 717.876 299.335 717.9 299.111 717.961 298.925 718.031 298.715 718.131 298.553 718.245 298.369 718.381 298.234 718.535 298.082 718.705 297.978 718.892 297.863 719.092 297.793 719.304 297.718 719.53 297.684 719.756 297.65 z " style="fill: green; stroke: black; stroke-width: 0.000000; fill-type: evenodd"  fill-opacity="1.000000" />
   <path d="M 711.491 284.124 712.006 284.195 712.073 284.215 712.572 284.36 712.636 284.389 713.113 284.606 713.172 284.644 713.62 284.932 713.672 284.977 714.085 285.333 714.13 285.384 714.501 285.805 714.538 285.86 714.575 285.916 714.689 285.887 714.75 285.881 715.303 285.82 715.365 285.822 715.916 285.837 715.98 285.847 716.518 285.935 716.581 285.955 717.096 286.113 717.157 286.142 717.642 286.366 717.699 286.403 718.145 286.689 718.198 286.735 718.597 287.076 718.643 287.128 718.99 287.518 719.029 287.577 719.318 288.009 719.349 288.073 719.575 288.538 719.597 288.606 719.756 289.097 719.769 289.168 719.86 289.677 719.863 289.748 719.883 290.266 719.876 290.337 719.825 290.856 719.809 290.924 719.687 291.434 719.661 291.498 719.47 291.991 719.437 292.051 719.177 292.517 719.137 292.57 718.813 293.001 718.768 293.048 718.385 293.435 718.334 293.474 717.898 293.809 717.844 293.84 717.362 294.116 717.306 294.138 716.786 294.348 716.73 294.362 716.348 294.458 716.232 294.656 716.209 294.686 715.826 295.176 715.797 295.204 715.36 295.628 715.326 295.652 714.844 296.006 714.806 296.026 714.285 296.305 714.244 296.32 713.693 296.522 713.65 296.531 713.315 296.601 713.312 296.679 713.391 296.702 713.614 296.77 713.807 296.862 714.016 296.962 714.201 297.086 714.391 297.213 714.565 297.367 714.732 297.515 714.89 297.697 715.031 297.859 715.17 298.065 715.285 298.236 715.401 298.462 715.49 298.635 715.58 298.877 715.644 299.049 715.706 299.303 715.747 299.468 715.779 299.729 715.799 299.885 715.8 300.147 715.801 300.293 715.771 300.551 715.756 300.684 715.695 300.934 715.665 301.054 715.574 301.291 715.532 301.398 715.412 301.617 715.36 301.71 715.213 301.908 715.153 301.989 714.981 302.161 714.913 302.229 714.72 302.373 714.645 302.429 714.435 302.542 714.353 302.585 714.128 302.666 714.04 302.697 713.805 302.744 713.711 302.762 713.614 302.767 713.37 302.779 713.127 302.756 713.022 302.747 712.781 302.69 712.672 302.665 712.437 302.576 712.324 302.533 712.1 302.414 711.984 302.353 711.775 302.205 711.659 302.124 711.467 301.952 711.353 301.849 711.183 301.655 711.073 301.53 710.928 301.32 710.827 301.173 710.708 300.949 710.619 300.78 710.529 300.549 710.456 300.36 710.396 300.126 710.343 299.919 710.314 299.686 710.286 299.467 710.288 299.24 710.289 299.012 710.32 298.797 710.353 298.567 710.413 298.367 710.48 298.142 710.566 297.961 710.668 297.749 710.779 297.591 710.914 297.399 711.047 297.267 711.213 297.102 711.366 296.998 711.557 296.867 711.726 296.794 711.875 296.729 711.862 296.651 711.807 296.647 711.765 296.638 711.173 296.511 711.135 296.497 710.554 296.286 710.521 296.268 709.96 295.974 709.931 295.953 709.401 295.578 709.377 295.557 708.887 295.104 708.868 295.083 708.428 294.558 708.415 294.538 708.374 294.473 708.118 294.673 708.071 294.7 707.514 295.022 707.464 295.042 706.867 295.283 706.815 295.296 706.533 295.366 706.612 295.482 706.791 295.744 706.869 295.904 707.007 296.188 707.064 296.363 707.064 296.363 707.161 296.66 707.195 296.848 707.25 297.149 707.26 297.346 707.276 297.645 707.261 297.847 707.241 298.135 707.201 298.338 707.147 298.611 707.082 298.811 706.999 299.064 706.909 299.257 706.802 299.487 706.688 299.669 706.56 299.873 706.425 300.039 706.281 300.217 706.126 300.364 705.969 300.514 705.797 300.64 705.63 300.762 705.445 300.863 705.271 300.957 705.076 301.031 704.898 301.098 704.696 301.144 704.515 301.184 704.334 301.199 704.13 301.215 703.925 301.201 703.746 301.189 703.546 301.146 703.371 301.108 703.178 301.036 703.008 300.973 702.827 300.874 702.664 300.785 702.498 300.661 702.345 300.546 702.196 300.4 702.054 300.26 701.925 300.094 701.797 299.929 701.69 299.747 701.58 299.557 701.497 299.363 701.406 299.15 701.348 298.947 701.348 298.947 701.281 298.713 701.248 298.505 701.208 298.253 701.201 298.045 701.191 297.777 701.209 297.572 701.233 297.294 701.274 297.097 701.334 296.813 701.398 296.628 701.496 296.344 701.581 296.174 701.717 295.898 701.82 295.747 701.995 295.487 702.113 295.356 702.325 295.12 702.456 295.011 702.722 294.79 702.244 294.468 702.204 294.431 701.726 294.001 701.691 293.959 701.404 293.617 701.274 293.676 700.945 293.785 700.811 293.83 700.476 293.905 700.33 293.938 699.996 293.979 699.841 293.998 699.514 294.006 699.354 294.009 699.04 293.984 698.877 293.971 698.582 293.915 698.42 293.884 698.148 293.799 697.992 293.751 697.748 293.639 697.601 293.573 697.388 293.438 697.255 293.354 697.076 293.198 696.961 293.098 696.818 292.925 696.724 292.811 696.619 292.624 696.548 292.498 696.483 292.3 696.439 292.165 696.413 291.959 696.396 291.819 696.412 291.608 696.412 291.608 696.422 291.466 696.479 291.254 696.516 291.113 696.613 290.903 696.676 290.767 696.812 290.563 696.898 290.435 697.073 290.241 697.179 290.123 697.391 289.942 697.513 289.837 697.758 289.674 697.894 289.583 698.17 289.441 698.314 289.366 698.616 289.249 698.765 289.191 699.088 289.101 699.238 289.059 699.576 289 699.724 288.975 700.071 288.949 700.213 288.939 700.586 288.949 700.624 288.818 700.646 288.768 700.908 288.18 700.937 288.134 701.277 287.589 701.312 287.547 701.726 287.054 701.766 287.018 702.244 286.587 702.289 286.557 702.822 286.197 702.871 286.174 703.449 285.892 703.501 285.875 704.113 285.676 704.166 285.667 704.8 285.555 704.854 285.553 705.497 285.531 705.551 285.536 706.191 285.604 706.243 285.617 706.867 285.772 706.918 285.793 707.479 286.019 707.553 285.917 707.591 285.876 708.019 285.418 708.065 285.38 708.529 284.994 708.582 284.96 709.074 284.65 709.134 284.622 709.645 284.388 709.709 284.369 710.232 284.211 710.3 284.201 710.827 284.12 710.897 284.119 711.421 284.115 z " style="fill: green; stroke: black; stroke-width: 0.000000; fill-type: evenodd"  fill-opacity="1.000000" />
   <path d="M 555.804 288.198 556.057 288.215 556.305 288.268 556.478 288.305 556.716 288.392 556.882 288.452 557.106 288.571 557.261 288.654 557.467 288.803 557.609 288.907 557.792 289.083 557.895 289.183 558.01 289.122 558.158 289.043 558.417 288.949 558.575 288.891 558.844 288.834 559.008 288.799 559.284 288.78 559.451 288.768 559.618 288.78 559.893 288.799 560.163 288.857 560.327 288.891 560.586 288.986 560.744 289.043 560.987 289.173 561.135 289.251 561.358 289.413 561.494 289.512 561.692 289.704 561.813 289.82 561.983 290.037 562.086 290.169 562.224 290.408 562.308 290.554 562.411 290.809 562.474 290.965 562.541 291.232 562.581 291.395 562.61 291.669 562.628 291.836 562.618 292.112 562.612 292.279 562.564 292.551 562.535 292.716 562.45 292.978 562.398 293.138 562.277 293.386 562.204 293.536 562.049 293.765 561.956 293.904 561.771 294.109 561.659 294.234 561.448 294.411 561.319 294.519 561.085 294.665 560.943 294.754 560.691 294.866 560.538 294.934 560.273 295.01 560.112 295.056 559.839 295.095 559.673 295.118 559.261 295.118 559.199 295.211 559.027 295.402 558.91 295.532 558.713 295.697 558.579 295.81 558.361 295.945 558.213 296.038 557.978 296.143 557.818 296.214 557.572 296.285 557.403 296.333 557.149 296.369 556.975 296.393 556.544 296.393 556.289 296.357 556.116 296.333 555.869 296.262 555.701 296.214 555.466 296.11 555.306 296.038 555.089 295.902 554.94 295.81 554.744 295.645 554.609 295.532 554.438 295.341 554.32 295.211 554.177 294.998 554.079 294.853 553.966 294.622 553.89 294.465 553.81 294.221 553.756 294.054 553.712 293.802 553.685 293.653 553.621 293.6 553.486 293.486 553.316 293.298 553.198 293.166 553.056 292.956 552.958 292.81 552.847 292.582 552.769 292.423 552.691 292.182 552.636 292.014 552.592 291.764 552.562 291.591 552.553 291.337 552.547 291.161 552.573 290.908 552.591 290.733 552.653 290.487 552.696 290.316 552.791 290.08 552.857 289.917 552.984 289.697 553.072 289.544 553.228 289.344 553.337 289.205 553.519 289.029 553.646 288.907 553.851 288.757 553.994 288.654 554.218 288.535 554.374 288.452 554.612 288.365 554.778 288.305 555.026 288.252 555.199 288.215 555.452 288.198 555.628 288.185 z " style="fill: green; stroke: black; stroke-width: 0.000000; fill-type: evenodd"  fill-opacity="1.000000" />
   <path d="M 732.365 291.248 732.735 291.253 732.848 291.266 733.208 291.307 733.32 291.332 733.663 291.409 733.771 291.447 734.091 291.557 734.192 291.606 734.484 291.747 734.576 291.808 734.834 291.976 734.914 292.047 735.134 292.24 735.201 292.32 735.379 292.533 735.43 292.62 735.564 292.85 735.598 292.942 735.685 293.184 735.7 293.28 735.74 293.529 735.736 293.626 735.727 293.878 735.705 293.975 735.648 294.225 735.608 294.319 735.503 294.563 735.446 294.651 735.295 294.885 735.224 294.966 735.03 295.184 734.945 295.256 734.71 295.456 734.615 295.518 734.343 295.695 734.24 295.746 733.937 295.895 733.827 295.935 733.498 296.054 733.386 296.081 733.035 296.168 732.923 296.183 732.558 296.235 732.448 296.239 732.076 296.253 731.97 296.246 731.598 296.223 731.498 296.206 731.133 296.144 731.041 296.118 730.69 296.019 730.607 295.985 730.279 295.85 730.206 295.809 729.906 295.64 729.844 295.592 729.58 295.393 729.529 295.34 729.307 295.114 729.268 295.058 729.091 294.808 729.064 294.749 728.938 294.482 728.922 294.421 728.85 294.141 728.846 294.079 728.829 293.793 728.837 293.731 728.875 293.444 728.895 293.383 728.987 293.101 729.019 293.041 729.164 292.771 729.208 292.713 729.401 292.459 729.457 292.405 729.695 292.173 729.761 292.123 730.039 291.917 730.116 291.873 730.426 291.697 730.513 291.66 730.85 291.517 730.946 291.488 731.302 291.38 731.405 291.36 731.773 291.29 731.881 291.28 732.254 291.247 z " style="fill: green; stroke: black; stroke-width: 0.000000; fill-type: evenodd"  fill-opacity="1.000000" />
   <path d="M 687.845 291.134 688.069 291.157 688.189 291.187 688.407 291.242 688.522 291.288 688.731 291.372 688.838 291.434 689.033 291.547 689.13 291.623 689.308 291.761 689.394 291.851 689.55 292.012 689.623 292.113 689.755 292.294 689.813 292.404 689.919 292.602 689.961 292.719 690.038 292.93 690.064 293.051 690.11 293.271 690.119 293.395 690.135 293.619 690.126 293.743 690.11 293.967 690.085 294.088 690.038 294.308 689.995 294.425 689.919 294.636 689.86 294.746 689.755 294.944 689.682 295.044 689.55 295.226 689.464 295.315 689.308 295.477 689.21 295.553 689.033 295.692 688.925 295.754 688.731 295.866 688.616 295.913 688.407 295.997 688.287 296.027 688.069 296.081 687.946 296.094 687.722 296.118 687.598 296.113 687.374 296.105 687.251 296.084 687.03 296.045 686.912 296.007 686.698 295.937 686.587 295.883 686.385 295.784 686.282 295.715 686.096 295.589 686.003 295.506 685.836 295.356 685.757 295.261 685.612 295.089 685.547 294.983 685.427 294.793 685.377 294.68 685.286 294.474 685.251 294.355 685.189 294.139 685.172 294.016 685.141 293.794 685.141 293.445 685.158 293.322 685.189 293.099 685.224 292.98 685.286 292.764 685.336 292.651 685.427 292.445 685.493 292.34 685.612 292.15 685.692 292.055 685.836 291.882 685.929 291.8 686.096 291.649 686.198 291.58 686.385 291.454 686.496 291.4 686.698 291.301 686.816 291.263 687.03 291.193 687.152 291.172 687.374 291.133 687.497 291.129 687.722 291.121 z " style="fill: green; stroke: black; stroke-width: 0.000000; fill-type: evenodd"  fill-opacity="1.000000" />
   <path d="M 745.277 289.628 745.696 289.664 745.751 289.675 746.147 289.754 746.201 289.772 746.568 289.891 746.62 289.916 746.951 290.073 746.998 290.103 747.287 290.295 747.328 290.332 747.571 290.553 747.604 290.596 747.797 290.843 747.821 290.89 747.96 291.159 747.975 291.21 748.058 291.495 748.062 291.547 748.088 291.843 748.082 291.896 748.05 292.198 748.034 292.251 748.034 292.251 747.944 292.552 747.92 292.603 747.774 292.899 747.741 292.946 747.541 293.232 747.501 293.275 747.251 293.544 747.206 293.582 746.908 293.829 746.86 293.861 746.521 294.082 746.471 294.108 746.096 294.298 746.045 294.317 745.642 294.472 745.592 294.486 745.167 294.601 745.12 294.609 744.681 294.683 744.637 294.686 744.193 294.717 744.154 294.715 743.713 294.7 743.678 294.695 743.249 294.634 743.22 294.627 742.812 294.521 742.787 294.511 742.41 294.361 742.389 294.35 742.049 294.159 742.033 294.146 741.738 293.918 741.726 293.905 741.483 293.643 741.474 293.629 741.288 293.339 741.282 293.325 741.157 293.013 741.154 292.998 741.093 292.67 741.093 292.655 741.097 292.317 741.1 292.302 741.169 291.962 741.175 291.946 741.307 291.61 741.317 291.594 741.51 291.27 741.523 291.253 741.772 290.947 741.79 290.929 742.089 290.647 742.112 290.63 742.454 290.378 742.483 290.361 742.862 290.143 742.895 290.128 743.302 289.947 743.342 289.934 743.768 289.795 743.812 289.785 744.25 289.689 744.298 289.683 744.738 289.631 744.79 289.631 745.223 289.623 z " style="fill: green; stroke: black; stroke-width: 0.000000; fill-type: evenodd"  fill-opacity="1.000000" />
   <path d="M 752.604 287.729 753.057 287.734 753.093 287.738 753.527 287.788 753.566 287.796 753.974 287.89 754.014 287.904 754.389 288.039 754.428 288.059 754.763 288.231 754.8 288.256 755.091 288.462 755.123 288.493 755.364 288.729 755.391 288.765 755.578 289.025 755.598 289.066 755.73 289.346 755.74 289.389 755.815 289.685 755.817 289.729 755.832 290.035 755.825 290.08 755.78 290.389 755.766 290.433 755.662 290.741 755.64 290.782 755.479 291.084 755.451 291.121 755.234 291.411 755.202 291.444 754.933 291.715 754.898 291.743 754.581 291.992 754.545 292.014 754.185 292.235 754.15 292.251 753.753 292.439 753.721 292.451 753.294 292.601 753.265 292.608 752.815 292.718 752.791 292.722 752.327 292.787 752.308 292.788 751.839 292.807 751.826 292.806 751.361 292.778 751.353 292.776 750.901 292.699 750.898 292.698 750.725 292.648 750.711 292.645 750.634 292.621 750.503 292.583 750.503 292.58 750.426 292.556 750.391 292.54 750.305 292.501 750.198 292.45 750.159 292.432 750.011 292.337 749.915 292.276 749.833 292.207 749.696 292.094 749.664 292.059 749.518 291.903 749.506 291.89 749.504 291.888 749.364 291.692 749.342 291.661 749.239 291.473 749.209 291.418 749.135 291.229 749.135 291.229 749.108 291.162 749.056 290.961 749.039 290.895 749.009 290.665 749.003 290.62 749.001 290.342 749.001 290.341 749.001 290.338 749.035 290.062 749.056 289.979 749.105 289.785 749.182 289.587 749.211 289.515 749.278 289.392 749.353 289.258 749.419 289.169 749.532 289.017 749.689 288.854 749.744 288.798 749.81 288.748 749.814 288.744 749.893 288.674 749.894 288.674 750.267 288.414 750.272 288.412 750.682 288.19 750.692 288.186 751.129 288.006 751.144 288.002 751.599 287.866 751.62 287.862 752.084 287.773 752.11 287.771 752.573 287.729 z " style="fill: green; stroke: black; stroke-width: 0.000000; fill-type: evenodd"  fill-opacity="1.000000" />
   <path d="M 539.484 284.745 539.683 284.759 539.878 284.8 539.994 284.825 540.181 284.893 540.293 284.934 540.469 285.027 540.574 285.083 540.735 285.2 540.832 285.27 540.975 285.408 541.061 285.491 541.183 285.648 541.256 285.742 541.356 285.914 541.416 286.017 541.49 286.202 541.535 286.312 541.583 286.506 541.612 286.621 541.632 286.819 541.645 286.938 541.638 287.137 541.634 287.256 541.599 287.452 541.579 287.569 541.517 287.758 541.48 287.872 541.393 288.051 541.341 288.158 541.229 288.323 541.163 288.422 541.03 288.569 540.95 288.658 540.797 288.786 540.706 288.863 540.537 288.968 540.436 289.031 540.254 289.112 540.146 289.161 539.954 289.215 539.84 289.248 539.643 289.276 539.525 289.293 539.206 289.293 539.009 289.265 538.891 289.248 538.7 289.193 538.585 289.161 538.404 289.08 538.295 289.031 538.126 288.926 538.025 288.863 537.872 288.735 537.781 288.658 537.648 288.51 537.568 288.422 537.457 288.257 537.39 288.158 537.303 287.979 537.251 287.872 537.189 287.682 537.152 287.569 537.118 287.373 537.097 287.256 537.09 287.057 537.086 286.938 537.107 286.74 537.119 286.621 537.167 286.428 537.196 286.312 537.271 286.128 537.315 286.017 537.415 285.845 537.475 285.742 537.597 285.585 537.67 285.491 537.814 285.353 537.899 285.27 538.06 285.153 538.157 285.083 538.333 284.99 538.438 284.934 538.625 284.866 538.737 284.825 538.931 284.783 539.048 284.759 539.247 284.745 539.365 284.736 z " style="fill: green; stroke: black; stroke-width: 0.000000; fill-type: evenodd"  fill-opacity="1.000000" />
   <path d="M 737.163 284.057 737.568 284.077 737.637 284.088 738.041 284.151 738.114 284.17 738.509 284.274 738.583 284.301 738.962 284.443 739.037 284.48 739.392 284.655 739.464 284.701 739.789 284.906 739.858 284.961 740.148 285.192 740.21 285.255 740.46 285.506 740.514 285.576 740.719 285.842 740.762 285.918 740.921 286.194 740.952 286.274 741.061 286.556 741.078 286.638 741.137 286.919 741.139 287.001 741.147 287.277 741.134 287.357 741.091 287.624 741.064 287.699 740.971 287.951 740.929 288.021 740.788 288.253 740.732 288.315 740.546 288.525 740.479 288.578 740.25 288.76 740.173 288.802 739.905 288.954 739.822 288.986 739.519 289.103 739.431 289.124 739.098 289.205 739.008 289.215 738.651 289.257 738.562 289.258 738.187 289.259 738.1 289.25 737.715 289.21 737.632 289.193 737.244 289.111 737.167 289.087 736.782 288.965 736.713 288.935 736.34 288.774 736.279 288.74 735.925 288.542 735.873 288.504 735.546 288.273 735.502 288.234 735.21 287.972 735.175 287.933 734.924 287.646 734.897 287.607 734.693 287.301 734.674 287.262 734.521 286.943 734.51 286.906 734.51 286.906 734.413 286.58 734.409 286.544 734.37 286.219 734.372 286.185 734.392 285.865 734.401 285.834 734.481 285.528 734.495 285.498 734.633 285.212 734.653 285.185 734.846 284.925 734.872 284.9 735.116 284.671 735.148 284.649 735.437 284.456 735.476 284.438 735.803 284.284 735.849 284.27 736.208 284.158 736.26 284.149 736.642 284.081 736.701 284.077 737.099 284.053 z " style="fill: green; stroke: black; stroke-width: 0.000000; fill-type: evenodd"  fill-opacity="1.000000" />
   <path d="M 766.937 282.966 767.201 282.974 767.423 283.007 767.698 283.047 767.908 283.104 768.187 283.179 768.381 283.259 768.657 283.371 768.832 283.471 769.097 283.621 769.249 283.738 769.494 283.925 769.621 284.056 769.836 284.278 769.936 284.42 770.113 284.672 770.184 284.823 770.316 285.099 770.358 285.254 770.437 285.547 770.449 285.704 770.472 286.004 770.454 286.16 770.42 286.458 770.372 286.61 770.281 286.897 770.205 287.041 770.062 287.309 769.957 287.443 769.768 287.683 769.637 287.803 769.41 288.011 769.254 288.115 768.998 288.285 768.82 288.37 768.544 288.501 768.347 288.564 768.061 288.656 767.849 288.695 767.562 288.749 767.338 288.763 767.057 288.78 766.786 288.765 766.559 288.753 766.326 288.713 766.076 288.67 765.846 288.603 765.616 288.536 765.395 288.443 765.188 288.356 764.979 288.237 764.797 288.134 764.605 287.992 764.449 287.877 764.276 287.714 764.146 287.59 763.998 287.408 763.891 287.277 763.771 287.081 763.688 286.946 763.597 286.737 763.537 286.599 763.478 286.383 763.44 286.244 763.414 286.023 763.397 285.884 763.404 285.663 763.409 285.524 763.448 285.307 763.474 285.169 763.546 284.96 763.546 284.96 763.592 284.825 763.696 284.626 763.763 284.495 763.895 284.31 763.985 284.184 764.143 284.017 764.256 283.898 764.437 283.751 764.573 283.64 764.773 283.517 764.933 283.417 765.148 283.318 765.332 283.233 765.558 283.16 765.765 283.092 765.997 283.046 766.226 283 766.459 282.98 766.707 282.959 z " style="fill: green; stroke: black; stroke-width: 0.000000; fill-type: evenodd"  fill-opacity="1.000000" />
   <path d="M 526.365 283.964 526.428 283.968 526.49 283.982 526.713 284.029 526.773 284.051 526.986 284.128 527.043 284.158 527.244 284.265 527.295 284.303 527.479 284.436 527.525 284.48 527.689 284.639 527.728 284.689 527.868 284.868 527.9 284.923 528.013 285.12 528.037 285.179 528.122 285.39 528.138 285.452 528.193 285.673 528.199 285.736 528.223 285.962 528.221 286.026 528.213 286.253 528.202 286.316 528.163 286.54 528.143 286.6 528.073 286.817 528.045 286.874 527.945 287.078 527.909 287.131 527.782 287.32 527.74 287.367 527.587 287.536 527.539 287.577 527.364 287.723 527.31 287.757 527.117 287.878 527.059 287.903 526.851 287.996 526.79 288.014 526.572 288.076 526.508 288.085 526.283 288.117 525.992 288.117 525.929 288.108 525.704 288.076 525.643 288.059 525.424 287.996 525.366 287.97 525.158 287.878 525.104 287.844 524.911 287.723 524.862 287.682 524.688 287.536 524.645 287.489 524.493 287.32 524.458 287.267 524.33 287.078 524.302 287.021 524.203 286.817 524.183 286.756 524.113 286.54 524.102 286.477 524.062 286.253 524.06 286.189 524.052 285.962 524.059 285.899 524.083 285.672 524.098 285.611 524.153 285.39 524.177 285.331 524.262 285.12 524.294 285.065 524.408 284.868 524.447 284.818 524.587 284.639 524.633 284.594 524.796 284.436 524.848 284.399 525.032 284.265 525.088 284.235 525.289 284.128 525.349 284.107 525.562 284.029 525.625 284.016 525.847 283.968 525.911 283.964 526.138 283.948 z " style="fill: green; stroke: black; stroke-width: 0.000000; fill-type: evenodd"  fill-opacity="1.000000" />
   <path d="M 564.861 279.967 565.035 279.979 565.162 280.004 565.292 280.029 565.536 280.112 565.543 280.114 565.551 280.118 565.783 280.234 565.942 280.341 566.01 280.388 566.205 280.564 566.218 280.576 566.394 280.788 566.401 280.796 566.532 281.011 566.553 281.046 566.634 281.234 566.671 281.32 566.671 281.321 566.754 281.611 566.755 281.616 566.799 281.914 566.8 281.924 566.807 282.224 566.805 282.238 566.773 282.534 566.769 282.552 566.7 282.839 566.692 282.86 566.587 283.131 566.575 283.154 566.436 283.405 566.418 283.429 566.249 283.654 566.226 283.677 566.029 283.872 566.001 283.892 565.781 284.053 565.749 284.07 565.511 284.193 565.475 284.205 565.224 284.289 565.186 284.295 564.926 284.338 564.625 284.338 564.587 284.331 564.328 284.289 564.291 284.277 564.041 284.193 564.007 284.176 563.771 284.053 563.741 284.031 563.523 283.872 563.498 283.847 563.303 283.654 563.284 283.628 563.116 283.405 563.102 283.38 562.965 283.131 562.956 283.107 562.956 283.107 562.852 282.839 562.847 282.818 562.778 282.534 562.776 282.517 562.745 282.224 562.746 282.211 562.752 281.914 562.754 281.905 562.798 281.611 562.8 281.606 562.881 281.32 562.882 281.319 562.918 281.234 562.954 281.149 562.998 281.046 563.01 281.027 563.02 281.01 563.082 280.909 563.151 280.796 563.155 280.792 563.158 280.787 563.247 280.68 563.334 280.576 563.34 280.57 563.34 280.57 563.347 280.564 563.453 280.468 563.542 280.388 563.57 280.369 563.61 280.341 563.705 280.277 563.769 280.234 563.851 280.193 564.002 280.118 564.006 280.115 564.009 280.114 564.189 280.053 564.26 280.029 564.387 280.004 564.516 279.979 564.608 279.973 564.776 279.962 z " style="fill: green; stroke: black; stroke-width: 0.000000; fill-type: evenodd"  fill-opacity="1.000000" />
   <path d="M 704.981 277.061 705.035 277.061 705.29 277.101 705.347 277.11 705.596 277.186 705.655 277.204 705.894 277.315 705.955 277.343 706.18 277.486 706.243 277.526 706.45 277.698 706.512 277.75 706.698 277.949 706.76 278.015 706.92 278.236 706.979 278.316 707.113 278.555 707.166 278.651 707.27 278.903 707.316 279.013 707.388 279.273 707.388 279.273 707.423 279.399 707.464 279.661 707.485 279.799 707.492 280.06 707.497 280.208 707.472 280.461 707.457 280.616 707.401 280.856 707.364 281.014 707.278 281.237 707.218 281.392 707.104 281.593 707.021 281.741 706.882 281.915 706.776 282.05 706.615 282.195 706.488 282.31 706.309 282.423 706.164 282.515 705.97 282.593 705.811 282.658 705.608 282.7 705.44 282.734 705.268 282.738 705.059 282.743 704.848 282.71 704.679 282.684 704.471 282.614 704.309 282.56 704.109 282.454 703.959 282.375 703.77 282.234 703.637 282.135 703.464 281.962 703.349 281.848 703.196 281.647 703.102 281.522 702.972 281.296 702.898 281.166 702.796 280.92 702.742 280.789 702.668 280.527 702.633 280.4 702.591 280.127 702.573 280.006 702.563 279.728 702.56 279.617 702.583 279.339 702.592 279.238 702.649 278.965 702.668 278.875 702.757 278.614 702.783 278.535 702.903 278.29 702.936 278.222 703.085 277.998 703.122 277.941 703.297 277.741 703.338 277.693 703.536 277.522 703.58 277.484 703.797 277.343 703.843 277.313 704.077 277.207 704.125 277.185 704.37 277.114 704.42 277.099 704.673 277.065 704.725 277.058 z " style="fill: green; stroke: black; stroke-width: 0.000000; fill-type: evenodd"  fill-opacity="1.000000" />
   <path d="M 478.852 331.475 479.265 332.727 489.012 362.226 494.502 378.842 482.878 383.261 475.435 386.09 475.435 385.889 475.435 379.883 475.435 379.698 475.435 379.527 475.435 379.376 475.435 379.138 475.435 332.329 475.435 321.134 z " style="fill: blue; stroke: black; stroke-width: 0.000000; fill-type: evenodd"  fill-opacity="1.000000" />
   <path d="M 687.317 261.21 690.084 265.728 692.223 269.22 692.701 270 693.439 271.099 695.263 273.816 695.134 276.62 695.033 278.828 693.948 278.841 691.986 278.864 690.43 278.883 689.242 278.897 688.379 278.907 678.084 279.028 678.084 291.45 678.084 300.069 683.786 300.002 692.341 299.901 692.341 302.244 692.341 302.907 692.341 304.689 692.341 305.913 692.434 305.912 692.77 305.908 693.466 305.9 693.988 305.893 693.946 307.159 693.889 308.9 693.259 312.278 692.986 313.745 692.28 318.046 690.489 328.979 689.374 328.993 689.32 328.993 683.837 329.058 683.408 329.063 676.668 329.142 675.755 329.153 669.383 329.228 668.311 329.241 663.757 329.295 659.634 329.343 658.13 329.361 653.208 329.419 650.845 329.447 646.438 329.499 643.676 329.531 640.559 329.568 638.139 329.597 635.366 329.629 632.772 329.66 629.541 329.698 625.835 329.742 623.126 329.774 619.232 329.82 617.38 329.842 614.128 329.88 612.162 329.903 607.963 329.953 606.65 329.968 603.203 330.009 599.847 330.048 598.86 330.06 594.283 330.114 593.234 330.126 583.438 330.242 580.452 330.277 578.078 330.305 575.915 330.331 573.049 330.364 571.104 330.387 568.55 330.417 566.426 330.442 564.769 330.462 563.51 330.477 561.871 330.496 556.981 330.554 554.867 330.579 553.284 330.597 547.56 330.665 544.533 330.701 541.057 330.742 537.316 330.786 534.814 330.815 532.241 330.846 529.388 330.879 526.711 330.911 524.942 330.932 522.821 330.957 521.417 330.973 520.12 330.988 518.671 331.006 517.404 331.021 516.551 331.031 515.789 331.04 514.922 331.05 514.341 331.057 513.674 331.064 513.112 331.071 512.722 331.076 512.391 331.08 512.002 331.084 511.686 331.088 511.463 331.091 505.985 331.155 505.985 302.4 505.985 301.235 506.227 301.966 506.27 302.095 536.191 301.743 539.59 301.702 539.59 302.122 539.59 303.397 539.59 304.708 548.697 304.601 565.372 304.404 566.13 306.699 566.361 307.398 566.437 307.398 566.447 307.397 567.158 307.389 568.471 307.374 569.992 307.356 571.347 307.34 572.38 307.327 573.098 307.319 573.57 307.313 573.868 307.31 574.049 307.308 574.151 307.307 574.214 307.306 574.214 304.593 574.214 304.3 574.214 302.15 574.214 301.294 584.691 301.171 588.47 301.126 588.47 295.14 588.47 280.085 580.636 280.178 579.978 280.185 579.074 280.196 577.89 280.21 576.397 280.228 574.581 280.249 572.446 280.274 570.032 280.303 567.42 280.333 564.734 280.365 562.629 280.39 563.346 278.085 564.194 275.362 564.273 275.335 564.273 275.335 564.279 275.333 566.286 274.233 566.347 274.2 566.527 274.101 566.747 273.935 568.782 272.392 568.965 272.253 570.583 270.699 570.844 270.448 571.695 269.632 572.921 268.219 573.558 267.485 574.866 265.979 575.592 265.011 576.343 264.012 578.709 260.86 579.18 260.156 580.292 260.143 584.57 260.092 588.038 260.051 589.175 260.038 590.206 260.026 592.598 259.998 594.488 259.975 595.12 259.968 598.504 259.928 599.159 259.92 600.7 259.902 601.89 259.888 602.293 259.883 602.626 259.879 603.426 259.87 604.003 259.863 604.203 259.861 675.101 259.025 677.202 259 683.766 258.922 685.989 258.896 z " style="fill: blue; stroke: black; stroke-width: 0.000000; fill-type: evenodd"  fill-opacity="1.000000" />
   <path d="M 760.569 303.462 760.569 328.153 745.611 328.329 744.873 328.338 743.808 328.351 742.485 328.366 741.33 328.38 739.958 328.396 737.919 328.42 735.431 328.449 733.182 328.476 729.71 328.517 726.503 328.555 725.524 328.566 723.649 318.574 722.761 313.841 722.424 312.24 722.278 311.542 721.653 308.573 721.561 306.917 721.485 305.569 723.189 305.549 725.099 305.526 726.047 305.515 726.548 305.509 726.81 305.506 726.964 305.504 726.964 303.109 726.964 302.499 726.964 302.272 726.964 299.493 734.63 299.402 760.569 299.097 z " style="fill: blue; stroke: black; stroke-width: 0.000000; fill-type: evenodd"  fill-opacity="1.000000" />
   <path d="M 540.896 261.005 540.978 261.121 542.061 262.5 542.529 263.096 544.967 266.201 546.478 267.87 546.917 268.354 548.241 269.815 549.125 270.63 549.397 270.88 551.043 272.397 551.233 272.536 553.299 274.039 553.532 274.208 553.607 274.247 555.804 275.399 555.813 275.404 555.988 275.458 556.531 277.101 557.637 280.449 556.469 280.463 545.09 280.597 532.303 280.747 523.848 280.847 518.496 280.91 515.066 280.951 512.804 280.977 511.267 280.996 510.195 281.008 509.43 281.017 508.874 281.024 508.465 281.029 508.162 281.032 507.937 281.035 505.985 281.058 505.985 269.393 505.985 267.452 506.659 266.782 512.524 260.942 521.042 260.841 521.207 260.839 521.435 260.837 522.094 260.829 523.004 260.818 523.382 260.814 523.839 260.808 525.182 260.793 526.908 260.772 527.639 260.764 529.956 260.736 530.946 260.725 532.04 260.712 535.348 260.673 539.388 260.625 540.62 260.61 z " style="fill: blue; stroke: black; stroke-width: 0.000000; fill-type: evenodd"  fill-opacity="1.000000" />
   <path d="M 759.348 268.272 760.57 269.46 760.57 272.902 760.57 278.056 750.392 278.176 749.219 278.189 747.639 278.208 745.508 278.233 742.609 278.267 738.62 278.314 733.03 278.38 725.018 278.475 719.803 278.536 719.659 276.456 719.457 273.531 721.706 269.991 722.053 269.445 723.972 266.132 724.556 265.124 727.3 260.387 728.378 258.396 730.382 258.373 731.285 258.362 732.091 258.353 734.067 258.329 734.69 258.322 736.22 258.304 737.407 258.29 737.824 258.285 738.15 258.281 738.958 258.272 739.497 258.265 739.689 258.263 739.8 258.262 740.077 258.258 748.939 258.154 z " style="fill: blue; stroke: black; stroke-width: 0.000000; fill-type: evenodd"  fill-opacity="1.000000" />
   <path d="M 564.861 279.967 565.035 279.979 565.162 280.004 565.292 280.029 565.536 280.112 565.543 280.114 565.551 280.118 565.783 280.234 565.942 280.341 565.956 280.351 564.734 280.365 563.555 280.379 563.57 280.369 563.61 280.341 563.705 280.277 563.769 280.234 563.851 280.193 564.002 280.118 564.006 280.115 564.009 280.114 564.189 280.053 564.26 280.029 564.387 280.004 564.516 279.979 564.608 279.973 564.776 279.962 z" style="fill: red; stroke: black; stroke-width: 0.000000; fill-type: evenodd"  fill-opacity="1.000000" />
</svg>
