<?xml version="1.0" encoding="UTF-8" standalone="yes"?>
<!DOCTYPE svg PUBLIC "-//W3C//DTD SVG 1.0//EN" "http://www.w3.org/TR/2001/REC-SVG-20010904/DTD/svg10.dtd">
<svg height="2000" width="2000" xmlns="http://www.w3.org/2000/svg" xmlns:svg="http://www.w3.org/2000/svg" xmlns:xlink="http://www.w3.org/1999/xlink">
   <marker id="endArrow" markerHeight="8" markerUnits="strokeWidth" markerWidth="10" orient="auto" refX="1" refY="5" viewBox="0 0 10 10">
      <polyline fill="darkblue" points="0,0 10,5 0,10 1,5" />
   </marker>
<rect fill='white' stroke='none' x='0' y='0' width='2000.000000' height='2000.000000'/>
   <path d="M 561.353 339.232 561.871 339.289 562.052 339.345 562.564 339.502 562.741 339.592 563.235 339.845 563.405 339.97 563.871 340.312 564.031 340.47 564.46 340.893 564.607 341.084 564.991 341.578 565.122 341.799 565.452 342.354 565.564 342.601 565.836 343.205 565.925 343.476 566.135 344.113 566.198 344.405 566.342 345.064 566.378 345.369 566.455 346.036 566.459 346.35 566.47 347.011 566.442 347.329 566.387 347.972 566.326 348.285 566.208 348.898 566.114 349.2 565.937 349.771 565.811 350.055 565.578 350.576 565.421 350.834 565.14 351.295 564.954 351.521 564.629 351.916 564.418 352.103 564.057 352.425 563.825 352.57 563.434 352.814 563.186 352.911 562.772 353.074 562.514 353.122 562.085 353.201 561.822 353.197 561.385 353.191 561.124 353.137 560.687 353.046 560.433 352.942 560.004 352.768 559.762 352.618 559.349 352.362 559.125 352.17 558.734 351.836 558.533 351.608 558.173 351.201 557.997 350.942 557.676 350.469 557.529 350.186 557.252 349.654 557.136 349.354 556.91 348.772 556.826 348.462 556.656 347.84 556.604 347.528 556.496 346.877 556.476 346.568 556.432 345.9 556.443 345.601 556.466 344.93 556.505 344.646 556.597 343.985 556.663 343.72 556.823 343.083 556.913 342.842 557.138 342.242 557.25 342.028 557.538 341.478 557.668 341.294 558.014 340.806 558.16 340.654 558.556 340.24 558.715 340.12 559.156 339.789 559.325 339.704 559.8 339.464 559.976 339.414 560.476 339.271 560.656 339.255 561.171 339.212 z " style="fill: green; stroke: black; stroke-width: 0.000000; fill-type: evenodd"  fill-opacity="1.000000" />
   <path d="M 708.391 324.399 708.709 324.401 708.858 324.422 709.171 324.467 709.316 324.508 709.62 324.596 709.757 324.657 710.046 324.785 710.174 324.864 710.443 325.031 710.559 325.127 710.804 325.33 710.906 325.441 711.122 325.678 711.207 325.801 711.391 326.067 711.459 326.2 711.606 326.491 711.654 326.632 711.762 326.944 711.791 327.089 711.856 327.417 711.865 327.563 711.885 327.901 711.874 328.046 711.848 328.388 711.818 328.529 711.745 328.868 711.697 329.002 711.577 329.332 711.511 329.457 711.345 329.77 711.264 329.883 711.054 330.174 710.959 330.273 710.709 330.534 710.603 330.618 710.316 330.843 710.2 330.91 709.883 331.094 709.76 331.143 709.419 331.28 709.291 331.31 708.932 331.397 708.563 331.43 708.434 331.442 708.305 331.435 707.934 331.414 707.808 331.388 707.444 331.314 707.323 331.269 706.974 331.142 706.861 331.08 706.535 330.903 706.431 330.825 706.135 330.602 706.043 330.509 705.783 330.246 705.705 330.14 705.486 329.843 705.424 329.726 705.25 329.402 705.205 329.275 705.08 328.931 705.052 328.798 704.978 328.443 704.969 328.305 704.945 327.945 704.956 327.806 704.982 327.45 705.012 327.311 705.086 326.966 705.135 326.831 705.254 326.503 705.322 326.375 705.483 326.069 705.568 325.95 705.766 325.673 705.867 325.566 706.099 325.321 706.214 325.228 706.474 325.019 706.601 324.943 706.883 324.773 707.02 324.714 707.319 324.586 707.464 324.546 707.775 324.46 707.924 324.44 708.24 324.398 z " style="fill: green; stroke: black; stroke-width: 0.000000; fill-type: evenodd"  fill-opacity="1.000000" />
   <path d="M 708.236 314.043 708.476 314.044 708.656 314.07 708.892 314.104 709.067 314.154 709.296 314.22 709.462 314.294 709.68 314.39 709.834 314.486 710.038 314.612 710.177 314.728 710.363 314.882 710.485 315.015 710.649 315.194 710.751 315.342 710.891 315.544 710.972 315.705 711.084 315.927 711.143 316.096 711.225 316.334 711.26 316.51 711.31 316.76 711.32 316.937 711.336 317.196 711.322 317.372 711.302 317.634 711.266 317.806 711.266 317.806 711.21 318.066 711.15 318.23 711.058 318.484 710.977 318.637 710.849 318.878 710.749 319.017 710.587 319.242 710.47 319.364 710.277 319.566 710.145 319.67 709.923 319.844 709.779 319.927 709.534 320.069 709.38 320.131 709.115 320.237 708.956 320.275 708.677 320.343 708.391 320.369 708.228 320.383 708.067 320.374 707.779 320.358 707.62 320.326 707.338 320.268 707.186 320.212 706.915 320.113 706.773 320.036 706.519 319.898 706.389 319.8 706.159 319.627 706.044 319.511 705.842 319.307 705.745 319.174 705.575 318.944 705.497 318.798 705.363 318.546 705.306 318.389 705.21 318.123 705.175 317.958 705.118 317.683 705.107 317.513 705.088 317.235 705.101 317.063 705.121 316.789 705.158 316.619 705.215 316.353 705.275 316.189 705.274 316.189 705.366 315.937 705.448 315.78 705.572 315.546 705.675 315.402 705.827 315.19 705.95 315.06 706.127 314.873 706.266 314.76 706.464 314.601 706.618 314.508 706.832 314.38 706.998 314.308 707.225 314.211 707.4 314.163 707.635 314.098 707.815 314.074 708.055 314.042 z " style="fill: green; stroke: black; stroke-width: 0.000000; fill-type: evenodd"  fill-opacity="1.000000" />
   <path d="M 718.995 296.711 719.307 296.715 719.538 296.752 719.846 296.801 720.088 296.872 720.381 296.958 720.629 297.063 720.9 297.178 721.148 297.316 721.39 297.452 721.633 297.622 721.843 297.769 722.075 297.968 722.252 298.12 722.467 298.345 722.612 298.496 722.805 298.742 722.919 298.888 723.086 299.151 723.173 299.288 723.31 299.563 723.372 299.689 723.475 299.971 723.517 300.086 723.584 300.369 723.609 300.473 723.638 300.753 723.648 300.845 723.639 301.117 723.637 301.199 723.59 301.458 723.577 301.53 723.493 301.773 723.47 301.837 723.35 302.058 723.319 302.115 723.164 302.312 723.124 302.363 722.939 302.532 722.889 302.577 722.675 302.716 722.615 302.755 722.376 302.861 722.305 302.893 722.046 302.967 721.961 302.991 721.686 303.03 721.586 303.044 721.478 303.045 721.185 303.05 720.893 303.02 720.76 303.007 720.467 302.944 720.318 302.912 720.03 302.819 719.863 302.764 719.585 302.642 719.403 302.562 719.14 302.415 718.946 302.306 718.704 302.137 718.502 301.996 718.284 301.809 718.08 301.634 717.891 301.435 717.693 301.227 717.535 301.019 717.352 300.779 717.228 300.568 717.069 300.3 716.981 300.091 716.857 299.801 716.804 299.598 716.725 299.294 716.708 299.102 716.682 298.796 716.701 298.618 716.732 298.321 716.785 298.161 716.785 298.161 716.876 297.885 716.962 297.746 717.112 297.502 717.229 297.387 717.433 297.185 717.578 297.096 717.827 296.944 717.999 296.884 718.281 296.784 718.476 296.755 718.78 296.709 z " style="fill: green; stroke: black; stroke-width: 0.000000; fill-type: evenodd"  fill-opacity="1.000000" />
   <path d="M 711.377 284.465 711.934 284.542 711.986 284.557 712.526 284.713 712.574 284.736 713.09 284.971 713.135 284.999 713.619 285.311 713.658 285.344 714.104 285.729 714.137 285.767 714.203 285.84 714.46 285.776 714.504 285.771 715.099 285.706 715.145 285.707 715.737 285.723 715.785 285.731 716.364 285.826 716.411 285.841 716.966 286.011 717.012 286.033 717.534 286.275 717.578 286.303 718.058 286.611 718.098 286.646 718.528 287.013 718.564 287.054 718.937 287.474 718.968 287.52 719.279 287.984 719.303 288.034 719.546 288.536 719.563 288.589 719.735 289.118 719.745 289.173 719.843 289.721 719.845 289.777 719.867 290.335 719.862 290.39 719.807 290.948 719.794 291.001 719.663 291.551 719.643 291.6 719.437 292.131 719.412 292.176 719.132 292.678 719.102 292.719 718.754 293.182 718.719 293.217 718.307 293.634 718.27 293.663 717.801 294.023 717.761 294.046 717.243 294.343 717.202 294.359 716.643 294.585 716.603 294.595 716.013 294.743 715.973 294.747 715.585 295.148 715.577 295.155 715.467 295.241 715.359 295.346 715.339 295.361 714.822 295.739 714.799 295.752 714.799 295.752 714.241 296.05 714.215 296.06 713.875 296.184 713.973 296.25 714.212 296.41 714.368 296.548 714.579 296.736 714.722 296.899 714.903 297.107 715.028 297.293 715.177 297.513 715.282 297.718 715.398 297.944 715.48 298.165 715.564 298.391 715.621 298.622 715.675 298.843 715.705 299.081 715.731 299.293 715.732 299.533 715.734 299.733 715.706 299.97 715.685 300.155 715.628 300.386 715.587 300.555 715.502 300.773 715.443 300.925 715.332 301.128 715.258 301.263 715.122 301.445 715.034 301.563 714.875 301.722 714.776 301.822 714.597 301.956 714.487 302.038 714.291 302.143 714.171 302.207 713.962 302.281 713.834 302.327 713.615 302.37 713.479 302.397 713.337 302.404 713.111 302.416 712.885 302.395 712.735 302.381 712.512 302.329 712.357 302.293 712.14 302.21 711.982 302.151 711.775 302.041 711.615 301.956 711.422 301.82 711.264 301.709 711.088 301.55 710.934 301.412 710.778 301.235 710.632 301.068 710.5 300.876 710.366 300.682 710.258 300.479 710.141 300.259 710.06 300.049 709.966 299.805 709.911 299.593 709.844 299.33 709.818 299.12 709.783 298.841 709.784 298.638 709.786 298.351 709.813 298.158 709.855 297.871 709.908 297.692 709.992 297.412 710.069 297.251 710.195 296.988 710.293 296.848 710.46 296.611 710.578 296.493 710.783 296.29 710.869 296.232 710.367 296.069 710.357 296.064 709.74 295.763 709.731 295.757 709.161 295.373 709.153 295.365 708.643 294.906 708.636 294.897 708.317 294.518 708.118 294.673 707.988 294.748 707.514 295.022 707.374 295.078 707.113 295.184 707.274 295.514 707.324 295.668 707.437 296.018 707.468 296.184 707.533 296.54 707.542 296.715 707.561 297.068 707.548 297.248 707.523 297.591 707.487 297.773 707.423 298.099 707.364 298.279 707.265 298.582 707.184 298.756 707.055 299.033 706.952 299.197 706.797 299.445 706.674 299.596 706.499 299.811 706.358 299.946 706.166 300.129 706.01 300.243 705.805 300.393 705.636 300.485 705.422 300.601 705.244 300.669 705.024 300.752 704.839 300.793 704.616 300.843 704.393 300.861 704.205 300.875 704.017 300.863 703.796 300.848 703.612 300.808 703.395 300.762 703.219 300.696 703.009 300.618 702.843 300.527 702.642 300.417 702.49 300.303 702.301 300.163 702.164 300.029 701.991 299.857 701.873 299.705 701.717 299.504 701.62 299.338 701.485 299.108 701.409 298.93 701.3 298.674 701.247 298.489 701.247 298.489 701.167 298.208 701.137 298.019 701.089 297.717 701.082 297.529 701.071 297.209 701.087 297.025 701.115 296.694 701.152 296.517 701.224 296.181 701.28 296.016 701.396 295.681 701.471 295.53 701.632 295.206 701.722 295.071 701.928 294.767 702.032 294.651 702.218 294.444 702.132 294.367 701.726 294.001 701.629 293.885 701.495 293.726 701.434 293.739 701.315 293.766 700.954 293.81 700.826 293.826 700.472 293.834 700.339 293.837 699.999 293.81 699.862 293.799 699.542 293.738 699.405 293.712 699.11 293.62 698.977 293.578 698.711 293.457 698.586 293.4 698.354 293.254 698.24 293.182 698.045 293.012 697.946 292.926 697.79 292.737 697.709 292.639 697.594 292.434 697.534 292.326 697.462 292.109 697.424 291.993 697.396 291.767 697.381 291.647 697.398 291.416 697.398 291.416 697.407 291.293 697.469 291.062 697.501 290.94 697.607 290.711 697.661 290.594 697.81 290.372 697.883 290.262 698.074 290.051 698.164 289.95 698.394 289.754 698.499 289.665 698.765 289.487 698.879 289.411 699.178 289.257 699.299 289.194 699.626 289.067 699.75 289.018 700.099 288.921 700.223 288.887 700.589 288.823 700.624 288.817 700.685 288.68 700.908 288.18 700.988 288.052 701.277 287.589 701.374 287.473 701.726 287.054 701.838 286.953 702.244 286.587 702.369 286.503 702.822 286.197 702.958 286.131 703.449 285.892 703.593 285.845 704.113 285.676 704.261 285.65 704.8 285.555 704.951 285.55 705.497 285.531 705.647 285.546 706.191 285.604 706.337 285.64 706.867 285.772 707.007 285.829 707.514 286.034 707.552 286.055 707.774 285.818 707.805 285.792 708.306 285.375 708.344 285.352 708.875 285.016 708.918 284.996 709.471 284.743 709.519 284.729 710.083 284.558 710.135 284.55 710.704 284.463 710.757 284.463 711.324 284.458 z " style="fill: green; stroke: black; stroke-width: 0.000000; fill-type: evenodd"  fill-opacity="1.000000" />
   <path d="M 555.816 288.337 556.038 288.352 556.254 288.398 556.439 288.438 556.648 288.513 556.826 288.578 557.021 288.682 557.188 288.771 557.368 288.901 557.521 289.012 557.68 289.167 557.816 289.298 557.862 289.357 558.055 289.254 558.214 289.169 558.443 289.086 558.613 289.024 558.851 288.974 559.028 288.936 559.271 288.919 559.451 288.906 559.631 288.919 559.874 288.936 560.112 288.987 560.289 289.024 560.518 289.108 560.687 289.169 560.903 289.284 561.062 289.369 561.259 289.512 561.405 289.618 561.581 289.787 561.71 289.912 561.86 290.105 561.971 290.247 562.093 290.458 562.184 290.614 562.275 290.84 562.342 291.007 562.401 291.244 562.445 291.419 562.471 291.662 562.489 291.841 562.481 292.085 562.475 292.265 562.432 292.505 562.401 292.683 562.326 292.915 562.27 293.086 562.163 293.305 562.084 293.467 561.948 293.669 561.847 293.819 561.684 294 561.563 294.134 561.376 294.291 561.238 294.407 561.031 294.536 560.878 294.632 560.655 294.731 560.491 294.804 560.256 294.871 560.083 294.921 559.841 294.955 559.663 294.98 559.239 294.98 559.192 294.974 559.09 295.126 558.939 295.293 558.814 295.433 558.642 295.577 558.498 295.698 558.307 295.817 558.148 295.916 557.943 296.008 557.771 296.084 557.555 296.146 557.374 296.198 557.152 296.229 556.966 296.255 556.553 296.255 556.331 296.224 556.145 296.198 555.929 296.136 555.748 296.084 555.543 295.993 555.371 295.916 555.181 295.797 555.021 295.698 554.849 295.553 554.705 295.433 554.555 295.266 554.429 295.126 554.304 294.94 554.199 294.784 554.1 294.582 554.018 294.413 553.948 294.2 553.89 294.021 553.851 293.8 553.819 293.615 553.818 293.584 553.727 293.508 553.582 293.387 553.434 293.222 553.307 293.081 553.183 292.898 553.077 292.741 552.98 292.542 552.897 292.371 552.829 292.161 552.77 291.981 552.732 291.762 552.699 291.576 552.691 291.355 552.685 291.166 552.708 290.945 552.728 290.757 552.781 290.542 552.827 290.358 552.91 290.153 552.981 289.977 553.092 289.785 553.186 289.622 553.323 289.447 553.439 289.298 553.599 289.144 553.735 289.012 553.914 288.882 554.067 288.771 554.263 288.667 554.43 288.578 554.638 288.502 554.816 288.438 555.033 288.391 555.218 288.352 555.439 288.337 555.628 288.323 z " style="fill: green; stroke: black; stroke-width: 0.000000; fill-type: evenodd"  fill-opacity="1.000000" />
   <path d="M 733.335 291.185 733.691 291.19 733.818 291.204 734.163 291.244 734.289 291.272 734.618 291.346 734.739 291.388 735.046 291.494 735.159 291.548 735.439 291.684 735.542 291.751 735.789 291.913 735.879 291.992 736.09 292.177 736.163 292.265 736.335 292.47 736.391 292.566 736.519 292.786 736.556 292.889 736.64 293.121 736.657 293.227 736.695 293.466 736.691 293.573 736.683 293.815 736.658 293.922 736.603 294.162 736.559 294.265 736.459 294.5 736.396 294.597 736.251 294.821 736.171 294.911 735.985 295.121 735.891 295.201 735.666 295.393 735.559 295.462 735.299 295.631 735.183 295.688 734.892 295.832 734.77 295.876 734.453 295.991 734.328 296.021 733.991 296.104 733.865 296.122 733.514 296.171 733.39 296.176 733.031 296.19 732.911 296.182 732.553 296.159 732.44 296.14 732.088 296.081 731.983 296.051 731.646 295.956 731.551 295.917 731.234 295.787 731.15 295.739 730.862 295.576 730.79 295.522 730.536 295.329 730.477 295.269 730.262 295.05 730.217 294.985 730.047 294.745 730.015 294.676 729.894 294.419 729.875 294.348 729.806 294.078 729.801 294.006 729.784 293.73 729.794 293.657 729.83 293.381 729.854 293.309 729.943 293.038 729.98 292.968 730.119 292.707 730.17 292.641 730.357 292.396 730.421 292.333 730.65 292.109 730.727 292.053 730.994 291.854 731.083 291.804 731.382 291.634 731.481 291.592 731.806 291.454 731.914 291.421 732.258 291.317 732.374 291.295 732.728 291.226 732.851 291.215 733.209 291.184 z " style="fill: green; stroke: black; stroke-width: 0.000000; fill-type: evenodd"  fill-opacity="1.000000" />
   <path d="M 687.854 291.135 688.069 291.157 688.198 291.189 688.407 291.242 688.531 291.291 688.731 291.372 688.846 291.439 689.033 291.547 689.138 291.629 689.308 291.761 689.4 291.857 689.55 292.012 689.628 292.12 689.755 292.294 689.817 292.412 689.919 292.602 689.964 292.727 690.038 292.93 690.066 293.06 690.11 293.271 690.12 293.404 690.135 293.619 690.125 293.752 690.11 293.967 690.083 294.097 690.038 294.308 689.992 294.433 689.919 294.636 689.856 294.754 689.755 294.944 689.677 295.052 689.55 295.226 689.457 295.322 689.308 295.477 689.203 295.559 689.033 295.692 688.917 295.758 688.731 295.866 688.607 295.916 688.407 295.997 688.278 296.029 688.069 296.081 687.936 296.095 687.722 296.118 687.589 296.113 687.374 296.105 687.242 296.082 687.03 296.045 686.903 296.004 686.698 295.937 686.578 295.879 686.385 295.784 686.274 295.71 686.096 295.589 685.997 295.5 685.836 295.356 685.751 295.254 685.612 295.089 685.542 294.976 685.427 294.793 685.373 294.671 685.286 294.474 685.249 294.346 685.189 294.139 685.171 294.007 685.141 293.794 685.141 293.445 685.159 293.313 685.189 293.099 685.226 292.971 685.286 292.764 685.34 292.642 685.427 292.446 685.498 292.333 685.612 292.15 685.698 292.048 685.836 291.883 685.935 291.793 686.096 291.649 686.206 291.575 686.385 291.454 686.504 291.396 686.698 291.301 686.825 291.26 687.03 291.193 687.161 291.17 687.374 291.133 687.507 291.128 687.722 291.121 z " style="fill: green; stroke: black; stroke-width: 0.000000; fill-type: evenodd"  fill-opacity="1.000000" />
   <path d="M 746.272 289.431 746.676 289.466 746.745 289.48 747.128 289.556 747.195 289.578 747.549 289.693 747.612 289.723 747.931 289.875 747.988 289.912 748.267 290.097 748.317 290.142 748.551 290.355 748.591 290.407 748.777 290.645 748.806 290.702 748.94 290.961 748.958 291.022 749.038 291.297 749.043 291.36 749.068 291.645 749.061 291.709 749.03 292 749.011 292.064 748.925 292.355 748.895 292.416 748.754 292.701 748.714 292.759 748.521 293.034 748.472 293.086 748.231 293.346 748.175 293.392 747.889 293.631 747.828 293.671 747.501 293.884 747.438 293.917 747.076 294.1 747.012 294.125 746.622 294.274 746.558 294.292 746.147 294.404 746.085 294.414 745.661 294.486 745.603 294.49 745.173 294.519 745.119 294.517 744.693 294.502 744.644 294.495 744.23 294.436 744.186 294.425 743.792 294.323 743.755 294.308 743.39 294.163 743.358 294.146 743.029 293.961 743.004 293.941 742.719 293.72 742.699 293.698 742.463 293.445 742.448 293.422 742.268 293.141 742.258 293.117 742.137 292.815 742.133 292.79 742.073 292.472 742.074 292.446 742.077 292.119 742.083 292.093 742.149 291.764 742.16 291.737 742.288 291.413 742.304 291.385 742.49 291.072 742.512 291.045 742.752 290.749 742.78 290.722 743.069 290.449 743.104 290.424 743.435 290.18 743.476 290.156 743.842 289.945 743.889 289.924 744.282 289.749 744.336 289.732 744.748 289.597 744.807 289.584 745.23 289.491 745.294 289.484 745.718 289.434 745.785 289.432 746.203 289.425 z " style="fill: green; stroke: black; stroke-width: 0.000000; fill-type: evenodd"  fill-opacity="1.000000" />
   <path d="M 753.61 287.547 754.04 287.551 754.097 287.558 754.51 287.605 754.569 287.619 754.957 287.707 755.016 287.728 755.372 287.856 755.428 287.885 755.747 288.048 755.798 288.084 756.074 288.28 756.118 288.323 756.347 288.546 756.383 288.596 756.562 288.843 756.588 288.897 756.713 289.164 756.727 289.222 756.798 289.502 756.801 289.562 756.815 289.852 756.806 289.913 756.764 290.207 756.744 290.266 756.645 290.559 756.615 290.615 756.462 290.901 756.423 290.953 756.217 291.228 756.172 291.275 755.916 291.533 755.865 291.573 755.564 291.809 755.511 291.842 755.168 292.052 755.114 292.078 754.737 292.257 754.684 292.275 754.277 292.419 754.227 292.431 753.798 292.536 753.753 292.542 753.31 292.605 753.27 292.606 752.823 292.625 752.788 292.622 752.344 292.595 752.316 292.59 751.884 292.517 751.862 292.51 751.453 292.391 751.435 292.383 751.057 292.22 751.044 292.213 750.705 292.008 750.696 292.001 750.404 291.758 750.398 291.752 750.16 291.476 750.156 291.47 749.976 291.166 749.974 291.161 749.858 290.836 749.857 290.831 749.807 290.491 749.807 290.485 749.824 290.138 749.826 290.132 749.909 289.784 749.912 289.776 750.06 289.435 750.066 289.427 750.275 289.1 750.283 289.09 750.548 288.783 750.561 288.772 750.876 288.492 750.894 288.48 751.251 288.232 751.274 288.219 751.665 288.007 751.695 287.995 752.112 287.824 752.149 287.813 752.582 287.684 752.625 287.676 753.067 287.591 753.116 287.586 753.556 287.546 z " style="fill: green; stroke: black; stroke-width: 0.000000; fill-type: evenodd"  fill-opacity="1.000000" />
   <path d="M 738.098 284.351 738.485 284.371 738.572 284.384 738.958 284.445 739.049 284.468 739.425 284.567 739.518 284.602 739.878 284.736 739.97 284.782 740.308 284.949 740.397 285.005 740.706 285.2 740.789 285.266 741.064 285.485 741.139 285.561 741.376 285.799 741.44 285.883 741.635 286.136 741.687 286.225 741.837 286.488 741.874 286.582 741.874 286.582 741.977 286.849 741.997 286.946 742.053 287.213 742.056 287.309 742.064 287.571 742.048 287.664 742.008 287.917 741.975 288.006 741.887 288.245 741.838 288.326 741.704 288.547 741.639 288.62 741.462 288.818 741.384 288.88 741.166 289.053 741.076 289.104 740.822 289.247 740.723 289.285 740.435 289.397 740.331 289.422 740.015 289.498 739.907 289.511 739.568 289.551 739.46 289.551 739.104 289.552 738.998 289.541 738.632 289.504 738.53 289.482 738.16 289.405 738.065 289.375 737.699 289.259 737.612 289.221 737.256 289.068 737.179 289.024 736.841 288.835 736.774 288.787 736.463 288.566 736.406 288.515 736.127 288.266 736.08 288.213 735.84 287.94 735.805 287.887 735.609 287.595 735.584 287.542 735.438 287.237 735.422 287.185 735.329 286.874 735.323 286.824 735.286 286.512 735.289 286.464 735.309 286.159 735.321 286.114 735.397 285.821 735.418 285.779 735.549 285.506 735.578 285.467 735.762 285.218 735.8 285.183 736.032 284.964 736.078 284.934 736.353 284.749 736.407 284.724 736.72 284.577 736.781 284.558 737.124 284.451 737.194 284.439 737.559 284.374 737.635 284.37 738.015 284.347 z " style="fill: green; stroke: black; stroke-width: 0.000000; fill-type: evenodd"  fill-opacity="1.000000" />
   <path d="M 539.516 284.804 539.675 284.815 539.831 284.848 539.979 284.88 540.128 284.934 540.27 284.986 540.41 285.061 540.544 285.132 540.672 285.225 540.795 285.314 540.909 285.424 541.018 285.529 541.116 285.655 541.209 285.774 541.288 285.912 541.364 286.043 541.424 286.19 541.48 286.33 541.519 286.484 541.555 286.631 541.572 286.789 541.588 286.94 541.582 287.099 541.577 287.25 541.549 287.406 541.523 287.555 541.474 287.706 541.427 287.85 541.357 287.993 541.291 288.129 541.202 288.261 541.118 288.386 541.011 288.504 540.91 288.617 540.788 288.719 540.672 288.816 540.538 288.9 540.409 288.981 540.264 289.045 540.126 289.107 539.973 289.151 539.828 289.192 539.67 289.214 539.521 289.235 539.21 289.235 539.053 289.213 538.903 289.192 538.75 289.148 538.605 289.107 538.46 289.042 538.322 288.981 538.187 288.896 538.059 288.816 537.937 288.714 537.821 288.617 537.714 288.499 537.613 288.386 537.524 288.254 537.44 288.129 537.37 287.986 537.304 287.85 537.255 287.699 537.208 287.555 537.18 287.399 537.154 287.25 537.149 287.091 537.143 286.94 537.16 286.782 537.176 286.631 537.214 286.477 537.251 286.33 537.31 286.183 537.367 286.043 537.447 285.905 537.522 285.774 537.62 285.649 537.713 285.529 537.828 285.419 537.936 285.314 538.065 285.22 538.187 285.132 538.328 285.057 538.461 284.986 538.611 284.932 538.753 284.88 538.908 284.847 539.056 284.815 539.215 284.804 539.365 284.794 z " style="fill: green; stroke: black; stroke-width: 0.000000; fill-type: evenodd"  fill-opacity="1.000000" />
   <path d="M 767.607 282.807 767.93 282.816 768.13 282.846 768.464 282.895 768.651 282.946 768.989 283.037 769.161 283.107 769.494 283.243 769.648 283.331 769.966 283.511 770.1 283.614 770.392 283.838 770.503 283.952 770.76 284.217 770.847 284.34 771.057 284.64 771.119 284.77 771.275 285.098 771.311 285.232 771.405 285.579 771.415 285.714 771.443 286.07 771.427 286.204 771.386 286.557 771.345 286.688 771.238 287.029 771.172 287.153 771.002 287.471 770.912 287.586 770.687 287.873 770.573 287.977 770.302 288.225 770.166 288.315 769.86 288.519 769.704 288.593 769.373 288.751 769.2 288.806 768.854 288.917 768.667 288.952 768.318 289.017 768.12 289.029 767.776 289.05 767.444 289.032 767.241 289.021 767.033 288.985 766.722 288.932 766.515 288.872 766.229 288.788 766.028 288.704 765.77 288.595 765.579 288.487 765.35 288.357 765.174 288.227 764.975 288.081 764.818 287.932 764.65 287.772 764.515 287.606 764.377 287.437 764.266 287.256 764.159 287.081 764.075 286.889 763.997 286.709 763.943 286.51 763.893 286.327 763.868 286.124 763.846 285.94 763.853 285.737 763.859 285.554 763.896 285.354 763.929 285.174 763.995 284.98 763.995 284.98 764.056 284.803 764.151 284.621 764.24 284.449 764.361 284.28 764.478 284.116 764.623 283.962 764.769 283.808 764.934 283.674 765.109 283.532 765.292 283.419 765.496 283.292 765.692 283.202 765.924 283.095 766.129 283.028 766.389 282.943 766.599 282.901 766.883 282.844 767.094 282.826 767.4 282.8 z " style="fill: green; stroke: black; stroke-width: 0.000000; fill-type: evenodd"  fill-opacity="1.000000" />
   <path d="M 526.399 284.028 526.419 284.03 526.44 284.034 526.696 284.088 526.715 284.095 526.715 284.095 526.961 284.185 526.979 284.195 527.211 284.318 527.227 284.33 527.439 284.484 527.454 284.498 527.643 284.68 527.655 284.696 527.817 284.903 527.827 284.92 527.958 285.147 527.965 285.166 528.064 285.409 528.069 285.429 528.132 285.683 528.134 285.704 528.134 285.704 528.161 285.964 528.161 285.985 528.152 286.247 528.148 286.267 528.103 286.525 528.096 286.544 528.096 286.544 528.015 286.793 528.006 286.812 527.891 287.047 527.88 287.064 527.733 287.282 527.72 287.297 527.72 287.297 527.544 287.492 527.529 287.505 527.328 287.673 527.31 287.684 527.088 287.823 527.07 287.831 526.83 287.938 526.811 287.943 526.559 288.016 526.538 288.019 526.279 288.055 525.996 288.055 525.976 288.052 525.717 288.016 525.697 288.01 525.445 287.938 525.426 287.929 525.187 287.823 525.17 287.812 524.947 287.673 524.932 287.66 524.731 287.492 524.717 287.476 524.542 287.282 524.53 287.265 524.384 287.047 524.375 287.029 524.26 286.793 524.254 286.774 524.173 286.525 524.169 286.505 524.124 286.247 524.123 286.226 524.114 285.964 524.116 285.944 524.143 285.683 524.148 285.663 524.212 285.409 524.219 285.39 524.219 285.39 524.318 285.147 524.328 285.129 524.459 284.903 524.471 284.886 524.633 284.68 524.648 284.666 524.836 284.484 524.853 284.472 525.065 284.318 525.083 284.308 525.314 284.185 525.333 284.178 525.58 284.088 525.6 284.084 525.6 284.084 525.856 284.03 525.876 284.028 526.138 284.01 z " style="fill: green; stroke: black; stroke-width: 0.000000; fill-type: evenodd"  fill-opacity="1.000000" />
   <path d="M 564.807 280.189 564.807 280.189 564.951 280.196 564.958 280.198 565.127 280.223 565.163 280.233 565.302 280.269 565.394 280.303 565.477 280.334 565.638 280.412 565.652 280.419 565.663 280.427 565.822 280.531 565.951 280.636 565.987 280.667 566.071 280.756 566.142 280.831 566.162 280.859 566.28 281.024 566.312 281.082 566.397 281.246 566.42 281.305 566.485 281.492 566.493 281.528 566.528 281.714 566.535 281.751 566.537 281.759 566.545 281.975 566.546 282.038 566.527 282.198 566.51 282.321 566.482 282.421 566.429 282.598 566.407 282.644 566.303 282.858 566.297 282.868 566.185 283.026 566.14 283.091 566.137 283.094 566.098 283.135 565.937 283.299 565.917 283.314 565.707 283.467 565.572 283.537 565.457 283.597 565.456 283.597 565.456 283.597 565.191 283.685 565.189 283.686 565.189 283.686 564.915 283.73 564.637 283.73 564.634 283.73 564.361 283.685 564.359 283.685 564.095 283.597 564.094 283.596 563.98 283.537 563.894 283.493 563.845 283.467 563.754 283.401 563.635 283.314 563.624 283.305 563.615 283.299 563.517 283.199 563.414 283.094 563.413 283.092 563.412 283.091 563.332 282.977 563.255 282.867 563.252 282.863 563.249 282.858 563.192 282.742 563.144 282.644 563.134 282.622 563.123 282.598 563.093 282.499 563.069 282.421 563.057 282.376 563.042 282.321 563.032 282.251 563.024 282.198 563.016 282.126 563.006 282.038 563.007 282.002 563.007 281.975 563.011 281.877 563.015 281.759 563.016 281.755 563.016 281.751 563.039 281.631 563.059 281.528 563.063 281.511 563.067 281.492 563.102 281.392 563.132 281.305 563.143 281.276 563.155 281.246 563.198 281.162 563.24 281.082 563.256 281.052 563.272 281.024 563.328 280.945 563.389 280.859 563.401 280.843 563.41 280.831 563.49 280.746 563.565 280.667 563.579 280.654 563.601 280.635 563.684 280.568 563.73 280.531 563.793 280.49 563.9 280.419 563.904 280.417 563.914 280.412 564.033 280.354 564.075 280.334 564.166 280.3 564.25 280.269 564.305 280.255 564.425 280.223 564.451 280.219 564.6 280.196 564.607 280.196 564.745 280.189 564.745 280.189 564.775 280.188 564.776 280.188 z " style="fill: green; stroke: black; stroke-width: 0.000000; fill-type: evenodd"  fill-opacity="1.000000" />
   <path d="M 705.08 277.429 705.177 277.43 705.415 277.467 705.515 277.483 705.747 277.554 705.849 277.585 706.072 277.688 706.174 277.735 706.384 277.868 706.384 277.868 706.486 277.933 706.678 278.093 706.779 278.177 706.951 278.361 707.047 278.463 707.196 278.668 707.285 278.79 707.408 279.011 707.487 279.153 707.583 279.385 707.65 279.546 707.717 279.785 707.766 279.964 707.803 280.205 707.833 280.398 707.84 280.637 707.846 280.842 707.823 281.072 707.803 281.284 707.752 281.503 707.702 281.715 707.624 281.918 707.624 281.918 707.544 282.125 707.441 282.307 707.33 282.503 707.205 282.661 707.064 282.838 706.919 282.969 706.752 283.12 706.591 283.222 706.4 283.342 706.227 283.413 706.019 283.497 705.835 283.535 705.616 283.58 705.391 283.586 705.203 283.59 705.013 283.56 704.791 283.526 704.603 283.463 704.39 283.391 704.209 283.295 704.011 283.19 703.84 283.063 703.661 282.93 703.504 282.774 703.349 282.619 703.21 282.436 703.081 282.266 702.963 282.06 702.86 281.88 702.767 281.655 702.69 281.471 702.623 281.231 702.573 281.049 702.534 280.798 702.507 280.623 702.499 280.367 702.493 280.2 702.515 279.944 702.528 279.789 702.581 279.537 702.61 279.396 702.693 279.154 702.736 279.028 702.847 278.8 702.901 278.689 703.039 278.48 703.103 278.383 703.266 278.197 703.337 278.115 703.522 277.955 703.599 277.888 703.802 277.757 703.885 277.703 704.103 277.604 704.19 277.564 704.419 277.497 704.51 277.471 704.746 277.439 704.841 277.426 z " style="fill: green; stroke: black; stroke-width: 0.000000; fill-type: evenodd"  fill-opacity="1.000000" />
   <path d="M 484.05 331.475 485.116 334.701 492.658 357.529 499.701 378.842 484.789 384.51 475.243 388.139 475.243 379.721 475.243 379.526 475.243 379.221 475.243 333.675 475.243 331.371 475.243 304.82 z " style="fill: blue; stroke: black; stroke-width: 0.000000; fill-type: evenodd"  fill-opacity="1.000000" />
   <path d="M 689.385 265.849 691.15 268.729 694.207 273.72 694.225 273.749 694.252 273.789 694.319 273.888 694.314 273.991 694.29 274.512 694.168 278.238 694.146 278.9 692.434 278.92 690.806 278.94 689.564 278.954 688.66 278.965 677.892 279.092 677.892 291.139 677.892 300.133 683.842 300.063 692.148 299.965 692.148 302.24 692.148 302.971 692.148 304.935 692.148 305.976 692.251 305.975 692.62 305.971 693.293 305.963 693.239 308.41 693.227 308.97 691.095 321.979 690.061 329.046 689.035 329.058 688.969 329.059 681.866 329.142 681.324 329.149 674.581 329.228 673.791 329.238 668.955 329.295 664.577 329.346 663.328 329.361 658.081 329.423 656.043 329.447 651.316 329.503 648.874 329.531 645.508 329.571 643.337 329.597 640.323 329.632 637.97 329.66 634.434 329.702 631.033 329.742 628.035 329.777 624.43 329.82 622.354 329.844 619.326 329.88 617.094 329.906 613.161 329.953 611.643 329.97 608.401 330.009 605.246 330.046 604.058 330.06 599.739 330.111 598.432 330.126 586.22 330.27 583.303 330.305 580.984 330.332 578.87 330.357 576.072 330.39 574.171 330.412 571.676 330.442 569.601 330.466 567.983 330.485 566.753 330.5 565.152 330.519 546.657 330.737 544.963 330.757 543.695 330.772 539.108 330.826 536.682 330.854 533.897 330.887 530.899 330.923 528.895 330.946 526.833 330.971 524.546 330.998 522.401 331.023 520.983 331.04 519.284 331.06 518.159 331.073 517.119 331.085 515.958 331.099 514.943 331.111 514.26 331.119 513.649 331.126 512.954 331.134 512.489 331.14 511.954 331.146 511.504 331.151 511.191 331.155 510.926 331.158 510.614 331.162 510.361 331.165 510.182 331.167 505.793 331.219 505.793 308.176 505.793 298.099 505.793 284.92 510.616 299.517 511.468 302.095 536.549 301.8 539.398 301.766 539.398 302.118 539.398 303.186 539.398 304.772 550.409 304.642 570.57 304.404 571.487 307.179 571.559 307.398 571.809 307.395 572.221 307.391 572.697 307.385 573.123 307.38 573.446 307.376 573.671 307.374 573.819 307.372 573.913 307.371 573.97 307.37 574.021 307.369 574.021 304.478 574.021 304.364 574.021 302.145 574.021 301.358 584.747 301.231 588.278 301.19 588.278 280.149 580.917 280.236 580.3 280.243 579.45 280.253 578.337 280.266 576.935 280.282 575.229 280.303 573.223 280.326 570.955 280.353 568.501 280.382 565.977 280.412 563.534 280.441 561.334 280.466 559.526 280.488 558.212 280.503 513.155 281.035 510.748 281.063 509.156 281.082 508.148 281.094 507.502 281.101 507.077 281.106 506.787 281.11 506.585 281.112 506.441 281.114 506.337 281.115 506.26 281.116 506.203 281.117 506.16 281.117 505.793 281.121 505.793 269.239 505.793 267.516 506.391 266.92 512.332 261.005 520.344 260.911 520.499 260.909 520.713 260.907 521.333 260.899 522.189 260.889 522.544 260.885 522.974 260.88 524.237 260.865 525.861 260.846 526.548 260.838 528.727 260.812 529.659 260.801 530.687 260.789 533.799 260.752 537.599 260.707 539.252 260.688 540.995 260.667 541.514 260.661 544.128 263.988 546.007 266.063 546.553 266.666 547.579 267.799 548.786 268.911 549.156 269.251 550.533 270.521 550.841 270.746 552.59 272.017 553.157 272.43 553.34 272.526 555.253 273.528 555.562 273.69 557.587 274.327 557.833 274.404 557.995 274.42 559.989 274.62 560.037 274.625 560.166 274.61 562.174 274.375 562.235 274.368 564.129 273.735 564.222 273.704 564.486 273.616 566.256 272.646 566.408 272.563 566.856 272.317 567.403 271.903 569.128 270.595 569.426 270.369 570.782 269.067 571.14 268.723 572.304 267.606 573.982 265.672 574.855 264.667 575.646 263.755 576.552 262.549 576.911 262.071 578.295 260.228 580.486 260.202 582.245 260.181 586.249 260.134 589.495 260.095 590.558 260.083 591.523 260.072 593.761 260.045 595.53 260.024 596.122 260.017 599.817 259.974 600.424 259.967 601.852 259.95 602.955 259.937 603.329 259.932 603.637 259.929 604.378 259.92 604.913 259.914 605.098 259.911 670.792 259.137 672.739 259.114 678.821 259.042 685.436 258.964 z " style="fill: blue; stroke: black; stroke-width: 0.000000; fill-type: evenodd"  fill-opacity="1.000000" />
   <path d="M 760.377 304.092 760.377 328.217 744.098 328.408 743.296 328.418 742.137 328.432 740.697 328.449 739.44 328.463 737.947 328.481 735.728 328.507 733.021 328.539 730.573 328.568 726.795 328.613 725.96 328.622 724.858 322.147 722.321 308.626 722.197 305.876 722.185 305.622 724.378 305.596 725.595 305.582 726.237 305.574 726.574 305.57 726.772 305.568 726.772 303.355 726.772 302.562 726.772 302.267 726.772 299.556 734.988 299.459 760.377 299.16 z " style="fill: blue; stroke: black; stroke-width: 0.000000; fill-type: evenodd"  fill-opacity="1.000000" />
   <path d="M 759.117 268.299 760.377 269.524 760.377 273.072 760.377 278.119 748.615 278.258 747.26 278.274 745.434 278.295 742.97 278.324 739.62 278.364 735.011 278.418 728.55 278.495 720.695 278.587 720.665 278.051 720.495 275.025 720.411 273.818 720.395 273.581 720.578 273.294 720.606 273.25 723.176 268.812 723.552 268.162 725.322 265.108 728.927 258.451 729.641 258.443 730.571 258.432 731.401 258.422 733.435 258.398 734.076 258.39 735.651 258.372 736.873 258.357 737.303 258.352 737.639 258.348 738.47 258.339 739.026 258.332 739.223 258.33 739.337 258.328 739.623 258.325 748.747 258.217 z " style="fill: blue; stroke: black; stroke-width: 0.000000; fill-type: evenodd"  fill-opacity="1.000000" />
   <path d="M 564.807 280.189 564.807 280.189 564.951 280.196 564.958 280.198 565.127 280.223 565.163 280.233 565.302 280.269 565.394 280.303 565.477 280.334 565.638 280.412 565.645 280.416 563.874 280.436 563.9 280.419 563.904 280.417 563.914 280.412 564.033 280.354 564.075 280.334 564.166 280.3 564.25 280.269 564.305 280.255 564.425 280.223 564.451 280.219 564.6 280.196 564.607 280.196 564.745 280.189 564.745 280.189 564.775 280.188 564.776 280.188 z" style="fill: red; stroke: black; stroke-width: 0.000000; fill-type: evenodd"  fill-opacity="1.000000" />
</svg>
