<?xml version="1.0" encoding="UTF-8" standalone="yes"?>
<!DOCTYPE svg PUBLIC "-//W3C//DTD SVG 1.0//EN" "http://www.w3.org/TR/2001/REC-SVG-20010904/DTD/svg10.dtd">
<svg height="2000" width="2000" xmlns="http://www.w3.org/2000/svg" xmlns:svg="http://www.w3.org/2000/svg" xmlns:xlink="http://www.w3.org/1999/xlink">
   <marker id="endArrow" markerHeight="8" markerUnits="strokeWidth" markerWidth="10" orient="auto" refX="1" refY="5" viewBox="0 0 10 10">
      <polyline fill="darkblue" points="0,0 10,5 0,10 1,5" />
   </marker>
<rect fill='white' stroke='none' x='0' y='0' width='2000.000000' height='2000.000000'/>
   <path d="M 564.06 364.256 564.283 364.281 564.756 364.426 564.975 364.493 565.436 364.728 565.646 364.836 566.086 365.158 566.282 365.303 566.692 365.707 566.872 365.884 567.244 366.365 567.402 366.57 567.729 367.119 567.864 367.345 568.138 367.953 568.248 368.196 568.464 368.853 568.546 369.105 568.698 369.799 568.754 370.055 568.837 370.773 568.866 371.027 568.877 371.756 568.881 372.003 568.819 372.728 568.798 372.963 568.662 373.669 568.62 373.889 568.411 374.561 568.348 374.763 568.07 375.387 567.99 375.567 567.647 376.129 567.551 376.286 567.149 376.775 567.041 376.907 566.588 377.31 566.468 377.417 565.974 377.725 565.845 377.805 565.319 378.012 565.183 378.065 564.636 378.166 564.496 378.192 563.939 378.184 563.797 378.182 563.242 378.067 563.098 378.037 562.557 377.817 562.415 377.759 561.899 377.439 561.76 377.353 561.279 376.941 561.146 376.827 560.709 376.333 560.585 376.192 560.201 375.627 560.087 375.46 559.763 374.837 559.663 374.645 559.404 373.977 559.321 373.763 559.131 373.064 559.068 372.831 558.949 372.116 558.907 371.868 558.86 371.151 558.844 370.892 558.868 370.187 558.878 369.921 558.972 369.242 559.008 368.976 559.169 368.334 559.234 368.074 559.456 367.481 559.55 367.233 559.829 366.699 559.949 366.469 560.279 366.004 560.425 365.797 560.799 365.407 560.968 365.231 561.378 364.923 561.567 364.781 562.007 364.559 562.211 364.456 562.671 364.323 562.887 364.262 563.36 364.222 563.582 364.203 z " style="fill: green; stroke: black; stroke-width: 0.000000; fill-type: evenodd"  fill-opacity="1.000000" />
   <path d="M 714.396 337.278 714.929 337.336 715.157 337.398 715.695 337.545 715.926 337.646 716.458 337.877 716.689 338.016 717.203 338.325 717.43 338.502 717.915 338.879 718.134 339.093 718.582 339.531 718.788 339.779 719.19 340.266 719.377 340.546 719.726 341.071 719.89 341.379 720.182 341.929 720.317 342.26 720.547 342.824 720.648 343.172 720.815 343.74 720.879 344.097 720.98 344.657 721.004 345.016 721.039 345.558 721.02 345.911 720.992 346.425 720.929 346.764 720.839 347.242 720.731 347.559 720.583 347.993 720.431 348.279 720.228 348.663 720.036 348.911 719.783 349.239 719.554 349.443 719.255 349.71 718.994 349.865 718.655 350.066 718.368 350.168 717.994 350.301 717.688 350.349 717.286 350.411 716.967 350.403 716.544 350.392 716.22 350.33 715.782 350.246 715.461 350.132 715.016 349.975 714.705 349.814 714.261 349.584 713.965 349.381 713.53 349.082 713.256 348.842 712.839 348.477 712.592 348.208 712.2 347.782 711.984 347.491 711.626 347.01 711.444 346.705 711.129 346.177 710.982 345.863 710.718 345.298 710.608 344.983 710.4 344.39 710.328 344.081 710.183 343.472 710.147 343.174 710.071 342.561 710.069 342.279 710.065 341.674 710.096 341.412 710.165 340.83 710.227 340.592 710.371 340.044 710.461 339.832 710.677 339.332 710.794 339.149 711.078 338.707 711.218 338.556 711.565 338.183 711.727 338.064 712.131 337.768 712.311 337.683 712.763 337.471 712.959 337.422 713.449 337.299 713.659 337.286 714.176 337.253 z " style="fill: green; stroke: black; stroke-width: 0.000000; fill-type: evenodd"  fill-opacity="1.000000" />
   <path d="M 713.388 300.286 713.438 300.291 713.485 300.307 713.732 300.388 713.774 300.412 714.009 300.545 714.042 300.574 714.258 300.756 714.283 300.785 714.474 301.012 714.49 301.037 714.653 301.303 714.661 301.32 714.791 301.619 714.793 301.626 714.842 301.794 714.858 301.842 714.89 301.939 714.891 301.942 714.893 301.948 714.909 302.044 714.909 302.044 714.916 302.084 714.924 302.146 714.924 302.146 714.936 302.229 714.938 302.248 714.942 302.291 714.941 302.35 714.941 302.374 714.938 302.453 714.935 302.519 714.932 302.554 714.926 302.634 714.922 302.655 714.921 302.664 714.9 302.757 714.9 302.757 714.888 302.809 714.876 302.857 714.85 302.954 714.85 302.956 714.849 302.959 714.81 303.054 714.791 303.099 714.767 303.151 714.724 303.244 714.724 303.245 714.723 303.246 714.665 303.338 714.633 303.389 714.605 303.428 714.565 303.486 714.541 303.515 714.525 303.535 714.466 303.6 714.394 303.679 714.394 303.679 714.304 303.756 714.224 303.825 714.221 303.827 714.219 303.828 714.121 303.893 714.049 303.94 714.027 303.952 713.995 303.97 713.922 304.006 713.887 304.023 713.816 304.053 713.736 304.085 713.712 304.093 713.712 304.093 713.645 304.115 713.603 304.127 713.593 304.13 713.486 304.152 713.456 304.159 713.369 304.171 713.325 304.177 713.25 304.182 713.196 304.186 713.069 304.186 712.994 304.181 712.941 304.177 712.849 304.164 712.809 304.159 712.687 304.133 712.673 304.13 712.621 304.115 712.529 304.085 712.471 304.061 712.378 304.023 712.27 303.97 712.217 303.94 712.063 303.839 712.047 303.828 712.042 303.825 711.886 303.692 711.872 303.68 711.872 303.679 711.74 303.534 711.701 303.487 711.633 303.389 711.542 303.246 711.541 303.244 711.541 303.242 711.475 303.099 711.417 302.959 711.415 302.954 711.414 302.95 711.377 302.809 711.35 302.687 711.345 302.664 711.339 302.635 711.331 302.519 711.327 302.434 711.324 302.374 711.324 302.291 711.33 302.229 711.336 302.184 711.35 302.084 711.373 301.948 711.375 301.939 711.378 301.931 711.423 301.794 711.474 301.619 711.477 301.612 711.613 301.303 711.623 301.286 711.791 301.012 711.811 300.989 712.008 300.756 712.037 300.732 712.257 300.545 712.295 300.524 712.533 300.388 712.578 300.373 712.828 300.291 712.877 300.286 713.133 300.258 z " style="fill: green; stroke: black; stroke-width: 0.000000; fill-type: evenodd"  fill-opacity="1.000000" />
   <path d="M 773.521 281.376 774.185 281.446 774.214 281.453 774.862 281.615 774.889 281.626 775.509 281.876 775.534 281.891 776.113 282.225 776.136 282.243 776.663 282.654 776.683 282.676 777.147 283.156 777.165 283.18 777.557 283.72 777.571 283.747 777.885 284.336 777.895 284.364 778.123 284.992 778.129 285.021 778.268 285.674 778.27 285.704 778.317 286.37 778.315 286.4 778.268 287.066 778.262 287.095 778.123 287.748 778.113 287.776 777.885 288.404 777.871 288.43 777.557 289.02 777.54 289.044 777.147 289.584 777.127 289.605 776.663 290.086 776.639 290.104 776.113 290.515 776.087 290.53 775.509 290.864 775.481 290.875 774.862 291.125 774.833 291.132 774.185 291.294 774.156 291.297 773.677 291.348 773.65 291.549 773.592 291.975 773.469 292.442 773.362 292.847 773.168 293.345 773.023 293.718 772.753 294.238 772.581 294.57 772.231 295.103 772.044 295.387 771.614 295.919 771.424 296.154 770.915 296.67 770.732 296.854 770.149 297.337 769.982 297.475 769.333 297.908 769.189 298.005 768.486 298.371 768.367 298.433 767.625 298.715 767.533 298.75 766.769 298.935 766.703 298.951 765.937 299.027 765.893 299.032 765.146 298.992 765.119 298.991 765.043 298.974 764.545 299.021 764.458 299.029 763.724 299.01 763.613 299.007 762.911 298.908 762.777 298.89 762.124 298.727 761.971 298.689 761.377 298.475 761.208 298.414 760.681 298.163 760.502 298.078 760.045 297.801 759.862 297.691 759.473 297.399 759.292 297.263 758.97 296.964 758.799 296.805 758.539 296.506 758.383 296.325 758.181 296.03 758.046 295.831 757.898 295.544 757.787 295.33 757.688 295.053 757.608 294.828 757.555 294.571 757.398 294.577 757.396 294.577 756.923 294.547 756.917 294.547 756.461 294.47 756.452 294.468 756.021 294.346 756.01 294.343 755.611 294.179 755.598 294.174 755.239 293.971 755.226 293.964 754.913 293.726 754.9 293.717 754.639 293.45 754.627 293.437 754.421 293.146 754.411 293.132 754.265 292.821 754.258 292.806 754.174 292.482 754.174 292.482 754.17 292.465 754.15 292.134 754.149 292.117 754.192 291.785 754.195 291.768 754.302 291.441 754.307 291.425 754.476 291.109 754.484 291.094 754.712 290.795 754.721 290.783 755.004 290.507 755.015 290.497 755.348 290.249 755.358 290.241 755.737 290.026 755.746 290.021 756.162 289.844 756.17 289.841 756.617 289.706 756.622 289.704 757.09 289.614 757.093 289.614 757.307 289.594 757.405 289.581 757.416 289.581 757.573 289.545 757.584 289.543 758.072 289.481 758.111 289.48 758.589 289.468 758.657 289.474 759.114 289.51 759.207 289.527 759.634 289.609 759.748 289.645 760.135 289.769 760.261 289.828 760.602 289.988 760.729 290.073 761.018 290.265 761.135 290.376 761.329 290.558 761.525 290.542 761.755 290.523 762.264 290.533 762.483 290.538 763.039 290.605 763.124 290.615 763.157 290.559 763.579 289.982 763.737 289.765 764.19 289.259 764.395 289.03 764.864 288.6 765.117 288.367 765.59 288.015 765.891 287.791 766.357 287.515 766.701 287.311 767.072 287.144 767.073 287.074 767.135 286.768 767.145 286.719 767.265 286.415 767.284 286.367 767.459 286.071 767.486 286.027 767.715 285.744 767.748 285.704 768.027 285.44 768.065 285.404 768.389 285.165 768.431 285.135 768.493 285.099 768.618 284.66 768.63 284.633 768.902 284.023 768.918 283.998 769.272 283.431 769.291 283.408 769.72 282.897 769.742 282.877 770.239 282.43 770.263 282.413 770.817 282.04 770.844 282.027 771.444 281.734 771.472 281.725 772.107 281.519 772.136 281.513 772.794 281.397 772.824 281.396 773.491 281.373 z " style="fill: green; stroke: black; stroke-width: 0.000000; fill-type: evenodd"  fill-opacity="1.000000" />
   <path d="M 712.37 287.859 712.739 287.884 713.1 287.961 713.228 287.988 713.575 288.115 713.697 288.159 714.023 288.333 714.139 288.394 714.438 288.611 714.543 288.688 714.809 288.945 714.903 289.035 715.13 289.326 715.21 289.429 715.395 289.749 715.46 289.862 715.599 290.205 715.648 290.326 715.737 290.684 715.737 290.684 715.769 290.811 715.807 291.178 715.821 291.308 715.808 291.677 715.803 291.807 715.739 292.171 715.717 292.3 715.602 292.651 715.562 292.775 715.4 293.107 715.343 293.224 715.136 293.531 715.063 293.639 714.816 293.913 714.729 294.01 714.446 294.248 714.346 294.332 714.033 294.527 713.922 294.597 713.584 294.747 713.465 294.8 713.321 294.841 713.221 295.047 713.162 295.167 712.96 295.467 712.885 295.578 712.644 295.846 712.554 295.945 712.278 296.177 712.175 296.263 711.869 296.455 711.756 296.525 711.426 296.672 711.303 296.727 710.956 296.826 710.828 296.863 710.47 296.913 710.338 296.932 709.843 296.932 709.485 296.882 709.353 296.863 709.006 296.764 708.877 296.727 708.547 296.58 708.425 296.526 708.119 296.334 708.006 296.263 707.729 296.031 707.627 295.945 707.385 295.677 707.296 295.577 707.079 295.256 706.958 295.358 706.683 295.529 706.557 295.608 706.262 295.739 706.126 295.8 705.815 295.889 705.672 295.93 705.352 295.975 705.205 295.996 704.733 295.996 704.413 295.951 704.266 295.93 703.955 295.841 703.812 295.8 703.517 295.668 703.381 295.608 703.106 295.437 702.98 295.358 702.733 295.15 702.619 295.054 702.403 294.814 702.303 294.704 702.122 294.436 702.039 294.312 701.897 294.022 701.832 293.888 701.732 293.581 701.686 293.439 701.63 293.121 701.604 292.974 701.593 292.651 701.588 292.503 701.622 292.181 701.637 292.033 701.715 291.72 701.751 291.575 701.872 291.276 701.928 291.138 702.09 290.858 702.164 290.729 702.363 290.474 702.455 290.357 702.687 290.132 702.794 290.029 703.056 289.839 703.176 289.752 703.462 289.6 703.593 289.53 703.897 289.419 704.036 289.369 704.353 289.301 704.498 289.27 704.821 289.248 704.969 289.237 705.117 289.248 705.44 289.27 705.756 289.338 705.901 289.369 706.205 289.479 706.345 289.53 706.63 289.682 706.762 289.752 707.023 289.942 707.144 290.029 707.376 290.254 707.483 290.357 707.682 290.612 707.766 290.72 707.811 290.677 708.103 290.465 708.211 290.386 708.53 290.217 708.648 290.154 708.945 290.046 708.97 289.983 708.97 289.983 709.019 289.862 709.204 289.542 709.269 289.429 709.497 289.138 709.577 289.035 709.843 288.778 709.937 288.688 710.236 288.471 710.341 288.394 710.667 288.221 710.782 288.159 711.13 288.033 711.252 287.988 711.614 287.911 711.741 287.884 712.11 287.859 712.24 287.85 z " style="fill: green; stroke: black; stroke-width: 0.000000; fill-type: evenodd"  fill-opacity="1.000000" />
   <path d="M 687.703 291.251 687.965 291.269 688.223 291.324 688.289 291.338 688.536 291.428 688.6 291.451 688.832 291.575 688.892 291.607 689.105 291.762 689.16 291.801 689.349 291.984 689.398 292.031 689.56 292.239 689.602 292.292 689.734 292.52 689.768 292.579 689.866 292.823 689.891 292.886 689.955 293.141 689.972 293.207 689.999 293.469 690.006 293.536 689.997 293.799 689.995 293.867 689.949 294.126 689.937 294.193 689.856 294.443 689.835 294.508 689.719 294.745 689.69 294.806 689.543 295.024 689.505 295.08 689.328 295.276 689.283 295.326 689.081 295.495 689.03 295.539 688.806 295.678 688.749 295.714 688.508 295.821 688.446 295.849 688.193 295.921 688.128 295.94 687.867 295.977 687.8 295.986 687.469 295.986 687.209 295.95 687.141 295.94 686.888 295.868 686.823 295.849 686.583 295.742 686.521 295.714 686.298 295.575 686.24 295.539 686.039 295.37 685.986 295.326 685.81 295.13 685.765 295.08 685.618 294.862 685.58 294.806 685.465 294.569 685.435 294.508 685.354 294.258 685.333 294.193 685.287 293.934 685.275 293.867 685.266 293.604 685.263 293.536 685.291 293.275 685.298 293.207 685.362 292.952 685.378 292.886 685.477 292.642 685.502 292.579 685.634 292.351 685.668 292.292 685.83 292.085 685.872 292.031 686.061 291.849 686.11 291.801 686.323 291.647 686.377 291.607 686.61 291.483 686.67 291.452 686.917 291.362 686.981 291.338 687.238 291.284 687.305 291.269 687.567 291.251 687.635 291.246 z " style="fill: green; stroke: black; stroke-width: 0.000000; fill-type: evenodd"  fill-opacity="1.000000" />
   <path d="M 789.951 281.383 790.529 281.397 790.943 281.449 791.5 281.519 791.912 281.613 792.438 281.734 792.837 281.872 793.325 282.04 793.702 282.22 794.143 282.43 794.488 282.65 794.876 282.897 795.18 283.153 795.51 283.431 795.764 283.719 796.033 284.023 796.23 284.336 796.434 284.66 796.569 284.993 796.706 285.331 796.775 285.675 796.843 286.021 796.843 286.719 796.775 287.064 796.706 287.41 796.571 287.743 796.434 288.08 796.237 288.394 796.033 288.717 795.779 289.005 795.51 289.309 795.206 289.565 794.876 289.843 794.531 290.063 794.143 290.31 793.766 290.49 793.325 290.7 792.925 290.838 792.438 291.006 792.026 291.101 791.5 291.222 791.084 291.273 790.529 291.343 790.119 291.353 789.543 291.367 789.147 291.338 788.562 291.294 788.187 291.228 787.604 291.125 787.257 291.026 786.69 290.864 786.374 290.735 785.835 290.515 785.556 290.361 785.058 290.086 784.818 289.91 784.373 289.584 784.175 289.391 783.793 289.02 783.638 288.813 783.33 288.404 783.219 288.188 782.992 287.748 782.925 287.526 782.787 287.066 782.765 286.84 782.719 286.37 782.741 286.145 782.787 285.674 782.854 285.452 782.992 284.992 783.103 284.777 783.33 284.336 783.484 284.131 783.793 283.72 783.99 283.529 784.373 283.156 784.611 282.982 785.058 282.654 785.335 282.501 785.835 282.225 786.148 282.097 786.69 281.876 787.035 281.777 787.604 281.615 787.977 281.549 788.562 281.446 788.956 281.417 789.543 281.373 z " style="fill: green; stroke: black; stroke-width: 0.000000; fill-type: evenodd"  fill-opacity="1.000000" />
   <path d="M 705.438 279.93 705.577 279.938 705.736 279.969 705.83 279.987 706.027 280.053 706.077 280.069 706.114 280.088 706.314 280.186 706.451 280.276 706.539 280.335 706.726 280.499 706.747 280.518 706.922 280.722 706.931 280.733 707.066 280.945 707.086 280.979 707.171 281.168 707.205 281.249 707.246 281.392 707.288 281.538 707.288 281.54 707.333 281.84 707.333 281.846 707.34 282.147 707.339 282.158 707.307 282.456 707.304 282.47 707.235 282.758 707.228 282.776 707.122 283.049 707.111 283.069 706.972 283.321 706.956 283.342 706.786 283.568 706.765 283.589 706.568 283.785 706.542 283.803 706.322 283.965 706.292 283.98 706.053 284.104 706.02 284.115 705.768 284.199 705.732 284.205 705.472 284.248 705.173 284.248 705.137 284.242 704.877 284.199 704.843 284.188 704.592 284.104 704.561 284.088 704.323 283.965 704.296 283.945 704.077 283.785 704.055 283.762 703.859 283.568 703.842 283.545 703.673 283.321 703.661 283.298 703.523 283.049 703.515 283.028 703.41 282.758 703.406 282.74 703.337 282.456 703.336 282.441 703.305 282.147 703.305 282.137 703.312 281.84 703.312 281.834 703.357 281.538 703.358 281.537 703.399 281.392 703.417 281.329 703.439 281.249 703.458 281.205 703.474 281.168 703.513 281.082 703.559 280.979 703.57 280.961 703.579 280.946 703.644 280.844 703.714 280.733 703.718 280.728 703.723 280.722 703.813 280.618 703.898 280.518 703.908 280.509 703.919 280.499 704.022 280.408 704.105 280.335 704.141 280.311 704.193 280.276 704.276 280.221 704.33 280.186 704.425 280.14 704.568 280.069 704.582 280.065 704.618 280.053 704.763 280.005 704.815 279.987 704.963 279.959 705.067 279.938 705.185 279.931 705.322 279.922 z " style="fill: green; stroke: black; stroke-width: 0.000000; fill-type: evenodd"  fill-opacity="1.000000" />
   <path d="M 714.911 280.005 715.088 280.014 715.132 280.021 715.291 280.047 715.388 280.074 715.494 280.103 715.691 280.181 715.695 280.183 715.698 280.185 715.892 280.291 716.025 280.384 716.083 280.426 716.258 280.586 716.264 280.591 716.429 280.788 716.429 280.789 716.556 280.99 716.572 281.017 716.651 281.192 716.685 281.274 716.72 281.394 716.762 281.555 716.768 281.596 716.778 281.686 716.79 281.798 716.795 281.851 716.79 282.001 716.781 282.154 716.772 282.203 716.751 282.304 716.73 282.405 716.719 282.453 716.661 282.607 716.613 282.739 716.612 282.741 716.472 283.009 716.468 283.014 716.296 283.255 716.288 283.263 716.087 283.471 716.076 283.479 715.851 283.651 715.836 283.659 715.591 283.791 715.574 283.797 715.316 283.887 715.296 283.89 715.296 283.89 715.029 283.935 714.739 283.935 714.719 283.932 714.453 283.887 714.434 283.88 714.177 283.791 714.16 283.782 713.918 283.651 713.905 283.641 713.682 283.471 713.672 283.461 713.473 283.255 713.467 283.246 713.297 283.009 713.293 283.003 713.155 282.739 713.154 282.737 713.107 282.607 713.083 282.543 713.05 282.453 713.043 282.424 713.039 282.405 713.018 282.303 712.997 282.203 712.993 282.183 712.993 282.183 712.988 282.154 712.982 282.061 712.979 282 712.977 281.94 712.974 281.851 712.977 281.819 712.979 281.798 712.99 281.699 713.001 281.596 713.004 281.579 713.007 281.555 713.032 281.46 713.049 281.394 713.064 281.343 713.083 281.274 713.103 281.227 713.118 281.192 713.153 281.114 713.196 281.017 713.205 281.002 713.213 280.99 713.273 280.894 713.339 280.789 713.34 280.788 713.34 280.788 713.424 280.687 713.505 280.591 713.507 280.589 713.51 280.586 713.608 280.496 713.686 280.426 713.71 280.408 713.744 280.384 713.825 280.327 713.877 280.291 713.948 280.252 714.074 280.183 714.075 280.183 714.077 280.182 714.221 280.125 714.275 280.103 714.375 280.076 714.477 280.047 714.538 280.037 714.681 280.014 714.715 280.012 714.884 280.003 z " style="fill: green; stroke: black; stroke-width: 0.000000; fill-type: evenodd"  fill-opacity="1.000000" />
   <path d="M 710.863 280.155 710.942 280.161 711.024 280.171 711.112 280.186 711.208 280.207 711.316 280.235 711.441 280.274 711.49 280.292 711.565 280.343 711.625 280.391 711.686 280.439 711.753 280.501 711.809 280.563 711.923 280.711 711.928 280.718 711.965 280.787 712.028 280.906 712.034 280.92 712.103 281.125 712.104 281.13 712.109 281.165 712.137 281.339 712.14 281.366 712.136 281.549 712.131 281.62 712.103 281.758 712.074 281.873 712.035 281.968 711.968 282.114 711.926 282.178 711.818 282.33 711.761 282.387 711.629 282.513 711.501 282.597 711.41 282.655 711.285 282.705 711.169 282.751 710.923 282.799 710.915 282.801 710.657 282.801 710.456 282.762 710.403 282.751 710.28 282.702 710.162 282.655 710.125 282.631 710.071 282.597 709.994 282.546 709.943 282.513 709.881 282.454 709.811 282.387 709.78 282.356 709.754 282.33 709.698 282.252 709.646 282.178 709.625 282.146 709.604 282.114 709.567 282.035 709.537 281.968 709.518 281.923 709.498 281.873 709.482 281.809 709.469 281.758 709.456 281.694 709.441 281.62 709.438 281.58 709.436 281.549 709.434 281.463 709.432 281.366 709.434 281.351 709.435 281.339 709.451 281.236 709.451 281.236 709.468 281.13 709.468 281.127 709.469 281.125 709.506 281.016 709.538 280.92 709.541 280.913 709.544 280.906 709.595 280.809 709.644 280.718 709.647 280.715 709.649 280.711 709.718 280.621 709.763 280.563 709.786 280.537 709.819 280.501 709.865 280.459 709.886 280.439 709.95 280.388 710.007 280.343 710.031 280.327 710.082 280.292 710.131 280.274 710.256 280.235 710.364 280.207 710.46 280.186 710.547 280.171 710.63 280.161 710.709 280.155 710.786 280.153 z " style="fill: green; stroke: black; stroke-width: 0.000000; fill-type: evenodd"  fill-opacity="1.000000" />
   <path d="M 688.625 263.424 689.39 264.515 690.216 265.692 690.948 266.624 692.46 268.55 693.808 270.266 694.644 271.189 694.887 271.457 696.755 273.52 697.049 273.791 697.139 273.874 698.794 275.399 699.205 279.208 699.374 280.402 698.921 280.407 693.441 280.472 689.055 280.523 685.653 280.563 683.063 280.594 681.113 280.617 679.655 280.634 678.574 280.647 677.781 280.656 677.211 280.663 676.815 280.668 672.986 280.713 672.986 283.207 672.986 301.754 685.255 301.609 687.243 301.586 687.243 302.13 687.243 303.784 687.243 304.591 692.85 304.525 703.118 304.404 703.585 305.817 704.107 307.398 704.279 307.396 704.287 307.396 704.971 309.467 705.276 310.39 703.941 314.466 703.423 316.046 702.986 318.218 701.912 323.548 700.876 328.694 700.608 330.484 699.907 330.493 699.325 330.5 698.882 330.505 698.212 330.513 697.405 330.522 696.795 330.529 696.36 330.535 695.977 330.539 695.703 330.542 695.555 330.544 695.377 330.546 657.161 330.997 656.003 331.01 655.082 331.021 654.243 331.031 653.132 331.044 652.378 331.053 651.387 331.065 650.563 331.075 649.921 331.082 649.432 331.088 648.797 331.095 616.598 331.475 618.951 338.596 619.896 341.456 590.558 341.802 532.657 342.484 527.107 342.55 500.887 342.859 500.887 347.43 500.887 348.11 500.887 349.316 500.887 351.245 500.887 354.182 500.887 358.541 500.887 362.788 502.066 364.854 502.703 366.111 505.142 370.918 506.049 372.985 507.348 375.947 507.607 376.656 508.524 379.168 508.524 380.335 508.524 380.424 508.524 384.294 508.524 384.598 508.524 387.876 508.524 388.3 508.524 391.234 508.524 393.991 508.524 394.486 508.524 397.257 508.524 397.739 508.524 400.675 508.524 401.098 508.524 404.38 508.524 409.78 507.596 412.319 507.333 413.036 506.73 414.41 505.122 418.072 502.661 422.918 502.037 424.146 501.714 424.711 500.887 426.161 485.597 428.257 470.337 429.84 470.337 414.179 470.337 405.804 470.337 393.369 470.337 391.939 470.337 390.647 470.337 387.683 470.337 386.111 470.337 384.663 470.337 383.374 470.337 364.101 470.337 362.488 470.337 361.109 470.337 359.963 470.337 329.739 470.337 282.016 470.337 276.416 470.337 269.497 476.244 263.616 476.876 262.987 484.846 262.893 506.861 262.633 518.858 262.491 538.456 262.26 538.79 262.256 539.756 262.245 540.139 262.241 540.537 262.236 541.632 262.223 542.056 262.218 543.213 262.204 544.811 262.185 545.924 262.172 546.347 262.167 547.36 262.155 547.74 262.151 548.068 262.147 548.922 262.137 579.138 261.781 595.157 287.105 612.096 313.886 613.922 316.773 615.992 310.147 626.793 275.571 631.294 261.166 686.194 260.518 686.585 260.514 z " style="fill: blue; stroke: black; stroke-width: 0.000000; fill-type: evenodd"  fill-opacity="1.000000" />
   <path d="M 755.471 320.157 755.471 329.837 738.562 330.037 737.949 330.044 737.091 330.054 736.08 330.066 735.233 330.076 734.279 330.087 732.939 330.103 731.435 330.121 730.172 330.136 728.403 330.157 726.92 330.174 725.375 330.192 723.214 330.218 720.992 330.244 719.149 330.266 717.359 330.287 715.438 330.31 715.04 328.039 714.111 323.964 712.883 318.584 712.215 315.658 711.876 314.718 711.686 314.191 710.295 310.331 710.812 308.669 711.233 307.314 712.317 307.302 715.384 307.265 717.72 307.238 719.343 307.219 720.41 307.206 721.085 307.198 721.494 307.193 721.724 307.191 721.866 307.189 721.866 304.804 721.866 304.183 721.866 302.158 721.866 301.177 744.102 300.915 755.471 300.781 z " style="fill: blue; stroke: black; stroke-width: 0.000000; fill-type: evenodd"  fill-opacity="1.000000" />
   <path d="M 753.249 268.984 755.471 271.144 755.471 277.404 755.471 279.74 733.556 279.999 732.031 280.017 730.163 280.039 727.932 280.065 725.331 280.096 722.38 280.13 719.127 280.169 715.664 280.21 715.509 280.211 715.529 280.04 715.589 279.533 715.879 276.115 715.957 275.196 717.516 273.699 717.6 273.618 717.874 273.355 718.27 272.9 718.475 272.663 720.729 270.066 721.128 269.535 722.598 267.578 724.19 265.457 725.05 264.172 725.739 263.142 727.82 260.027 728.061 260.024 728.89 260.015 729.199 260.011 729.406 260.009 729.945 260.002 743.841 259.838 z " style="fill: blue; stroke: black; stroke-width: 0.000000; fill-type: evenodd"  fill-opacity="1.000000" />
   <path d="M 715.691 280.181 715.695 280.183 715.698 280.185 715.742 280.209 715.664 280.21 715.509 280.211 715.52 280.114 z" style="fill: red; stroke: black; stroke-width: 0.000000; fill-type: evenodd"  fill-opacity="1.000000" />
</svg>
