<?xml version="1.0" encoding="UTF-8" standalone="yes"?>
<!DOCTYPE svg PUBLIC "-//W3C//DTD SVG 1.0//EN" "http://www.w3.org/TR/2001/REC-SVG-20010904/DTD/svg10.dtd">
<svg height="2000" width="2000" xmlns="http://www.w3.org/2000/svg" xmlns:svg="http://www.w3.org/2000/svg" xmlns:xlink="http://www.w3.org/1999/xlink">
   <marker id="endArrow" markerHeight="8" markerUnits="strokeWidth" markerWidth="10" orient="auto" refX="1" refY="5" viewBox="0 0 10 10">
      <polyline fill="darkblue" points="0,0 10,5 0,10 1,5" />
   </marker>
<rect fill='white' stroke='none' x='0' y='0' width='2000.000000' height='2000.000000'/>
   <path d="M 564.06 364.256 564.283 364.281 564.756 364.426 564.975 364.493 565.436 364.728 565.646 364.836 566.086 365.158 566.282 365.303 566.692 365.707 566.872 365.884 567.244 366.365 567.402 366.57 567.729 367.119 567.864 367.345 568.138 367.953 568.248 368.196 568.464 368.853 568.546 369.105 568.698 369.799 568.754 370.055 568.837 370.773 568.866 371.027 568.877 371.756 568.881 372.003 568.819 372.728 568.798 372.963 568.662 373.669 568.62 373.889 568.411 374.561 568.348 374.763 568.07 375.387 567.99 375.567 567.647 376.129 567.551 376.286 567.149 376.775 567.041 376.907 566.588 377.31 566.468 377.417 565.974 377.725 565.845 377.805 565.319 378.012 565.183 378.065 564.636 378.166 564.496 378.192 563.939 378.184 563.797 378.182 563.242 378.067 563.098 378.037 562.557 377.817 562.415 377.759 561.899 377.439 561.76 377.353 561.279 376.941 561.146 376.827 560.709 376.333 560.585 376.192 560.201 375.627 560.087 375.46 559.763 374.837 559.663 374.645 559.404 373.977 559.321 373.763 559.131 373.064 559.068 372.831 558.949 372.116 558.907 371.868 558.86 371.151 558.844 370.892 558.868 370.187 558.878 369.921 558.972 369.242 559.008 368.976 559.169 368.334 559.234 368.074 559.456 367.481 559.55 367.233 559.829 366.699 559.949 366.469 560.279 366.004 560.425 365.797 560.799 365.407 560.968 365.231 561.378 364.923 561.567 364.781 562.007 364.559 562.211 364.456 562.671 364.323 562.887 364.262 563.36 364.222 563.582 364.203 z " style="fill: green; stroke: black; stroke-width: 0.000000; fill-type: evenodd"  fill-opacity="1.000000" />
   <path d="M 714.396 337.278 714.929 337.336 715.157 337.398 715.695 337.545 715.926 337.646 716.457 337.877 716.689 338.016 717.203 338.325 717.43 338.502 717.915 338.879 718.134 339.093 718.582 339.531 718.787 339.779 719.19 340.266 719.377 340.546 719.726 341.07 719.89 341.378 720.182 341.929 720.316 342.26 720.547 342.824 720.648 343.172 720.815 343.74 720.879 344.097 720.98 344.657 721.004 345.016 721.039 345.558 721.02 345.911 720.992 346.425 720.928 346.764 720.839 347.242 720.731 347.559 720.583 347.993 720.431 348.279 720.228 348.663 720.036 348.911 719.783 349.239 719.554 349.443 719.255 349.71 718.994 349.865 718.655 350.066 718.368 350.168 717.994 350.301 717.688 350.349 717.286 350.411 716.967 350.403 716.544 350.392 716.22 350.33 715.782 350.246 715.461 350.132 715.016 349.975 714.705 349.814 714.26 349.584 713.965 349.381 713.53 349.082 713.256 348.842 712.839 348.477 712.591 348.208 712.2 347.782 711.984 347.491 711.626 347.01 711.444 346.705 711.129 346.177 710.982 345.863 710.718 345.298 710.608 344.983 710.4 344.39 710.327 344.081 710.183 343.472 710.146 343.174 710.071 342.56 710.069 342.279 710.064 341.674 710.096 341.412 710.165 340.83 710.227 340.592 710.37 340.044 710.461 339.832 710.677 339.332 710.794 339.149 711.077 338.707 711.218 338.556 711.565 338.183 711.727 338.064 712.131 337.768 712.311 337.683 712.763 337.471 712.959 337.422 713.449 337.299 713.659 337.286 714.175 337.253 z " style="fill: green; stroke: black; stroke-width: 0.000000; fill-type: evenodd"  fill-opacity="1.000000" />
   <path d="M 773.531 281.377 774.185 281.446 774.224 281.455 774.862 281.615 774.899 281.629 775.509 281.876 775.543 281.896 776.113 282.225 776.144 282.249 776.663 282.654 776.69 282.683 777.147 283.156 777.171 283.188 777.557 283.72 777.576 283.755 777.885 284.336 777.898 284.374 778.123 284.992 778.131 285.031 778.268 285.674 778.271 285.714 778.317 286.37 778.314 286.41 778.268 287.066 778.26 287.105 778.123 287.748 778.11 287.785 777.885 288.404 777.866 288.439 777.557 289.019 777.534 289.052 777.147 289.584 777.12 289.612 776.663 290.086 776.631 290.11 776.113 290.515 776.078 290.535 775.509 290.864 775.472 290.879 774.862 291.125 774.824 291.135 774.185 291.294 774.146 291.298 773.677 291.347 773.65 291.549 773.592 291.975 773.469 292.442 773.362 292.847 773.168 293.345 773.023 293.718 772.753 294.238 772.581 294.57 772.231 295.103 772.044 295.387 771.614 295.919 771.424 296.154 770.915 296.669 770.732 296.854 770.149 297.337 769.982 297.475 769.333 297.908 769.189 298.005 768.486 298.37 768.367 298.432 767.625 298.715 767.533 298.75 766.77 298.935 766.703 298.951 765.938 299.027 765.893 299.032 765.146 298.992 765.119 298.991 765.043 298.974 764.545 299.021 764.458 299.029 763.724 299.01 763.613 299.007 762.911 298.908 762.777 298.89 762.124 298.727 761.971 298.689 761.377 298.475 761.208 298.414 760.681 298.163 760.502 298.078 760.045 297.801 759.862 297.691 759.473 297.399 759.292 297.263 758.97 296.964 758.799 296.805 758.539 296.506 758.383 296.325 758.181 296.03 758.046 295.831 757.898 295.544 757.788 295.33 757.688 295.053 757.608 294.828 757.555 294.571 757.398 294.577 757.396 294.577 756.923 294.547 756.917 294.547 756.461 294.47 756.452 294.468 756.021 294.346 756.01 294.343 755.611 294.179 755.598 294.174 755.239 293.971 755.226 293.964 754.913 293.726 754.9 293.717 754.639 293.45 754.627 293.437 754.421 293.146 754.411 293.132 754.265 292.821 754.258 292.806 754.174 292.482 754.174 292.482 754.17 292.465 754.15 292.134 754.149 292.117 754.192 291.785 754.195 291.768 754.302 291.441 754.307 291.425 754.476 291.109 754.484 291.094 754.712 290.795 754.721 290.783 755.004 290.507 755.015 290.497 755.348 290.249 755.358 290.241 755.737 290.026 755.746 290.021 756.162 289.844 756.17 289.841 756.617 289.706 756.622 289.704 757.09 289.614 757.093 289.614 757.307 289.594 757.405 289.581 757.416 289.581 757.573 289.545 757.584 289.543 758.072 289.481 758.111 289.48 758.589 289.468 758.657 289.474 759.114 289.51 759.207 289.527 759.634 289.609 759.748 289.645 760.135 289.769 760.261 289.828 760.602 289.988 760.729 290.073 761.018 290.265 761.135 290.376 761.329 290.558 761.525 290.542 761.755 290.523 762.264 290.533 762.483 290.538 763.04 290.605 763.124 290.615 763.157 290.559 763.579 289.982 763.737 289.765 764.19 289.259 764.395 289.03 764.864 288.6 765.117 288.367 765.59 288.015 765.891 287.791 766.357 287.515 766.701 287.311 767.072 287.144 767.073 287.074 767.135 286.768 767.145 286.719 767.265 286.415 767.284 286.367 767.459 286.071 767.486 286.027 767.715 285.744 767.748 285.703 768.027 285.44 768.065 285.404 768.389 285.165 768.431 285.134 768.493 285.099 768.618 284.66 768.635 284.623 768.902 284.022 768.923 283.989 769.272 283.431 769.297 283.4 769.72 282.897 769.75 282.87 770.239 282.43 770.272 282.408 770.817 282.04 770.853 282.022 771.444 281.734 771.482 281.722 772.107 281.518 772.146 281.511 772.794 281.397 772.834 281.396 773.491 281.373 z " style="fill: green; stroke: black; stroke-width: 0.000000; fill-type: evenodd"  fill-opacity="1.000000" />
   <path d="M 708.607 287.564 708.912 287.586 709.211 287.649 709.364 287.682 709.651 287.786 709.797 287.839 710.068 287.983 710.205 288.056 710.453 288.236 710.531 288.293 710.667 288.22 710.782 288.159 711.13 288.033 711.252 287.988 711.614 287.911 711.741 287.884 712.11 287.859 712.24 287.849 712.37 287.859 712.739 287.884 713.1 287.961 713.228 287.988 713.575 288.115 713.697 288.159 714.023 288.333 714.139 288.394 714.438 288.611 714.543 288.688 714.809 288.944 714.903 289.035 715.13 289.326 715.21 289.429 715.395 289.749 715.46 289.862 715.599 290.205 715.648 290.325 715.737 290.684 715.769 290.81 715.807 291.178 715.821 291.308 715.808 291.677 715.803 291.807 715.739 292.171 715.717 292.3 715.602 292.651 715.562 292.775 715.4 293.107 715.343 293.224 715.136 293.531 715.063 293.639 714.816 293.913 714.729 294.01 714.446 294.248 714.346 294.332 714.033 294.527 713.922 294.596 713.584 294.747 713.465 294.8 713.321 294.841 713.221 295.047 713.162 295.167 712.96 295.467 712.885 295.578 712.644 295.846 712.554 295.945 712.278 296.177 712.175 296.263 711.869 296.455 711.756 296.525 711.426 296.672 711.303 296.727 710.956 296.826 710.828 296.863 710.47 296.913 710.338 296.932 709.843 296.932 709.485 296.882 709.353 296.863 709.006 296.764 708.877 296.727 708.547 296.58 708.425 296.526 708.119 296.334 708.006 296.263 707.729 296.031 707.627 295.945 707.385 295.677 707.296 295.577 707.185 295.413 706.932 295.571 706.807 295.65 706.511 295.781 706.375 295.842 706.064 295.931 705.921 295.972 705.6 296.017 705.453 296.038 704.981 296.038 704.66 295.993 704.513 295.972 704.201 295.883 704.059 295.842 703.763 295.71 703.627 295.65 703.352 295.478 703.226 295.399 702.978 295.191 702.864 295.096 702.648 294.855 702.548 294.744 702.367 294.476 702.284 294.353 702.142 294.062 702.077 293.928 701.977 293.62 701.931 293.479 701.875 293.16 701.849 293.013 701.838 292.69 701.832 292.541 701.866 292.219 701.882 292.071 701.96 291.757 701.996 291.613 702.117 291.313 702.173 291.175 702.335 290.894 702.409 290.766 702.609 290.51 702.7 290.393 702.933 290.168 703.04 290.065 703.302 289.875 703.422 289.788 703.708 289.635 703.839 289.566 704.144 289.455 704.283 289.404 704.6 289.337 704.745 289.306 705.069 289.283 705.217 289.273 705.365 289.283 705.545 289.296 705.631 289.147 705.709 289.012 705.897 288.771 705.993 288.648 706.213 288.436 706.325 288.327 706.573 288.148 706.699 288.056 706.969 287.913 707.106 287.839 707.394 287.735 707.54 287.682 707.839 287.618 707.991 287.586 708.297 287.564 708.452 287.553 z " style="fill: green; stroke: black; stroke-width: 0.000000; fill-type: evenodd"  fill-opacity="1.000000" />
   <path d="M 687.703 291.251 687.965 291.269 688.223 291.324 688.289 291.338 688.536 291.428 688.6 291.451 688.832 291.575 688.892 291.607 689.105 291.762 689.16 291.801 689.349 291.984 689.398 292.031 689.56 292.239 689.602 292.292 689.734 292.52 689.768 292.579 689.866 292.823 689.891 292.886 689.955 293.141 689.972 293.207 689.999 293.469 690.006 293.536 689.997 293.799 689.995 293.867 689.949 294.126 689.937 294.193 689.856 294.443 689.835 294.508 689.719 294.745 689.69 294.806 689.543 295.024 689.505 295.08 689.328 295.276 689.283 295.326 689.081 295.495 689.03 295.539 688.806 295.678 688.749 295.714 688.508 295.821 688.446 295.849 688.193 295.921 688.128 295.94 687.867 295.977 687.8 295.986 687.469 295.986 687.209 295.95 687.141 295.94 686.888 295.868 686.823 295.849 686.583 295.742 686.521 295.714 686.298 295.575 686.24 295.539 686.039 295.37 685.986 295.326 685.81 295.13 685.765 295.08 685.618 294.862 685.58 294.806 685.465 294.569 685.435 294.508 685.354 294.258 685.333 294.193 685.287 293.934 685.275 293.867 685.266 293.604 685.263 293.536 685.291 293.275 685.298 293.207 685.362 292.952 685.378 292.886 685.477 292.642 685.502 292.579 685.634 292.351 685.668 292.292 685.83 292.085 685.872 292.031 686.061 291.849 686.11 291.801 686.323 291.647 686.377 291.607 686.61 291.483 686.67 291.452 686.917 291.362 686.981 291.338 687.238 291.284 687.305 291.269 687.567 291.251 687.635 291.246 z " style="fill: green; stroke: black; stroke-width: 0.000000; fill-type: evenodd"  fill-opacity="1.000000" />
   <path d="M 705.176 279.858 705.26 279.862 705.303 279.867 705.383 279.877 705.439 279.889 705.507 279.903 705.585 279.926 705.634 279.941 705.746 279.984 705.765 279.991 705.827 280.021 705.881 280.051 705.903 280.058 705.965 280.087 706.133 280.165 706.269 280.25 706.352 280.303 706.556 280.473 706.557 280.474 706.568 280.486 706.742 280.678 706.755 280.696 706.901 280.911 706.905 280.919 706.932 280.973 707.015 281.143 707.028 281.171 707.09 281.365 707.117 281.453 707.14 281.589 707.164 281.75 707.165 281.812 707.171 282.053 707.17 282.057 707.138 282.357 707.137 282.365 707.067 282.656 707.062 282.667 706.956 282.942 706.948 282.956 706.807 283.211 706.796 283.226 706.796 283.226 706.624 283.454 706.609 283.47 706.409 283.668 706.389 283.682 706.166 283.846 706.143 283.858 705.901 283.983 705.875 283.992 705.62 284.077 705.591 284.081 705.328 284.124 705.033 284.124 705.005 284.12 704.742 284.077 704.714 284.068 704.461 283.983 704.436 283.97 704.196 283.846 704.174 283.83 704.174 283.83 703.953 283.668 703.936 283.651 703.738 283.454 703.725 283.437 703.554 283.211 703.545 283.194 703.406 282.942 703.401 282.928 703.401 282.928 703.295 282.656 703.293 282.645 703.223 282.357 703.223 282.35 703.191 282.053 703.191 282.05 703.196 281.812 703.197 281.786 703.198 281.75 703.212 281.658 703.212 281.658 703.222 281.59 703.232 281.53 703.245 281.453 703.26 281.404 703.26 281.404 703.271 281.365 703.299 281.279 703.334 281.171 703.341 281.156 703.347 281.143 703.347 281.143 703.347 281.143 703.4 281.035 703.457 280.919 703.459 280.915 703.461 280.911 703.536 280.8 703.607 280.697 703.613 280.687 703.62 280.678 703.709 280.579 703.805 280.474 703.805 280.474 703.806 280.473 703.922 280.376 704.01 280.303 704.042 280.282 704.093 280.25 704.178 280.197 704.209 280.177 704.245 280.148 704.304 280.109 704.379 280.06 704.399 280.049 704.451 280.021 704.501 279.997 704.512 279.991 704.61 279.954 704.643 279.941 704.719 279.918 704.771 279.903 704.829 279.891 704.895 279.877 704.941 279.871 705.017 279.862 705.056 279.86 705.139 279.857 z " style="fill: green; stroke: black; stroke-width: 0.000000; fill-type: evenodd"  fill-opacity="1.000000" />
   <path d="M 714.912 280.004 715.088 280.014 715.133 280.021 715.291 280.047 715.39 280.074 715.494 280.103 715.689 280.18 715.695 280.183 715.701 280.186 715.892 280.291 716.024 280.383 716.083 280.426 716.257 280.585 716.265 280.591 716.428 280.787 716.43 280.789 716.556 280.989 716.573 281.017 716.65 281.191 716.685 281.274 716.72 281.393 716.762 281.555 716.768 281.595 716.777 281.682 716.79 281.797 716.795 281.852 716.79 281.999 716.781 282.155 716.772 282.202 716.752 282.299 716.752 282.299 716.73 282.404 716.719 282.453 716.662 282.606 716.614 282.74 716.612 282.742 716.472 283.009 716.468 283.015 716.296 283.255 716.288 283.263 716.087 283.471 716.076 283.48 715.851 283.652 715.836 283.66 715.591 283.792 715.574 283.798 715.316 283.887 715.296 283.891 715.029 283.936 714.739 283.936 714.719 283.932 714.453 283.887 714.434 283.881 714.177 283.792 714.16 283.783 713.918 283.652 713.905 283.641 713.682 283.471 713.672 283.461 713.473 283.255 713.467 283.246 713.297 283.009 713.293 283.003 713.155 282.74 713.154 282.738 713.106 282.605 713.083 282.542 713.05 282.453 713.043 282.424 713.038 282.404 713.017 282.303 712.996 282.201 712.993 282.182 712.993 282.182 712.988 282.155 712.982 282.061 712.979 281.999 712.977 281.94 712.974 281.852 712.976 281.819 712.978 281.797 712.99 281.698 713.001 281.595 713.003 281.579 713.007 281.555 713.032 281.46 713.049 281.393 713.064 281.342 713.083 281.274 713.103 281.227 713.118 281.191 713.153 281.113 713.196 281.017 713.205 281.002 713.213 280.989 713.273 280.893 713.339 280.789 713.339 280.788 713.341 280.786 713.425 280.686 713.504 280.591 713.508 280.588 713.511 280.585 713.609 280.496 713.685 280.426 713.71 280.408 713.745 280.382 713.826 280.326 713.877 280.291 713.949 280.251 714.073 280.183 714.075 280.182 714.08 280.18 714.222 280.124 714.275 280.103 714.376 280.075 714.477 280.047 714.539 280.037 714.681 280.014 714.716 280.012 714.884 280.003 z " style="fill: green; stroke: black; stroke-width: 0.000000; fill-type: evenodd"  fill-opacity="1.000000" />
   <path d="M 688.625 263.424 689.39 264.515 690.216 265.692 690.948 266.624 692.46 268.55 693.808 270.266 694.644 271.189 694.887 271.457 696.755 273.52 697.049 273.791 697.139 273.874 698.794 275.399 699.205 279.208 699.374 280.402 698.921 280.407 693.441 280.472 689.055 280.523 685.653 280.563 683.063 280.594 681.113 280.617 679.655 280.634 678.574 280.647 677.781 280.656 677.211 280.663 676.815 280.668 672.986 280.713 672.986 283.207 672.986 301.754 685.255 301.609 687.243 301.586 687.243 302.13 687.243 303.784 687.243 304.591 692.85 304.525 703.118 304.404 703.585 305.817 704.107 307.398 704.279 307.396 704.287 307.396 704.971 309.467 705.276 310.39 703.941 314.466 703.423 316.046 702.986 318.218 701.912 323.548 700.876 328.694 700.608 330.484 699.907 330.493 699.325 330.5 698.882 330.505 698.212 330.513 697.405 330.522 696.795 330.529 696.36 330.535 695.977 330.539 695.703 330.542 695.555 330.544 695.377 330.546 657.161 330.997 656.003 331.01 655.082 331.021 654.243 331.031 653.132 331.044 652.378 331.053 651.387 331.065 650.563 331.075 649.921 331.082 649.432 331.088 648.797 331.095 616.598 331.475 618.951 338.596 619.896 341.456 590.558 341.802 532.657 342.484 527.107 342.55 500.887 342.859 500.887 347.43 500.887 348.11 500.887 349.316 500.887 351.245 500.887 354.182 500.887 358.541 500.887 362.788 502.066 364.854 502.703 366.111 505.142 370.918 506.049 372.985 507.348 375.947 507.607 376.656 508.524 379.168 508.524 380.335 508.524 380.424 508.524 384.294 508.524 384.598 508.524 387.876 508.524 388.3 508.524 391.234 508.524 393.991 508.524 394.486 508.524 397.257 508.524 397.739 508.524 400.675 508.524 401.098 508.524 404.38 508.524 409.78 507.596 412.319 507.333 413.036 506.73 414.41 505.122 418.072 502.661 422.918 502.037 424.146 501.714 424.711 500.887 426.161 485.597 428.257 470.337 429.84 470.337 414.179 470.337 405.804 470.337 393.369 470.337 391.939 470.337 390.647 470.337 387.683 470.337 386.111 470.337 384.663 470.337 383.374 470.337 364.101 470.337 362.488 470.337 361.109 470.337 359.963 470.337 329.739 470.337 282.016 470.337 276.416 470.337 269.497 476.244 263.616 476.876 262.987 484.846 262.893 506.861 262.633 518.858 262.491 538.456 262.26 538.79 262.256 539.756 262.245 540.139 262.241 540.537 262.236 541.632 262.223 542.056 262.218 543.213 262.204 544.811 262.185 545.924 262.172 546.347 262.167 547.36 262.155 547.74 262.151 548.068 262.147 548.922 262.137 579.138 261.781 595.157 287.105 612.096 313.886 613.922 316.773 615.992 310.147 626.793 275.571 631.294 261.166 686.194 260.518 686.585 260.514 z " style="fill: blue; stroke: black; stroke-width: 0.000000; fill-type: evenodd"  fill-opacity="1.000000" />
   <path d="M 755.471 320.157 755.471 329.837 738.562 330.037 737.949 330.044 737.091 330.054 736.08 330.066 735.233 330.076 734.279 330.087 732.939 330.103 731.435 330.121 730.172 330.136 728.403 330.157 726.92 330.174 725.375 330.192 723.214 330.218 720.992 330.244 719.149 330.266 717.359 330.287 715.438 330.31 715.04 328.039 714.111 323.964 712.883 318.584 712.215 315.658 711.876 314.718 711.686 314.191 710.295 310.331 710.812 308.669 711.233 307.314 712.317 307.302 715.384 307.265 717.72 307.238 719.343 307.219 720.41 307.206 721.085 307.198 721.494 307.193 721.724 307.191 721.866 307.189 721.866 304.804 721.866 304.183 721.866 302.158 721.866 301.177 744.102 300.915 755.471 300.781 z " style="fill: blue; stroke: black; stroke-width: 0.000000; fill-type: evenodd"  fill-opacity="1.000000" />
   <path d="M 753.249 268.984 755.471 271.144 755.471 277.404 755.471 279.74 733.556 279.999 732.031 280.017 730.163 280.039 727.932 280.065 725.331 280.096 722.38 280.13 719.127 280.169 715.664 280.21 715.509 280.211 715.529 280.04 715.589 279.533 715.879 276.115 715.957 275.196 717.516 273.699 717.6 273.618 717.874 273.355 718.27 272.9 718.475 272.663 720.729 270.066 721.128 269.535 722.598 267.578 724.19 265.457 725.05 264.172 725.739 263.142 727.82 260.027 728.061 260.024 728.89 260.015 729.199 260.011 729.406 260.009 729.945 260.002 743.841 259.838 z " style="fill: blue; stroke: black; stroke-width: 0.000000; fill-type: evenodd"  fill-opacity="1.000000" />
   <path d="M 715.689 280.18 715.695 280.183 715.701 280.186 715.742 280.209 715.664 280.21 715.509 280.211 715.52 280.114 z" style="fill: red; stroke: black; stroke-width: 0.000000; fill-type: evenodd"  fill-opacity="1.000000" />
</svg>
