<?xml version="1.0" encoding="UTF-8" standalone="yes"?>
<!DOCTYPE svg PUBLIC "-//W3C//DTD SVG 1.0//EN" "http://www.w3.org/TR/2001/REC-SVG-20010904/DTD/svg10.dtd">
<svg height="2000" width="2000" xmlns="http://www.w3.org/2000/svg" xmlns:svg="http://www.w3.org/2000/svg" xmlns:xlink="http://www.w3.org/1999/xlink">
   <marker id="endArrow" markerHeight="8" markerUnits="strokeWidth" markerWidth="10" orient="auto" refX="1" refY="5" viewBox="0 0 10 10">
      <polyline fill="darkblue" points="0,0 10,5 0,10 1,5" />
   </marker>
<rect fill='white' stroke='none' x='0' y='0' width='2000.000000' height='2000.000000'/>
   <path d="M 561.3 338.741 561.824 338.799 561.999 338.853 562.517 339.012 562.688 339.099 563.187 339.355 563.352 339.476 563.824 339.821 563.979 339.975 564.413 340.403 564.556 340.588 564.943 341.088 565.071 341.302 565.405 341.864 565.514 342.104 565.789 342.714 565.876 342.978 566.088 343.623 566.149 343.907 566.295 344.574 566.329 344.871 566.407 345.546 566.412 345.852 566.422 346.521 566.396 346.831 566.34 347.482 566.281 347.787 566.161 348.408 566.069 348.702 565.89 349.281 565.766 349.558 565.531 350.086 565.377 350.338 565.092 350.805 564.911 351.026 564.582 351.426 564.376 351.609 564.009 351.935 563.783 352.076 563.386 352.324 563.144 352.419 562.725 352.584 562.473 352.63 562.037 352.711 561.781 352.707 561.338 352.701 561.082 352.648 560.64 352.556 560.391 352.455 559.956 352.277 559.72 352.131 559.301 351.872 559.082 351.684 558.687 351.346 558.49 351.123 558.126 350.711 557.954 350.458 557.628 349.979 557.485 349.703 557.205 349.164 557.091 348.871 556.862 348.282 556.78 347.98 556.609 347.35 556.558 347.046 556.449 346.387 556.429 346.086 556.385 345.41 556.395 345.119 556.419 344.44 556.457 344.163 556.55 343.495 556.614 343.238 556.775 342.592 556.863 342.359 557.091 341.751 557.199 341.544 557.491 340.988 557.617 340.809 557.966 340.316 558.108 340.168 558.509 339.75 558.663 339.634 559.108 339.299 559.272 339.217 559.752 338.974 559.923 338.925 560.428 338.78 560.603 338.766 561.123 338.722 z " style="fill: green; stroke: black; stroke-width: 0.000000; fill-type: evenodd"  fill-opacity="1.000000" />
   <path d="M 708.437 324.393 708.734 324.394 708.891 324.417 709.184 324.459 709.337 324.503 709.621 324.584 709.766 324.649 710.037 324.769 710.172 324.852 710.424 325.009 710.546 325.11 710.775 325.3 710.882 325.417 711.085 325.638 711.175 325.768 711.347 326.017 711.418 326.158 711.556 326.431 711.607 326.579 711.708 326.872 711.739 327.025 711.8 327.333 711.809 327.487 711.828 327.804 711.817 327.957 711.792 328.279 711.76 328.427 711.692 328.746 711.64 328.888 711.528 329.198 711.458 329.33 711.302 329.625 711.216 329.745 711.019 330.018 710.918 330.124 710.682 330.369 710.569 330.458 710.3 330.67 710.177 330.741 709.878 330.914 709.747 330.966 709.426 331.095 709.29 331.128 708.952 331.209 708.604 331.241 708.466 331.254 708.328 331.246 707.979 331.227 707.845 331.199 707.502 331.128 707.373 331.081 707.044 330.961 706.924 330.895 706.616 330.728 706.506 330.645 706.227 330.435 706.129 330.337 705.884 330.089 705.801 329.976 705.595 329.696 705.528 329.571 705.365 329.266 705.317 329.131 705.2 328.808 705.17 328.666 705.1 328.332 705.09 328.185 705.068 327.847 705.079 327.699 705.104 327.364 705.135 327.218 705.205 326.893 705.256 326.751 705.369 326.442 705.44 326.307 705.591 326.019 705.681 325.894 705.868 325.634 705.974 325.521 706.192 325.291 706.313 325.193 706.557 324.997 706.691 324.916 706.955 324.757 707.1 324.695 707.38 324.575 707.533 324.533 707.824 324.452 707.981 324.431 708.278 324.392 z " style="fill: green; stroke: black; stroke-width: 0.000000; fill-type: evenodd"  fill-opacity="1.000000" />
   <path d="M 708.281 314.037 708.501 314.038 708.689 314.065 708.906 314.096 709.087 314.148 709.298 314.209 709.471 314.285 709.671 314.374 709.831 314.474 710.018 314.59 710.163 314.71 710.333 314.851 710.461 314.99 710.611 315.155 710.719 315.31 710.847 315.495 710.932 315.663 711.034 315.866 711.096 316.044 711.171 316.262 711.208 316.445 711.253 316.675 711.264 316.861 711.279 317.099 711.265 317.283 711.246 317.525 711.208 317.704 711.208 317.704 711.156 317.944 711.094 318.116 711.009 318.35 710.924 318.51 710.806 318.733 710.701 318.879 710.552 319.086 710.429 319.215 710.25 319.401 710.112 319.51 709.907 319.671 709.756 319.758 709.528 319.89 709.367 319.954 709.122 320.053 708.955 320.093 708.697 320.155 708.432 320.179 708.261 320.195 708.091 320.185 707.824 320.17 707.658 320.136 707.396 320.082 707.236 320.024 706.985 319.932 706.835 319.851 706.6 319.723 706.464 319.621 706.251 319.46 706.13 319.338 705.943 319.149 705.841 319.01 705.684 318.797 705.602 318.643 705.478 318.411 705.418 318.245 705.329 318 705.293 317.826 705.24 317.572 705.228 317.393 705.211 317.137 705.224 316.957 705.243 316.704 705.281 316.526 705.334 316.281 705.396 316.108 705.396 316.108 705.481 315.876 705.567 315.712 705.681 315.497 705.789 315.345 705.929 315.15 706.057 315.014 706.219 314.843 706.366 314.725 706.547 314.579 706.708 314.482 706.905 314.364 707.078 314.289 707.286 314.2 707.469 314.15 707.685 314.09 707.872 314.065 708.092 314.036 z " style="fill: green; stroke: black; stroke-width: 0.000000; fill-type: evenodd"  fill-opacity="1.000000" />
   <path d="M 719.5 297.182 719.77 297.186 720.018 297.225 720.284 297.267 720.543 297.343 720.794 297.417 721.058 297.529 721.288 297.626 721.552 297.774 721.756 297.887 722.013 298.068 722.187 298.19 722.432 298.4 722.577 298.525 722.804 298.761 722.92 298.883 723.123 299.141 723.213 299.256 723.388 299.532 723.455 299.638 723.598 299.925 723.645 300.02 723.752 300.314 723.783 300.398 723.853 300.694 723.87 300.767 723.901 301.059 723.908 301.121 723.899 301.405 723.897 301.459 723.849 301.728 723.84 301.775 723.753 302.027 723.753 302.027 723.739 302.067 723.614 302.297 723.594 302.333 723.434 302.537 723.409 302.569 723.216 302.744 723.185 302.772 722.962 302.917 722.923 302.942 722.675 303.053 722.628 303.074 722.358 303.15 722.3 303.167 722.014 303.207 721.943 303.217 721.866 303.218 721.56 303.223 721.255 303.192 721.156 303.182 720.85 303.117 720.734 303.092 720.432 302.994 720.3 302.951 720.009 302.823 719.862 302.759 719.586 302.604 719.426 302.514 719.171 302.336 719.003 302.218 718.772 302.021 718.601 301.874 718.4 301.663 718.232 301.486 718.064 301.265 717.907 301.059 717.774 300.834 717.637 300.602 717.542 300.378 717.435 300.126 717.379 299.909 717.379 299.909 717.31 299.644 717.292 299.437 717.268 299.169 717.289 298.977 717.316 298.716 717.373 298.543 717.454 298.3 717.546 298.15 717.678 297.935 717.805 297.811 717.984 297.634 718.141 297.537 718.36 297.404 718.545 297.338 718.793 297.251 719.003 297.219 719.268 297.179 z " style="fill: green; stroke: black; stroke-width: 0.000000; fill-type: evenodd"  fill-opacity="1.000000" />
   <path d="M 711.434 284.295 711.97 284.368 712.03 284.386 712.549 284.537 712.605 284.562 713.102 284.788 713.153 284.822 713.62 285.121 713.665 285.161 714.095 285.531 714.134 285.575 714.398 285.876 714.575 285.832 714.627 285.826 715.201 285.763 715.255 285.764 715.827 285.78 715.882 285.789 716.441 285.881 716.496 285.898 717.031 286.062 717.085 286.087 717.588 286.321 717.639 286.353 718.101 286.65 718.148 286.69 718.562 287.044 718.604 287.091 718.964 287.496 718.998 287.548 719.298 287.996 719.326 288.053 719.56 288.537 719.58 288.597 719.746 289.108 719.757 289.17 719.851 289.699 719.854 289.762 719.875 290.301 719.869 290.363 719.816 290.902 719.801 290.962 719.675 291.492 719.652 291.549 719.453 292.061 719.424 292.113 719.155 292.598 719.119 292.644 718.784 293.092 718.743 293.133 718.346 293.535 718.302 293.568 717.849 293.916 717.803 293.943 717.302 294.229 717.254 294.249 716.714 294.466 716.666 294.478 716.163 294.605 715.834 295.026 715.811 295.048 715.359 295.487 715.332 295.507 714.833 295.872 714.802 295.889 714.263 296.178 714.23 296.19 713.622 296.412 713.912 296.55 714.087 296.668 714.302 296.811 714.466 296.958 714.656 297.125 714.806 297.298 714.967 297.483 715.099 297.679 715.231 297.874 715.341 298.09 715.444 298.29 715.53 298.521 715.604 298.72 715.664 298.962 715.711 299.156 715.742 299.405 715.765 299.589 715.766 299.84 715.767 300.013 715.739 300.261 715.72 300.42 715.661 300.66 715.626 300.805 715.538 301.032 715.488 301.162 715.372 301.372 715.309 301.487 715.168 301.677 715.094 301.776 714.928 301.942 714.844 302.026 714.659 302.164 714.566 302.233 714.363 302.342 714.262 302.396 714.045 302.474 713.937 302.512 713.71 302.557 713.595 302.58 713.475 302.586 713.241 302.597 713.006 302.576 712.879 302.564 712.646 302.51 712.514 302.479 712.288 302.393 712.153 302.342 711.937 302.227 711.8 302.154 711.598 302.013 711.461 301.916 711.278 301.751 711.143 301.63 710.981 301.445 710.853 301.299 710.714 301.098 710.596 300.927 710.483 300.714 710.38 300.52 710.294 300.299 710.211 300.083 710.154 299.859 710.094 299.624 710.066 299.403 710.035 299.154 710.036 298.939 710.037 298.682 710.067 298.478 710.104 298.219 710.16 298.029 710.236 297.777 710.317 297.606 710.431 297.369 710.536 297.219 710.687 297.005 710.813 296.88 710.998 296.696 711.142 296.598 711.142 296.598 711.364 296.447 711.09 296.387 711.06 296.376 710.459 296.158 710.433 296.144 709.853 295.84 709.831 295.824 709.282 295.437 709.265 295.421 708.758 294.953 708.746 294.939 708.363 294.482 708.118 294.673 708.03 294.724 707.514 295.022 707.419 295.06 706.848 295.291 706.917 295.393 706.99 295.542 707.141 295.851 707.194 296.016 707.194 296.016 707.299 296.339 707.331 296.516 707.391 296.844 707.401 297.03 707.418 297.356 707.405 297.547 707.382 297.863 707.344 298.056 707.285 298.355 707.223 298.545 707.132 298.823 707.046 299.007 706.928 299.26 706.82 299.433 706.679 299.659 706.55 299.818 706.55 299.818 706.39 300.014 706.242 300.155 706.068 300.322 705.904 300.441 705.718 300.577 705.541 300.674 705.347 300.779 705.16 300.85 704.961 300.925 704.767 300.969 704.566 301.014 704.363 301.03 704.167 301.045 703.971 301.032 703.771 301.019 703.579 300.977 703.383 300.935 703.198 300.866 703.008 300.795 702.835 300.7 702.653 300.601 702.494 300.482 702.323 300.355 702.18 300.214 702.022 300.059 701.899 299.9 701.757 299.717 701.655 299.542 701.532 299.333 701.453 299.146 701.353 298.912 701.298 298.718 701.224 298.46 701.193 298.262 701.149 297.985 701.142 297.787 701.131 297.493 701.148 297.299 701.174 296.994 701.213 296.807 701.279 296.497 701.339 296.322 701.446 296.012 701.526 295.852 701.675 295.552 701.771 295.409 701.962 295.127 702.072 295.003 702.302 294.748 702.462 294.615 702.244 294.468 702.168 294.399 701.726 294.001 701.66 293.922 701.465 293.69 701.424 293.703 701.303 293.744 700.955 293.822 700.823 293.852 700.475 293.895 700.334 293.912 699.993 293.92 699.846 293.923 699.519 293.897 699.369 293.885 699.062 293.827 698.912 293.798 698.629 293.71 698.484 293.664 698.229 293.548 698.093 293.486 697.871 293.346 697.747 293.268 697.56 293.105 697.453 293.012 697.304 292.831 697.216 292.725 697.106 292.529 697.041 292.412 696.972 292.204 696.931 292.079 696.905 291.863 696.889 291.733 696.905 291.512 696.915 291.379 696.974 291.158 697.009 291.027 697.11 290.807 697.168 290.681 697.311 290.468 697.391 290.348 697.574 290.146 697.672 290.037 697.892 289.848 698.006 289.751 698.262 289.581 698.387 289.497 698.674 289.349 698.807 289.28 699.121 289.158 699.257 289.104 699.594 289.011 699.73 288.973 700.083 288.912 700.216 288.889 700.612 288.86 700.624 288.817 700.666 288.724 700.908 288.18 700.962 288.093 701.277 287.589 701.343 287.51 701.726 287.054 701.802 286.986 702.244 286.588 702.329 286.53 702.822 286.197 702.915 286.152 703.449 285.892 703.547 285.86 704.113 285.676 704.214 285.658 704.8 285.555 704.902 285.551 705.497 285.531 705.599 285.541 706.191 285.604 706.29 285.628 706.867 285.772 706.963 285.811 707.51 286.032 707.896 285.618 707.935 285.586 708.417 285.185 708.463 285.156 708.974 284.833 709.026 284.809 709.558 284.566 709.614 284.549 710.158 284.385 710.217 284.376 710.766 284.292 710.827 284.291 711.373 284.286 z " style="fill: green; stroke: black; stroke-width: 0.000000; fill-type: evenodd"  fill-opacity="1.000000" />
   <path d="M 555.81 288.267 556.047 288.284 556.28 288.333 556.459 288.371 556.682 288.452 556.854 288.515 557.064 288.627 557.225 288.712 557.417 288.852 557.565 288.96 557.736 289.125 557.884 289.267 558.032 289.188 558.186 289.106 558.43 289.017 558.594 288.958 558.848 288.904 559.018 288.868 559.277 288.85 559.451 288.837 559.624 288.85 559.884 288.868 560.138 288.922 560.308 288.958 560.552 289.047 560.716 289.106 560.945 289.228 561.099 289.31 561.309 289.463 561.45 289.565 561.636 289.745 561.762 289.866 561.922 290.071 562.029 290.208 562.159 290.433 562.246 290.584 562.343 290.825 562.408 290.986 562.471 291.238 562.513 291.407 562.54 291.665 562.558 291.839 562.549 292.098 562.543 292.272 562.498 292.528 562.468 292.699 562.388 292.946 562.334 293.112 562.22 293.345 562.144 293.502 561.998 293.717 561.901 293.861 561.727 294.055 561.611 294.184 561.412 294.351 561.279 294.463 561.058 294.6 560.911 294.693 560.673 294.798 560.514 294.869 560.265 294.941 560.097 294.989 559.84 295.025 559.668 295.049 559.225 295.049 559.144 295.168 558.983 295.347 558.862 295.482 558.677 295.637 558.538 295.754 558.334 295.881 558.18 295.977 557.96 296.075 557.794 296.149 557.563 296.215 557.389 296.265 557.15 296.299 556.971 296.324 556.548 296.324 556.31 296.291 556.13 296.265 555.899 296.199 555.724 296.149 555.505 296.051 555.339 295.977 555.135 295.85 554.981 295.754 554.797 295.599 554.657 295.482 554.496 295.303 554.375 295.168 554.24 294.969 554.139 294.818 554.033 294.602 553.954 294.439 553.879 294.21 553.823 294.038 553.781 293.801 553.749 293.617 553.674 293.554 553.534 293.436 553.375 293.26 553.253 293.124 553.12 292.927 553.018 292.775 552.913 292.562 552.833 292.397 552.76 292.171 552.703 291.997 552.662 291.763 552.63 291.583 552.622 291.346 552.616 291.163 552.641 290.927 552.66 290.745 552.717 290.514 552.761 290.337 552.85 290.117 552.919 289.947 553.038 289.741 553.129 289.583 553.275 289.396 553.388 289.252 553.559 289.086 553.69 288.96 553.883 288.82 554.031 288.712 554.24 288.601 554.402 288.515 554.625 288.434 554.797 288.371 555.03 288.322 555.208 288.284 555.445 288.267 555.628 288.254 z " style="fill: green; stroke: black; stroke-width: 0.000000; fill-type: evenodd"  fill-opacity="1.000000" />
   <path d="M 732.85 291.217 733.213 291.221 733.333 291.235 733.686 291.276 733.804 291.302 734.141 291.378 734.255 291.417 734.568 291.525 734.676 291.577 734.961 291.716 735.059 291.779 735.311 291.945 735.396 292.019 735.612 292.208 735.682 292.292 735.857 292.501 735.911 292.593 736.042 292.818 736.077 292.916 736.163 293.152 736.179 293.253 736.217 293.497 736.214 293.6 736.205 293.847 736.182 293.948 736.126 294.194 736.084 294.292 735.981 294.531 735.921 294.624 735.773 294.853 735.698 294.938 735.507 295.153 735.418 295.229 735.188 295.424 735.087 295.49 734.821 295.663 734.712 295.717 734.414 295.863 734.299 295.905 733.975 296.022 733.857 296.051 733.513 296.136 733.394 296.153 733.036 296.203 732.919 296.207 732.554 296.221 732.441 296.214 732.075 296.191 731.969 296.173 731.61 296.113 731.512 296.085 731.168 295.987 731.079 295.951 730.756 295.818 730.678 295.774 730.384 295.608 730.317 295.557 730.058 295.361 730.003 295.305 729.785 295.082 729.742 295.021 729.569 294.776 729.539 294.713 729.416 294.45 729.399 294.384 729.328 294.11 729.324 294.043 729.307 293.762 729.315 293.694 729.353 293.412 729.374 293.346 729.465 293.069 729.5 293.005 729.642 292.739 729.689 292.677 729.879 292.427 729.939 292.369 730.173 292.141 730.244 292.088 730.516 291.885 730.599 291.839 730.904 291.665 730.997 291.626 731.328 291.485 731.43 291.454 731.78 291.349 731.889 291.328 732.251 291.258 732.366 291.248 732.731 291.215 z " style="fill: green; stroke: black; stroke-width: 0.000000; fill-type: evenodd"  fill-opacity="1.000000" />
   <path d="M 687.85 291.134 688.069 291.157 688.194 291.188 688.407 291.242 688.527 291.29 688.731 291.372 688.842 291.436 689.033 291.547 689.134 291.626 689.308 291.761 689.397 291.854 689.55 292.012 689.626 292.116 689.755 292.294 689.815 292.408 689.919 292.602 689.963 292.723 690.038 292.93 690.065 293.056 690.11 293.271 690.12 293.4 690.135 293.619 690.126 293.747 690.11 293.967 690.084 294.093 690.038 294.308 689.994 294.429 689.919 294.636 689.858 294.75 689.755 294.944 689.679 295.048 689.55 295.226 689.461 295.319 689.308 295.477 689.206 295.556 689.033 295.692 688.921 295.756 688.731 295.866 688.612 295.914 688.407 295.997 688.283 296.028 688.069 296.081 687.941 296.095 687.722 296.118 687.594 296.113 687.374 296.105 687.247 296.083 687.03 296.045 686.908 296.005 686.698 295.937 686.583 295.881 686.385 295.784 686.278 295.712 686.096 295.589 686 295.503 685.836 295.356 685.754 295.257 685.612 295.089 685.544 294.98 685.427 294.793 685.375 294.675 685.286 294.474 685.25 294.351 685.189 294.139 685.172 294.012 685.141 293.794 685.141 293.445 685.159 293.317 685.189 293.099 685.225 292.976 685.286 292.764 685.338 292.647 685.427 292.445 685.496 292.336 685.612 292.15 685.695 292.051 685.836 291.883 685.932 291.796 686.096 291.649 686.202 291.577 686.385 291.454 686.5 291.398 686.698 291.301 686.821 291.261 687.03 291.193 687.157 291.171 687.374 291.133 687.502 291.128 687.722 291.121 z " style="fill: green; stroke: black; stroke-width: 0.000000; fill-type: evenodd"  fill-opacity="1.000000" />
   <path d="M 745.775 289.53 746.186 289.565 746.248 289.578 746.637 289.655 746.698 289.675 747.058 289.792 747.116 289.819 747.441 289.974 747.493 290.008 747.777 290.196 747.822 290.237 748.061 290.454 748.098 290.501 748.287 290.744 748.314 290.796 748.45 291.06 748.466 291.116 748.548 291.396 748.553 291.454 748.578 291.744 748.572 291.803 748.54 292.099 748.523 292.157 748.523 292.157 748.434 292.453 748.407 292.509 748.264 292.8 748.227 292.853 748.031 293.133 747.987 293.181 747.741 293.445 747.69 293.487 747.398 293.73 747.344 293.766 747.011 293.983 746.954 294.012 746.586 294.199 746.528 294.221 746.132 294.373 746.075 294.389 745.657 294.503 745.602 294.512 745.171 294.585 745.12 294.588 744.683 294.618 744.636 294.616 744.203 294.601 744.161 294.595 743.74 294.535 743.703 294.526 743.302 294.422 743.271 294.409 742.9 294.262 742.874 294.248 742.539 294.06 742.519 294.044 742.228 293.819 742.212 293.802 741.973 293.544 741.961 293.526 741.778 293.24 741.77 293.221 741.647 292.914 741.644 292.894 741.583 292.571 741.583 292.551 741.587 292.218 741.591 292.198 741.659 291.863 741.667 291.842 741.797 291.511 741.81 291.49 742 291.171 742.018 291.149 742.262 290.848 742.285 290.826 742.579 290.548 742.608 290.527 742.945 290.279 742.979 290.259 743.352 290.044 743.392 290.026 743.792 289.848 743.839 289.833 744.258 289.696 744.31 289.685 744.74 289.59 744.796 289.584 745.228 289.532 745.287 289.531 745.713 289.524 z " style="fill: green; stroke: black; stroke-width: 0.000000; fill-type: evenodd"  fill-opacity="1.000000" />
   <path d="M 753.107 287.638 753.549 287.642 753.595 287.648 754.019 287.696 754.068 287.708 754.466 287.799 754.515 287.816 754.88 287.947 754.928 287.972 755.255 288.139 755.299 288.17 755.582 288.371 755.621 288.408 755.856 288.637 755.887 288.68 756.07 288.934 756.092 288.982 756.221 289.255 756.234 289.306 756.306 289.593 756.309 289.646 756.323 289.943 756.315 289.996 756.272 290.298 756.255 290.349 756.154 290.65 756.128 290.699 755.97 290.993 755.937 291.037 755.726 291.32 755.687 291.359 755.424 291.624 755.382 291.658 755.073 291.901 755.028 291.928 754.677 292.143 754.632 292.165 754.245 292.348 754.202 292.363 754.202 292.363 753.785 292.51 753.746 292.52 753.307 292.627 753.272 292.632 752.819 292.696 752.789 292.697 752.331 292.716 752.307 292.714 751.852 292.686 751.834 292.683 751.393 292.608 751.38 292.604 750.961 292.482 750.952 292.478 750.565 292.311 750.561 292.309 750.214 292.099 750.211 292.097 750.211 292.098 750.068 291.979 750.041 291.96 749.996 291.919 749.912 291.849 749.912 291.849 749.889 291.822 749.872 291.807 749.839 291.769 749.724 291.639 749.714 291.623 749.625 291.495 749.602 291.46 749.599 291.457 749.505 291.278 749.498 291.264 749.427 291.08 749.419 291.061 749.368 290.867 749.363 290.851 749.332 290.638 749.331 290.635 749.33 290.603 749.325 290.414 749.328 290.386 749.346 290.191 749.362 290.115 749.393 289.968 749.44 289.827 749.467 289.746 749.541 289.591 749.569 289.527 749.569 289.526 749.783 289.191 749.786 289.188 750.057 288.874 750.062 288.87 750.384 288.583 750.394 288.577 750.759 288.323 750.773 288.315 751.174 288.099 751.194 288.091 751.621 287.915 751.647 287.907 752.091 287.775 752.123 287.769 752.575 287.682 752.613 287.679 753.064 287.637 z " style="fill: green; stroke: black; stroke-width: 0.000000; fill-type: evenodd"  fill-opacity="1.000000" />
   <path d="M 737.63 284.204 738.027 284.224 738.105 284.236 738.5 284.298 738.581 284.319 738.967 284.42 739.051 284.452 739.42 284.59 739.503 284.631 739.85 284.802 739.931 284.853 740.248 285.053 740.324 285.114 740.606 285.339 740.675 285.408 740.918 285.652 740.977 285.729 741.177 285.989 741.224 286.072 741.379 286.341 741.413 286.428 741.519 286.702 741.538 286.792 741.595 287.066 741.598 287.155 741.605 287.424 741.591 287.511 741.55 287.77 741.519 287.853 741.429 288.098 741.383 288.174 741.246 288.4 741.186 288.468 741.004 288.671 740.931 288.729 740.708 288.906 740.625 288.953 740.363 289.1 740.272 289.136 739.977 289.25 739.88 289.273 739.556 289.352 739.457 289.363 739.11 289.404 739.011 289.404 738.646 289.406 738.549 289.396 738.173 289.357 738.081 289.338 737.702 289.258 737.616 289.231 737.24 289.112 737.162 289.078 736.798 288.921 736.729 288.882 736.383 288.688 736.323 288.646 736.004 288.419 735.954 288.375 735.668 288.119 735.628 288.073 735.382 287.793 735.351 287.747 735.151 287.448 735.129 287.402 734.98 287.09 734.966 287.046 734.966 287.046 734.871 286.727 734.866 286.684 734.828 286.365 734.831 286.324 734.851 286.012 734.861 285.974 734.939 285.675 734.956 285.639 735.091 285.359 735.116 285.326 735.304 285.071 735.336 285.042 735.574 284.818 735.613 284.792 735.895 284.603 735.941 284.581 736.262 284.43 736.315 284.414 736.666 284.305 736.727 284.294 737.101 284.227 737.168 284.223 737.557 284.2 z " style="fill: green; stroke: black; stroke-width: 0.000000; fill-type: evenodd"  fill-opacity="1.000000" />
   <path d="M 539.5 284.775 539.679 284.787 539.854 284.824 539.986 284.852 540.155 284.914 540.281 284.96 540.44 285.044 540.559 285.107 540.704 285.213 540.813 285.292 540.942 285.416 541.039 285.51 541.149 285.651 541.233 285.758 541.322 285.913 541.39 286.03 541.457 286.196 541.508 286.321 541.551 286.495 541.583 286.626 541.602 286.804 541.616 286.939 541.61 287.118 541.605 287.253 541.574 287.429 541.551 287.562 541.495 287.732 541.454 287.861 541.375 288.022 541.316 288.143 541.216 288.292 541.14 288.404 541.02 288.537 540.93 288.637 540.793 288.752 540.689 288.839 540.537 288.934 540.423 289.006 540.259 289.079 540.136 289.134 539.964 289.183 539.834 289.22 539.656 289.245 539.523 289.264 539.208 289.264 539.031 289.239 538.897 289.22 538.725 289.171 538.595 289.134 538.432 289.061 538.308 289.006 538.156 288.911 538.042 288.839 537.905 288.724 537.801 288.637 537.681 288.504 537.591 288.404 537.491 288.255 537.415 288.143 537.336 287.982 537.277 287.861 537.222 287.691 537.18 287.562 537.149 287.386 537.126 287.253 537.119 287.074 537.115 286.939 537.133 286.761 537.148 286.626 537.191 286.452 537.224 286.321 537.291 286.155 537.341 286.03 537.431 285.875 537.498 285.758 537.609 285.617 537.692 285.51 537.821 285.386 537.918 285.292 538.063 285.187 538.172 285.107 538.33 285.023 538.449 284.96 538.618 284.899 538.745 284.852 538.92 284.815 539.052 284.787 539.231 284.775 539.365 284.765 z " style="fill: green; stroke: black; stroke-width: 0.000000; fill-type: evenodd"  fill-opacity="1.000000" />
   <path d="M 767.272 282.886 767.566 282.895 767.776 282.926 768.081 282.971 768.28 283.025 768.588 283.108 768.771 283.183 769.076 283.307 769.24 283.401 769.531 283.566 769.674 283.676 769.943 283.881 770.062 284.004 770.298 284.247 770.391 284.38 770.585 284.656 770.652 284.796 770.795 285.098 770.834 285.243 770.921 285.563 770.932 285.709 770.957 286.037 770.941 286.182 770.903 286.508 770.859 286.649 770.76 286.963 770.688 287.097 770.532 287.39 770.434 287.514 770.228 287.778 770.105 287.89 769.856 288.118 769.71 288.215 769.429 288.402 769.262 288.481 768.958 288.626 768.773 288.685 768.458 288.786 768.258 288.824 767.94 288.883 767.729 288.896 767.417 288.915 767.115 288.899 766.9 288.887 766.679 288.849 766.399 288.801 766.181 288.737 765.923 288.662 765.711 288.573 765.479 288.475 765.279 288.362 765.074 288.246 764.889 288.11 764.712 287.979 764.547 287.823 764.398 287.681 764.256 287.507 764.134 287.357 764.019 287.169 763.923 287.013 763.836 286.813 763.767 286.654 763.71 286.446 763.666 286.285 763.641 286.074 763.622 285.912 763.629 285.7 763.634 285.539 763.672 285.33 763.701 285.171 763.771 284.97 763.824 284.814 763.923 284.623 764.002 284.472 764.128 284.295 764.232 284.15 764.383 283.99 764.513 283.853 764.686 283.713 764.841 283.586 765.032 283.468 765.215 283.355 765.42 283.26 765.628 283.164 765.844 283.094 766.077 283.018 766.298 282.973 766.555 282.922 766.777 282.903 767.054 282.88 z " style="fill: green; stroke: black; stroke-width: 0.000000; fill-type: evenodd"  fill-opacity="1.000000" />
   <path d="M 526.382 283.996 526.424 283.999 526.465 284.008 526.704 284.059 526.744 284.073 526.974 284.157 527.011 284.176 527.227 284.291 527.261 284.316 527.459 284.46 527.49 284.489 527.666 284.659 527.691 284.692 527.842 284.885 527.863 284.922 527.986 285.134 528.001 285.173 528.093 285.4 528.103 285.44 528.162 285.678 528.167 285.72 528.192 285.963 528.191 286.005 528.182 286.25 528.175 286.291 528.133 286.532 528.12 286.572 528.044 286.805 528.025 286.843 527.918 287.063 527.895 287.098 527.758 287.301 527.73 287.332 527.566 287.514 527.534 287.541 527.346 287.698 527.31 287.721 527.103 287.85 527.064 287.867 526.841 287.967 526.8 287.978 526.565 288.046 526.523 288.052 526.281 288.086 525.994 288.086 525.953 288.08 525.71 288.046 525.67 288.034 525.435 287.967 525.396 287.95 525.172 287.85 525.137 287.828 524.929 287.698 524.897 287.671 524.709 287.514 524.681 287.483 524.518 287.301 524.494 287.266 524.357 287.063 524.339 287.025 524.231 286.805 524.218 286.765 524.143 286.532 524.135 286.491 524.093 286.25 524.092 286.208 524.083 285.963 524.087 285.921 524.113 285.678 524.123 285.637 524.182 285.4 524.198 285.361 524.29 285.134 524.311 285.097 524.433 284.885 524.459 284.852 524.61 284.659 524.64 284.63 524.816 284.46 524.85 284.435 525.048 284.291 525.085 284.272 525.301 284.157 525.341 284.142 525.571 284.059 525.612 284.05 525.852 283.999 525.894 283.996 526.138 283.979 z " style="fill: green; stroke: black; stroke-width: 0.000000; fill-type: evenodd"  fill-opacity="1.000000" />
   <path d="M 564.86 280.011 565.002 280.02 565.114 280.039 565.227 280.059 565.411 280.115 565.449 280.126 565.513 280.153 565.666 280.221 565.811 280.307 565.876 280.345 565.917 280.377 566.074 280.5 566.173 280.6 566.256 280.686 566.36 280.823 566.418 280.901 566.499 281.047 566.551 281.145 566.599 281.269 566.651 281.414 566.669 281.493 566.712 281.701 566.714 281.716 566.716 281.761 566.727 281.939 566.729 281.998 566.714 282.162 566.7 282.297 566.679 282.385 566.629 282.591 566.628 282.593 566.52 282.872 566.517 282.878 566.517 282.878 566.375 283.136 566.368 283.144 566.194 283.376 566.185 283.385 565.983 283.585 565.97 283.595 565.744 283.76 565.729 283.768 565.484 283.895 565.466 283.901 565.207 283.987 565.187 283.991 564.921 284.034 564.631 284.034 564.61 284.031 564.344 283.987 564.325 283.981 564.068 283.895 564.051 283.886 563.808 283.76 563.793 283.749 563.569 283.585 563.558 283.574 563.358 283.376 563.35 283.365 563.177 283.136 563.172 283.127 563.031 282.872 563.029 282.866 562.923 282.591 562.922 282.588 562.873 282.385 562.864 282.347 562.852 282.297 562.844 282.22 562.837 282.162 562.831 282.092 562.823 281.998 562.824 281.964 562.825 281.939 562.831 281.836 562.838 281.716 562.839 281.709 562.839 281.701 562.864 281.583 562.882 281.493 562.891 281.458 562.9 281.414 562.929 281.334 562.953 281.269 562.975 281.212 563 281.145 563.029 281.093 563.053 281.046 563.093 280.976 563.134 280.901 563.163 280.862 563.191 280.823 563.245 280.752 563.295 280.686 563.334 280.646 563.378 280.6 563.434 280.544 563.478 280.5 563.544 280.448 563.635 280.377 563.66 280.358 563.676 280.345 563.794 280.276 563.886 280.221 563.933 280.2 564.038 280.154 564.084 280.134 564.103 280.126 564.255 280.08 564.325 280.059 564.438 280.04 564.55 280.02 564.638 280.015 564.776 280.007 z " style="fill: green; stroke: black; stroke-width: 0.000000; fill-type: evenodd"  fill-opacity="1.000000" />
   <path d="M 705.03 277.245 705.106 277.246 705.352 277.284 705.431 277.297 705.671 277.37 705.752 277.395 705.983 277.501 706.065 277.539 706.282 277.677 706.364 277.729 706.564 277.896 706.645 277.963 706.824 278.155 706.903 278.239 707.058 278.452 707.132 278.553 707.26 278.783 707.327 278.902 707.427 279.144 707.483 279.28 707.552 279.529 707.552 279.529 707.595 279.681 707.634 279.933 707.659 280.099 707.666 280.348 707.671 280.525 707.648 280.767 707.63 280.95 707.576 281.179 707.533 281.365 707.451 281.577 707.451 281.577 707.381 281.759 707.273 281.95 707.175 282.122 707.043 282.288 706.92 282.444 706.767 282.582 706.62 282.715 706.45 282.823 706.282 282.929 706.099 283.003 705.915 283.077 705.721 283.117 705.528 283.157 705.33 283.162 705.131 283.166 704.93 283.135 704.735 283.105 704.537 283.038 704.35 282.975 704.159 282.874 703.985 282.782 703.805 282.649 703.649 282.533 703.484 282.368 703.349 282.234 703.203 282.041 703.091 281.894 702.968 281.678 702.879 281.523 702.781 281.287 702.716 281.13 702.646 280.879 702.603 280.724 702.563 280.463 702.54 280.315 702.531 280.047 702.526 279.908 702.549 279.641 702.56 279.513 702.615 279.251 702.639 279.136 702.725 278.884 702.76 278.782 702.875 278.545 702.919 278.456 703.062 278.239 703.113 278.162 703.281 277.969 703.338 277.904 703.529 277.738 703.59 277.686 703.8 277.55 703.864 277.508 704.09 277.405 704.157 277.374 704.394 277.306 704.465 277.285 704.709 277.252 704.783 277.242 z " style="fill: green; stroke: black; stroke-width: 0.000000; fill-type: evenodd"  fill-opacity="1.000000" />
   <path d="M 481.451 331.475 482.19 333.714 490.835 359.878 497.101 378.842 483.833 383.885 475.339 387.114 475.339 386.885 475.339 380.03 475.339 379.819 475.339 379.624 475.339 379.451 475.339 379.179 475.339 333.002 475.339 331.403 475.339 312.977 z " style="fill: blue; stroke: black; stroke-width: 0.000000; fill-type: evenodd"  fill-opacity="1.000000" />
   <path d="M 688.351 263.529 690.617 267.228 693.215 271.47 693.463 271.874 693.845 272.444 694.791 273.852 694.724 275.306 694.561 278.865 694.217 278.869 692.21 278.892 690.618 278.911 689.403 278.926 688.519 278.936 677.988 279.06 677.988 291.294 677.988 300.101 683.814 300.032 692.245 299.933 692.245 302.242 692.245 302.939 692.245 304.812 692.245 305.945 692.342 305.943 692.695 305.939 693.426 305.931 693.623 305.928 693.607 306.405 693.524 308.935 693.404 309.583 693.351 309.864 693.216 310.689 692.584 314.545 690.653 326.33 690.26 329.013 686.436 329.058 686.188 329.061 679.267 329.142 678.539 329.151 671.982 329.228 671.051 329.239 666.356 329.295 662.105 329.345 660.729 329.361 655.644 329.421 653.444 329.447 648.877 329.501 646.275 329.531 643.033 329.57 640.738 329.597 637.844 329.631 635.371 329.66 631.987 329.7 628.434 329.742 625.581 329.775 621.831 329.82 619.867 329.843 616.727 329.88 614.628 329.905 610.562 329.953 609.146 329.969 605.802 330.009 602.546 330.047 601.459 330.06 597.011 330.112 595.833 330.126 584.829 330.256 581.878 330.291 579.531 330.319 577.392 330.344 574.56 330.377 572.638 330.4 570.113 330.43 568.014 330.454 566.376 330.474 565.131 330.488 563.511 330.507 551.819 330.645 549.915 330.668 548.489 330.685 543.334 330.745 540.608 330.778 537.477 330.814 534.107 330.854 531.855 330.881 529.537 330.908 526.967 330.938 524.556 330.967 522.962 330.986 521.053 331.008 519.788 331.023 518.619 331.037 517.315 331.052 516.173 331.066 515.405 331.075 514.719 331.083 513.938 331.092 513.415 331.098 512.814 331.105 512.308 331.111 511.957 331.115 511.658 331.119 511.308 331.123 511.024 331.126 510.823 331.129 505.889 331.187 505.889 305.288 505.889 293.078 508.421 300.742 508.868 302.095 536.37 301.771 539.494 301.734 539.494 302.12 539.494 303.292 539.494 304.74 549.553 304.621 567.971 304.404 568.808 306.939 568.96 307.398 569.01 307.398 569.016 307.398 569.484 307.392 570.346 307.382 571.344 307.37 572.235 307.36 572.913 307.352 573.385 307.346 573.695 307.343 573.891 307.34 574.009 307.339 574.117 307.338 574.117 304.535 574.117 304.332 574.117 302.147 574.117 301.326 584.719 301.201 588.374 301.158 588.374 295.368 588.374 280.117 580.776 280.207 580.139 280.214 579.262 280.224 578.114 280.238 576.666 280.255 574.905 280.276 572.835 280.3 570.494 280.328 567.96 280.358 565.356 280.388 562.834 280.418 560.563 280.445 558.697 280.467 557.341 280.483 529.123 280.816 521.526 280.905 516.502 280.964 513.322 281.002 511.284 281.026 509.94 281.042 509.027 281.053 508.39 281.06 507.936 281.065 507.605 281.069 507.362 281.072 507.182 281.074 507.049 281.076 505.889 281.09 505.889 269.316 505.889 267.484 506.525 266.851 512.428 260.974 520.693 260.876 520.853 260.874 521.074 260.872 521.714 260.864 522.596 260.854 522.963 260.849 523.406 260.844 524.709 260.829 526.384 260.809 527.094 260.801 529.341 260.774 530.302 260.763 531.364 260.75 534.573 260.712 538.493 260.666 540.199 260.646 541.046 260.636 541.629 261.379 541.812 261.613 544.547 265.095 546.243 266.966 546.735 267.51 547.91 268.807 548.955 269.771 549.276 270.066 550.788 271.459 551.037 271.641 552.945 273.028 553.344 273.319 553.474 273.387 555.528 274.463 555.688 274.547 557.85 275.227 557.9 275.242 557.933 275.246 559.899 275.443 560.049 275.599 560.096 275.551 560.205 275.439 562.177 275.208 562.189 275.207 564.201 274.535 564.249 274.519 564.382 274.475 566.271 273.44 566.378 273.381 566.692 273.209 567.075 272.919 568.955 271.493 569.195 271.311 570.682 269.883 570.992 269.586 571.999 268.619 573.451 266.946 574.207 266.076 575.256 264.867 576.072 263.78 576.627 263.041 578.766 260.191 579.449 260.183 581.268 260.162 585.409 260.113 588.766 260.073 589.867 260.06 590.864 260.049 593.179 260.021 595.009 260 595.621 259.993 599.161 259.951 599.792 259.943 601.276 259.926 602.422 259.912 602.811 259.908 603.131 259.904 603.902 259.895 604.458 259.888 604.651 259.886 672.947 259.081 674.971 259.057 681.293 258.982 685.713 258.93 z " style="fill: blue; stroke: black; stroke-width: 0.000000; fill-type: evenodd"  fill-opacity="1.000000" />
   <path d="M 760.473 303.777 760.473 328.185 744.855 328.369 744.084 328.378 742.973 328.391 741.591 328.407 740.385 328.422 738.953 328.439 736.823 328.464 734.226 328.494 731.877 328.522 728.253 328.565 725.762 328.594 725.406 326.501 723.627 317.023 722.531 311.18 722.302 309.959 722.215 309.546 722.177 309.365 722.016 308.599 721.879 306.158 721.848 305.595 722.558 305.587 724.739 305.561 725.821 305.549 726.393 305.542 726.692 305.538 726.868 305.536 726.868 303.232 726.868 302.53 726.868 302.269 726.868 299.525 734.809 299.431 760.473 299.128 z " style="fill: blue; stroke: black; stroke-width: 0.000000; fill-type: evenodd"  fill-opacity="1.000000" />
   <path d="M 759.233 268.286 760.473 269.492 760.473 272.987 760.473 278.087 749.503 278.217 748.24 278.232 746.537 278.252 744.239 278.279 741.115 278.316 736.816 278.366 730.79 278.437 722.154 278.539 720.272 278.561 720.036 275.137 719.926 273.556 721.142 271.643 721.329 271.347 723.574 267.472 724.054 266.643 726.311 262.747 728.653 258.424 730.011 258.408 730.928 258.397 731.746 258.387 733.751 258.364 734.383 258.356 735.935 258.338 737.14 258.324 737.564 258.319 737.895 258.315 738.714 258.305 739.261 258.299 739.456 258.296 739.568 258.295 739.85 258.292 748.843 258.186 z " style="fill: blue; stroke: black; stroke-width: 0.000000; fill-type: evenodd"  fill-opacity="1.000000" />
   <path d="M 564.86 280.011 565.002 280.02 565.114 280.039 565.227 280.059 565.411 280.115 565.449 280.126 565.513 280.153 565.666 280.221 565.811 280.307 565.876 280.345 565.917 280.377 565.923 280.382 565.356 280.388 563.594 280.409 563.635 280.377 563.66 280.358 563.676 280.345 563.794 280.276 563.886 280.221 563.933 280.2 564.038 280.154 564.084 280.134 564.103 280.126 564.255 280.08 564.325 280.059 564.438 280.04 564.55 280.02 564.638 280.015 564.776 280.007 z" style="fill: red; stroke: black; stroke-width: 0.000000; fill-type: evenodd"  fill-opacity="1.000000" />
</svg>
