<?xml version="1.0" encoding="UTF-8" standalone="yes"?>
<!DOCTYPE svg PUBLIC "-//W3C//DTD SVG 1.0//EN" "http://www.w3.org/TR/2001/REC-SVG-20010904/DTD/svg10.dtd">
<svg height="2000" width="2000" xmlns="http://www.w3.org/2000/svg" xmlns:svg="http://www.w3.org/2000/svg" xmlns:xlink="http://www.w3.org/1999/xlink">
   <marker id="endArrow" markerHeight="8" markerUnits="strokeWidth" markerWidth="10" orient="auto" refX="1" refY="5" viewBox="0 0 10 10">
      <polyline fill="darkblue" points="0,0 10,5 0,10 1,5" />
   </marker>
<rect fill='white' stroke='none' x='0' y='0' width='2000.000000' height='2000.000000'/>
   <path d="M 564.113 364.747 564.33 364.771 564.809 364.917 565.023 364.983 565.489 365.221 565.693 365.326 566.138 365.652 566.33 365.793 566.744 366.202 566.919 366.374 567.295 366.861 567.449 367.06 567.78 367.615 567.911 367.835 568.189 368.45 568.295 368.686 568.513 369.35 568.594 369.595 568.747 370.297 568.801 370.545 568.885 371.271 568.913 371.517 568.925 372.254 568.928 372.493 568.865 373.226 568.846 373.453 568.708 374.167 568.667 374.379 568.456 375.059 568.396 375.253 568.115 375.884 568.037 376.057 567.69 376.625 567.598 376.776 567.193 377.27 567.088 377.397 566.63 377.804 566.515 377.906 566.016 378.218 565.892 378.295 565.361 378.504 565.231 378.555 564.678 378.657 564.544 378.682 563.981 378.674 563.844 378.672 563.284 378.556 563.146 378.527 562.599 378.304 562.462 378.249 561.941 377.926 561.807 377.843 561.321 377.427 561.193 377.317 560.752 376.818 560.632 376.682 560.244 376.111 560.134 375.95 559.807 375.32 559.711 375.135 559.449 374.46 559.369 374.253 559.176 373.547 559.115 373.321 558.995 372.599 558.955 372.358 558.907 371.633 558.891 371.382 558.916 370.669 558.925 370.411 559.02 369.724 559.056 369.466 559.218 368.817 559.281 368.564 559.506 367.964 559.597 367.723 559.879 367.183 559.997 366.959 560.33 366.488 560.472 366.287 560.851 365.893 561.015 365.721 561.431 365.409 561.614 365.271 562.059 365.046 562.258 364.946 562.724 364.812 562.934 364.752 563.413 364.711 563.63 364.693 z " style="fill: green; stroke: black; stroke-width: 0.000000; fill-type: evenodd"  fill-opacity="1.000000" />
   <path d="M 714.631 337.707 715.157 337.764 715.393 337.829 715.922 337.974 716.162 338.078 716.685 338.305 716.925 338.449 717.43 338.753 717.665 338.936 718.143 339.308 718.369 339.529 718.809 339.959 719.021 340.216 719.417 340.694 719.61 340.983 719.954 341.499 720.122 341.816 720.409 342.357 720.548 342.698 720.774 343.253 720.879 343.61 721.042 344.168 721.108 344.535 721.207 345.085 721.232 345.454 721.267 345.986 721.247 346.349 721.22 346.854 721.154 347.202 721.066 347.671 720.955 347.995 720.81 348.422 720.655 348.715 720.456 349.092 720.259 349.346 720.01 349.667 719.776 349.876 719.482 350.138 719.215 350.297 718.882 350.495 718.588 350.599 718.221 350.73 717.907 350.778 717.513 350.839 717.187 350.831 716.771 350.82 716.439 350.757 716.01 350.674 715.68 350.557 715.244 350.403 714.924 350.238 714.488 350.012 714.185 349.804 713.757 349.51 713.476 349.264 713.066 348.905 712.812 348.629 712.427 348.21 712.205 347.911 711.854 347.439 711.666 347.124 711.356 346.605 711.205 346.282 710.945 345.726 710.832 345.402 710.628 344.818 710.552 344.5 710.411 343.9 710.373 343.593 710.298 342.989 710.296 342.697 710.292 342.102 710.324 341.832 710.393 341.258 710.457 341.012 710.598 340.472 710.692 340.253 710.904 339.76 711.025 339.571 711.305 339.135 711.451 338.978 711.793 338.611 711.961 338.488 712.358 338.196 712.546 338.108 712.99 337.9 713.194 337.848 713.676 337.727 713.894 337.714 714.403 337.682 z " style="fill: green; stroke: black; stroke-width: 0.000000; fill-type: evenodd"  fill-opacity="1.000000" />
   <path d="M 713.405 300.902 713.413 300.903 713.42 300.905 713.684 300.992 713.688 300.995 713.937 301.136 713.938 301.137 713.952 301.149 714.048 301.226 714.134 301.294 714.149 301.307 714.169 301.324 714.23 301.396 714.267 301.439 714.305 301.486 714.366 301.563 714.374 301.577 714.378 301.584 714.426 301.674 714.455 301.729 714.475 301.77 714.513 301.849 714.519 301.867 714.521 301.874 714.547 301.967 714.562 302.019 714.573 302.068 714.595 302.164 714.596 302.167 714.597 302.173 714.603 302.27 714.605 302.309 714.606 302.372 714.607 302.455 714.606 302.473 714.604 302.514 714.595 302.575 714.592 302.6 714.576 302.677 714.562 302.745 714.553 302.778 714.534 302.846 714.523 302.876 714.523 302.876 714.518 302.89 714.48 302.976 714.454 303.035 714.434 303.073 714.399 303.14 714.382 303.166 714.374 303.18 714.315 303.26 714.267 303.325 714.247 303.347 714.223 303.374 714.166 303.431 714.127 303.47 714.08 303.509 714.039 303.543 713.989 303.579 713.941 303.615 713.845 303.647 713.675 303.699 713.557 303.733 713.469 303.755 713.399 303.77 713.339 303.782 713.287 303.789 713.24 303.795 713.196 303.798 713.154 303.8 713.112 303.8 713.07 303.798 713.026 303.795 712.979 303.789 712.927 303.782 712.867 303.77 712.796 303.755 712.708 303.733 712.591 303.699 712.421 303.647 712.325 303.615 712.227 303.543 712.138 303.47 712.043 303.374 711.999 303.325 711.937 303.24 711.892 303.18 711.867 303.14 711.811 303.035 711.765 302.93 711.747 302.89 711.731 302.846 711.704 302.745 711.687 302.665 711.674 302.6 711.661 302.514 711.659 302.455 711.659 302.41 711.66 302.309 711.669 302.173 711.67 302.164 711.672 302.158 711.704 302.019 711.739 301.895 711.739 301.895 711.744 301.874 711.752 301.849 711.81 301.729 711.875 301.607 711.887 301.584 711.9 301.563 711.999 301.439 712.097 301.324 712.132 301.294 712.26 301.192 712.313 301.149 712.328 301.136 712.329 301.136 712.582 300.992 712.587 300.99 712.853 300.903 712.861 300.902 713.133 300.872 z " style="fill: green; stroke: black; stroke-width: 0.000000; fill-type: evenodd"  fill-opacity="1.000000" />
   <path d="M 773.522 281.376 774.185 281.446 774.215 281.453 774.862 281.615 774.89 281.626 775.509 281.876 775.535 281.891 776.113 282.225 776.137 282.244 776.663 282.654 776.684 282.676 777.147 283.156 777.165 283.181 777.557 283.72 777.571 283.747 777.885 284.336 777.895 284.365 778.123 284.992 778.13 285.022 778.268 285.674 778.27 285.705 778.317 286.37 778.315 286.4 778.268 287.066 778.262 287.096 778.123 287.748 778.113 287.777 777.885 288.404 777.87 288.431 777.557 289.02 777.539 289.044 777.147 289.584 777.126 289.606 776.663 290.086 776.639 290.105 776.113 290.515 776.087 290.53 775.509 290.864 775.481 290.875 774.862 291.125 774.833 291.133 774.185 291.294 774.155 291.297 773.491 291.367 773.461 291.366 773.38 291.363 773.38 291.495 773.317 291.962 773.264 292.352 773.131 292.856 773.034 293.224 772.825 293.759 772.694 294.095 772.405 294.652 772.252 294.947 771.88 295.515 771.716 295.764 771.259 296.329 771.096 296.531 770.557 297.077 770.404 297.231 769.788 297.741 769.654 297.852 768.971 298.308 768.86 298.382 768.122 298.766 768.038 298.81 767.261 299.105 767.204 299.127 766.406 299.32 766.374 299.328 765.575 299.408 765.564 299.409 765.422 299.401 765.363 299.406 765.076 299.386 764.819 299.368 764.621 299.325 764.208 299.314 764.126 299.312 763.367 299.206 763.261 299.191 762.553 299.015 762.426 298.983 761.781 298.751 761.637 298.699 761.063 298.425 760.907 298.351 760.406 298.048 760.244 297.951 759.817 297.63 759.655 297.508 759.299 297.178 759.144 297.034 758.856 296.702 758.714 296.537 758.489 296.209 758.365 296.026 758.199 295.705 758.098 295.508 757.986 295.196 757.912 294.989 757.85 294.689 757.838 294.632 757.388 294.542 757.378 294.539 757.214 294.488 757.129 294.47 756.932 294.437 756.93 294.437 756.492 294.313 756.488 294.311 756.083 294.145 756.076 294.142 755.712 293.936 755.704 293.932 755.386 293.691 755.378 293.685 755.112 293.414 755.104 293.406 754.896 293.11 754.889 293.1 754.741 292.785 754.736 292.774 754.651 292.445 754.648 292.434 754.627 292.098 754.626 292.085 754.671 291.748 754.672 291.736 754.781 291.404 754.785 291.393 754.956 291.072 754.961 291.063 755.193 290.759 755.199 290.751 755.486 290.471 755.492 290.465 755.831 290.213 755.836 290.209 756.22 289.991 756.224 289.989 756.646 289.81 756.647 289.809 756.729 289.785 756.744 289.778 756.874 289.741 757.088 289.644 757.099 289.64 757.551 289.488 757.589 289.479 758.049 289.374 758.116 289.365 758.576 289.307 758.674 289.304 759.121 289.293 759.249 289.303 759.675 289.336 759.827 289.366 760.224 289.442 760.394 289.496 760.753 289.61 760.931 289.694 761.245 289.842 761.419 289.957 761.684 290.134 761.84 290.281 762.053 290.481 762.097 290.542 762.203 290.534 762.764 290.545 762.957 290.549 763.099 290.566 763.274 290.327 763.409 290.142 763.887 289.607 764.066 289.407 764.564 288.95 764.789 288.744 765.293 288.369 765.563 288.168 766.061 287.873 766.373 287.688 766.855 287.471 767.203 287.314 767.561 287.203 767.563 287.019 767.563 286.975 767.626 286.663 767.635 286.62 767.757 286.31 767.774 286.268 767.953 285.967 767.976 285.928 768.209 285.64 768.238 285.605 768.411 285.442 768.426 285.331 768.435 285.301 768.618 284.66 768.631 284.632 768.902 284.023 768.918 283.997 769.272 283.431 769.291 283.408 769.72 282.897 769.743 282.876 770.239 282.43 770.264 282.413 770.817 282.04 770.844 282.027 771.444 281.734 771.473 281.725 772.107 281.519 772.137 281.513 772.794 281.397 772.825 281.396 773.491 281.373 z " style="fill: green; stroke: black; stroke-width: 0.000000; fill-type: evenodd"  fill-opacity="1.000000" />
   <path d="M 712.376 287.928 712.729 287.953 713.075 288.026 713.208 288.055 713.541 288.176 713.669 288.222 713.981 288.388 714.102 288.453 714.388 288.66 714.499 288.741 714.753 288.986 714.851 289.081 715.069 289.36 715.153 289.468 715.33 289.774 715.398 289.892 715.531 290.22 715.582 290.347 715.667 290.69 715.7 290.822 715.738 291.174 715.752 291.31 715.739 291.663 715.735 291.8 715.673 292.148 715.65 292.283 715.54 292.619 715.498 292.749 715.343 293.067 715.283 293.19 715.085 293.483 715.009 293.596 714.772 293.859 714.681 293.961 714.41 294.188 714.305 294.276 714.006 294.463 713.89 294.535 713.567 294.679 713.442 294.735 713.27 294.784 713.162 295.006 713.101 295.132 712.908 295.418 712.829 295.534 712.599 295.79 712.505 295.894 712.241 296.116 712.133 296.206 711.841 296.389 711.722 296.463 711.407 296.603 711.279 296.66 710.948 296.755 710.813 296.794 710.472 296.842 710.333 296.861 709.848 296.861 709.507 296.813 709.368 296.794 709.036 296.699 708.902 296.66 708.587 296.52 708.459 296.463 708.166 296.28 708.047 296.206 707.783 295.984 707.676 295.894 707.445 295.638 707.351 295.534 707.159 295.248 707.094 295.153 707.036 295.202 706.917 295.302 706.656 295.464 706.525 295.547 706.244 295.672 706.102 295.735 705.807 295.819 705.658 295.862 705.354 295.905 705.2 295.926 704.738 295.926 704.434 295.884 704.28 295.862 703.985 295.777 703.836 295.735 703.555 295.61 703.413 295.547 703.153 295.384 703.021 295.302 702.786 295.104 702.667 295.004 702.461 294.776 702.358 294.661 702.186 294.406 702.099 294.278 701.964 294.002 701.896 293.862 701.801 293.57 701.754 293.422 701.7 293.12 701.673 292.967 701.662 292.66 701.657 292.505 701.689 292.199 701.705 292.045 701.78 291.747 701.817 291.597 701.932 291.312 701.99 291.168 702.144 290.902 702.222 290.767 702.411 290.525 702.506 290.403 702.727 290.19 702.839 290.082 703.087 289.902 703.213 289.81 703.484 289.666 703.621 289.593 703.91 289.488 704.055 289.435 704.356 289.371 704.508 289.339 704.814 289.318 704.969 289.307 705.124 289.318 705.43 289.339 705.731 289.403 705.882 289.435 706.171 289.54 706.317 289.593 706.588 289.737 706.725 289.81 706.974 289.991 707.099 290.082 707.32 290.295 707.432 290.403 707.621 290.645 707.716 290.768 707.753 290.831 707.856 290.731 708.135 290.529 708.248 290.446 708.553 290.284 708.677 290.218 708.997 290.102 709.03 290.019 709.03 290.019 709.081 289.892 709.258 289.586 709.327 289.468 709.544 289.189 709.628 289.081 709.883 288.836 709.981 288.741 710.267 288.533 710.378 288.453 710.69 288.287 710.811 288.222 711.143 288.102 711.271 288.055 711.617 287.981 711.751 287.953 712.103 287.928 712.24 287.919 z " style="fill: green; stroke: black; stroke-width: 0.000000; fill-type: evenodd"  fill-opacity="1.000000" />
   <path d="M 687.719 291.281 687.961 291.298 688.199 291.348 688.281 291.366 688.509 291.449 688.588 291.478 688.803 291.592 688.877 291.631 689.074 291.774 689.142 291.823 689.317 291.992 689.377 292.051 689.527 292.242 689.578 292.308 689.7 292.519 689.742 292.592 689.833 292.817 689.864 292.895 689.923 293.131 689.943 293.212 689.969 293.454 689.977 293.537 689.969 293.78 689.966 293.864 689.924 294.104 689.909 294.186 689.834 294.418 689.808 294.497 689.702 294.716 689.665 294.791 689.529 294.993 689.482 295.062 689.319 295.243 689.263 295.305 689.077 295.462 689.013 295.516 688.806 295.644 688.735 295.689 688.513 295.788 688.437 295.822 688.203 295.889 688.122 295.912 687.881 295.946 687.798 295.958 687.471 295.958 687.23 295.924 687.147 295.912 686.914 295.845 686.833 295.822 686.611 295.723 686.534 295.689 686.328 295.56 686.257 295.516 686.071 295.359 686.006 295.305 685.844 295.125 685.788 295.062 685.652 294.861 685.605 294.791 685.498 294.573 685.461 294.497 685.386 294.266 685.36 294.186 685.318 293.947 685.303 293.864 685.295 293.621 685.292 293.537 685.318 293.295 685.326 293.212 685.385 292.976 685.405 292.895 685.496 292.669 685.528 292.592 685.649 292.381 685.692 292.308 685.841 292.117 685.893 292.051 686.068 291.882 686.128 291.823 686.325 291.681 686.393 291.631 686.607 291.517 686.681 291.478 686.91 291.394 686.989 291.366 687.227 291.315 687.309 291.298 687.551 291.281 687.635 291.275 z " style="fill: green; stroke: black; stroke-width: 0.000000; fill-type: evenodd"  fill-opacity="1.000000" />
   <path d="M 790.463 281.383 791.029 281.397 791.455 281.451 792 281.519 792.423 281.616 792.938 281.734 793.349 281.876 793.825 282.04 794.212 282.225 794.643 282.43 794.997 282.656 795.376 282.897 795.688 283.16 796.01 283.431 796.271 283.726 796.533 284.023 796.736 284.344 796.934 284.66 797.073 285.001 797.206 285.331 797.276 285.684 797.343 286.021 797.343 286.719 797.273 287.072 797.206 287.41 797.068 287.751 796.934 288.08 796.732 288.402 796.533 288.717 796.272 289.013 796.01 289.309 795.698 289.572 795.376 289.843 795.022 290.069 794.643 290.31 794.255 290.495 793.825 290.7 793.414 290.842 792.938 291.006 792.514 291.103 792 291.222 791.572 291.275 791.029 291.343 790.606 291.353 790.043 291.367 789.635 291.337 789.062 291.294 788.675 291.226 788.104 291.125 787.745 291.023 787.19 290.864 786.864 290.731 786.335 290.515 786.047 290.356 785.558 290.086 785.31 289.904 784.873 289.584 784.667 289.384 784.293 289.02 784.132 288.806 783.83 288.404 783.714 288.179 783.492 287.748 783.423 287.517 783.287 287.066 783.264 286.832 783.218 286.37 783.242 286.136 783.287 285.674 783.357 285.444 783.492 284.992 783.607 284.768 783.83 284.336 783.99 284.124 784.293 283.72 784.497 283.522 784.873 283.156 785.119 282.976 785.558 282.654 785.845 282.496 786.335 282.225 786.659 282.093 787.19 281.876 787.546 281.774 788.104 281.615 788.489 281.547 789.062 281.446 789.468 281.416 790.043 281.373 z " style="fill: green; stroke: black; stroke-width: 0.000000; fill-type: evenodd"  fill-opacity="1.000000" />
   <path d="M 705.453 279.996 705.541 280.001 705.703 280.029 705.759 280.039 705.93 280.088 705.975 280.102 705.997 280.111 705.997 280.111 706.186 280.193 706.39 280.31 706.391 280.31 706.393 280.312 706.586 280.459 706.664 280.535 706.767 280.637 706.861 280.758 706.928 280.845 707.007 280.981 707.063 281.082 707.113 281.204 707.167 281.345 707.188 281.427 707.233 281.626 707.235 281.65 707.241 281.727 707.253 281.874 707.255 281.921 707.243 282.097 707.232 282.218 707.21 282.32 707.164 282.51 707.151 282.543 707.055 282.79 707.054 282.793 706.911 283.052 706.906 283.057 706.732 283.29 706.724 283.297 706.521 283.498 706.511 283.506 706.285 283.672 706.272 283.678 706.026 283.806 706.01 283.811 705.751 283.898 705.734 283.9 705.466 283.944 705.178 283.944 705.161 283.941 704.894 283.898 704.619 283.806 704.605 283.799 704.605 283.799 704.36 283.672 704.349 283.663 704.124 283.498 704.115 283.489 703.913 283.29 703.907 283.282 703.734 283.052 703.731 283.046 703.589 282.79 703.588 282.787 703.494 282.543 703.488 282.528 703.481 282.51 703.455 282.402 703.435 282.32 703.425 282.276 703.413 282.218 703.406 282.148 703.402 282.097 703.396 282.021 703.389 281.921 703.391 281.894 703.391 281.894 703.392 281.874 703.401 281.766 703.41 281.65 703.411 281.64 703.412 281.626 703.437 281.514 703.457 281.427 703.466 281.39 703.478 281.345 703.507 281.268 703.507 281.268 703.532 281.204 703.555 281.147 703.581 281.082 703.611 281.029 703.638 280.981 703.677 280.914 703.717 280.845 703.75 280.802 703.783 280.758 703.834 280.694 703.878 280.637 703.925 280.59 703.981 280.535 704.025 280.492 704.059 280.459 704.138 280.399 704.252 280.312 704.253 280.311 704.254 280.311 704.389 280.233 704.459 280.193 704.531 280.162 704.67 280.102 704.681 280.099 704.715 280.088 704.85 280.049 704.886 280.039 705.033 280.014 705.104 280.001 705.233 279.994 705.322 279.989 z " style="fill: green; stroke: black; stroke-width: 0.000000; fill-type: evenodd"  fill-opacity="1.000000" />
   <path d="M 714.921 280.239 715.028 280.243 715.073 280.249 715.173 280.262 715.239 280.277 715.319 280.295 715.423 280.328 715.468 280.342 715.594 280.394 715.621 280.406 715.638 280.416 715.773 280.492 715.924 280.596 715.928 280.599 715.935 280.606 716.077 280.735 716.135 280.798 716.22 280.899 716.289 281.001 716.349 281.095 716.401 281.202 716.454 281.322 716.481 281.405 716.528 281.575 716.533 281.607 716.544 281.698 716.558 281.809 716.562 281.849 716.556 282.011 716.549 282.132 716.533 282.213 716.488 282.414 716.487 282.415 716.485 282.42 716.405 282.617 716.378 282.682 716.293 282.819 716.224 282.927 716.14 283.021 716.031 283.141 715.928 283.223 715.808 283.317 715.609 283.426 715.561 283.452 715.499 283.473 715.499 283.473 715.297 283.542 715.092 283.576 715.023 283.588 714.746 283.588 714.566 283.558 714.472 283.542 714.367 283.506 714.208 283.452 714.189 283.441 714.16 283.426 714.04 283.36 713.961 283.317 713.905 283.273 713.841 283.223 713.786 283.179 713.737 283.141 713.681 283.079 713.628 283.021 713.588 282.975 713.545 282.927 713.507 282.868 713.476 282.819 713.437 282.757 713.391 282.682 713.375 282.645 713.363 282.617 713.327 282.529 713.282 282.415 713.281 282.414 713.281 282.414 713.254 282.296 713.236 282.213 713.229 282.178 713.229 282.178 713.22 282.132 713.215 282.06 713.212 282.011 713.21 281.942 713.207 281.849 713.209 281.825 713.21 281.809 713.223 281.707 713.235 281.607 713.237 281.593 713.237 281.593 713.24 281.575 713.267 281.478 713.288 281.405 713.3 281.366 713.314 281.322 713.343 281.257 713.343 281.257 713.367 281.203 713.393 281.15 713.42 281.095 713.451 281.047 713.48 281 713.516 280.947 713.548 280.899 713.589 280.852 713.633 280.798 713.667 280.761 713.691 280.735 713.755 280.677 713.841 280.599 713.842 280.598 713.845 280.596 713.947 280.526 713.996 280.492 714.051 280.461 714.148 280.406 714.155 280.403 714.175 280.394 714.273 280.353 714.3 280.342 714.395 280.312 714.449 280.295 714.518 280.28 714.596 280.262 714.646 280.256 714.741 280.243 714.78 280.242 714.884 280.237 z " style="fill: green; stroke: black; stroke-width: 0.000000; fill-type: evenodd"  fill-opacity="1.000000" />
   <path d="M 710.936 281.306 711.052 281.336 711.117 281.359 711.117 281.531 711.11 281.569 711.012 281.703 710.89 281.778 710.866 281.788 710.706 281.788 710.7 281.786 710.682 281.778 710.593 281.723 710.56 281.703 710.515 281.642 710.461 281.569 710.459 281.551 710.455 281.531 710.455 281.414 710.455 281.359 710.52 281.336 710.636 281.306 710.738 281.293 710.834 281.293 z " style="fill: green; stroke: black; stroke-width: 0.000000; fill-type: evenodd"  fill-opacity="1.000000" />
   <path d="M 688.231 262.371 689.065 263.56 689.688 264.449 690.516 265.502 691.744 267.066 693.389 269.16 694.408 270.286 694.704 270.613 696.425 272.512 696.879 272.931 697.018 273.059 699.024 274.908 699.056 274.931 699.726 275.418 700.038 277.626 700.433 280.42 696.877 280.462 691.809 280.522 687.752 280.569 684.606 280.606 682.211 280.635 680.407 280.656 679.058 280.672 678.058 280.684 677.325 280.692 676.798 280.699 676.431 280.703 672.89 280.745 672.89 283.052 672.89 301.786 685.283 301.639 687.147 301.617 687.147 302.128 687.146 303.679 687.146 304.623 693.706 304.546 705.716 304.404 706.263 306.057 706.706 307.398 706.852 307.397 706.871 307.396 708.236 307.38 710.754 307.351 713.67 307.316 716.271 307.286 718.253 307.262 719.63 307.246 720.535 307.235 721.107 307.229 721.454 307.224 721.65 307.222 721.77 307.221 721.77 304.746 721.77 304.215 721.77 302.155 721.77 301.209 744.281 300.944 755.375 300.813 755.375 320.472 755.375 329.869 738.96 330.063 738.366 330.07 737.533 330.08 736.551 330.091 735.729 330.101 734.803 330.112 733.502 330.127 732.042 330.144 730.816 330.159 729.099 330.179 727.659 330.196 726.16 330.214 724.062 330.238 721.905 330.264 720.116 330.285 718.378 330.306 715.99 330.334 714.719 330.349 714.101 330.356 714.008 330.357 712.572 324.072 711.703 321.657 711.216 320.305 710.074 317.137 709.722 316.811 708.157 315.344 707.812 315.019 707.473 315.373 705.95 316.969 705.6 317.333 704.549 320.542 703.26 324.476 702.171 329.886 702.171 329.886 702.118 330.152 702.048 330.498 701.052 330.51 700.254 330.519 699.708 330.526 699.03 330.534 698.381 330.541 697.598 330.551 697.006 330.558 696.583 330.563 696.212 330.567 695.947 330.57 695.802 330.572 695.63 330.574 658.552 331.011 657.429 331.024 656.535 331.035 655.721 331.044 654.643 331.057 653.911 331.066 652.95 331.077 652.151 331.086 651.527 331.094 651.053 331.099 650.437 331.107 619.197 331.475 621.604 338.762 622.494 341.456 592.493 341.81 533.28 342.508 527.604 342.575 500.791 342.891 500.791 347.566 500.791 348.26 500.791 349.494 500.791 351.467 500.791 354.47 500.791 358.928 500.791 362.417 502.467 365.356 503.373 367.142 505.491 371.317 506.278 373.112 507.66 376.261 507.829 376.724 508.428 378.365 508.428 380.615 508.428 380.786 508.428 384.495 508.428 384.871 508.428 388.007 508.428 388.495 508.428 391.298 508.428 393.932 508.428 394.486 508.428 397.132 508.428 397.674 508.428 400.479 508.428 400.967 508.428 404.106 508.428 404.481 508.428 408.365 508.428 410.581 507.818 412.25 507.645 412.722 507.249 413.625 505.471 417.673 503.332 421.884 502.439 423.644 501.976 424.454 500.791 426.53 488.196 428.257 470.241 430.12 470.241 411.693 470.241 404.374 470.241 393.283 470.241 391.819 470.241 390.495 470.241 387.83 470.241 386.232 470.241 384.76 470.241 383.449 470.241 364.702 470.241 363.059 470.241 361.656 470.241 360.488 470.241 329.707 470.241 282.317 470.241 276.596 470.241 269.529 476.127 263.668 476.78 263.018 485.01 262.921 507.742 262.653 519.352 262.516 538.319 262.293 538.642 262.289 539.578 262.278 539.948 262.273 540.333 262.269 541.393 262.256 541.804 262.252 542.923 262.238 544.47 262.22 545.547 262.207 545.956 262.203 546.936 262.191 547.304 262.187 547.622 262.183 548.448 262.173 577.691 261.828 594.444 288.313 612.159 316.32 613.826 318.956 615.716 312.907 627.12 276.399 631.872 261.189 686.148 260.549 686.948 260.54 z " style="fill: blue; stroke: black; stroke-width: 0.000000; fill-type: evenodd"  fill-opacity="1.000000" />
   <path d="M 753.134 268.997 755.375 271.176 755.375 277.489 755.375 279.772 733.959 280.024 732.469 280.042 730.643 280.064 728.463 280.089 725.921 280.119 723.037 280.153 719.858 280.191 716.474 280.231 714.44 280.255 714.706 278.01 715.035 275.238 715.62 274.795 715.647 274.774 717.615 272.883 717.748 272.756 718.179 272.342 718.8 271.626 719.123 271.254 721.12 268.954 721.608 268.304 722.882 266.608 724.685 264.206 725.658 262.752 726.105 262.083 727.456 260.062 727.996 260.056 728.823 260.046 729.132 260.042 729.338 260.04 729.876 260.034 743.745 259.87 z " style="fill: blue; stroke: black; stroke-width: 0.000000; fill-type: evenodd"  fill-opacity="1.000000" />
   <path d="M 714.921 280.239 715.028 280.243 715.059 280.247 714.676 280.252 714.741 280.243 714.78 280.242 714.884 280.237 z" style="fill: red; stroke: black; stroke-width: 0.000000; fill-type: evenodd"  fill-opacity="1.000000" />
</svg>
