<?xml version="1.0" encoding="UTF-8" standalone="yes"?>
<!DOCTYPE svg PUBLIC "-//W3C//DTD SVG 1.0//EN" "http://www.w3.org/TR/2001/REC-SVG-20010904/DTD/svg10.dtd">
<svg height="2000" width="2000" xmlns="http://www.w3.org/2000/svg" xmlns:svg="http://www.w3.org/2000/svg" xmlns:xlink="http://www.w3.org/1999/xlink">
   <marker id="endArrow" markerHeight="8" markerUnits="strokeWidth" markerWidth="10" orient="auto" refX="1" refY="5" viewBox="0 0 10 10">
      <polyline fill="darkblue" points="0,0 10,5 0,10 1,5" />
   </marker>
<rect fill='white' stroke='none' x='0' y='0' width='2000.000000' height='2000.000000'/>
   <path d="M 561.194 337.76 561.73 337.819 561.893 337.87 562.422 338.032 562.582 338.114 563.093 338.375 563.247 338.488 563.729 338.841 563.875 338.985 564.318 339.423 564.452 339.596 564.849 340.108 564.968 340.309 565.311 340.884 565.413 341.11 565.694 341.734 565.776 341.983 565.993 342.643 566.051 342.911 566.201 343.593 566.233 343.875 566.313 344.566 566.317 344.856 566.328 345.541 566.302 345.835 566.245 346.502 566.189 346.792 566.066 347.428 565.979 347.708 565.795 348.301 565.678 348.565 565.437 349.106 565.29 349.346 564.998 349.825 564.825 350.035 564.487 350.446 564.291 350.621 563.915 350.955 563.699 351.09 563.292 351.344 563.061 351.435 562.63 351.604 562.389 351.648 561.943 351.731 561.698 351.727 561.243 351.721 560.999 351.67 560.545 351.576 560.308 351.479 559.862 351.297 559.636 351.158 559.207 350.892 558.998 350.713 558.592 350.366 558.405 350.153 558.031 349.731 557.868 349.49 557.534 348.999 557.397 348.736 557.11 348.184 557.002 347.906 556.768 347.302 556.69 347.015 556.514 346.37 556.466 346.081 556.354 345.407 556.335 345.122 556.29 344.43 556.3 344.155 556.324 343.46 556.36 343.199 556.455 342.514 556.516 342.272 556.681 341.612 556.763 341.393 556.996 340.771 557.098 340.577 557.396 340.008 557.515 339.84 557.872 339.336 558.005 339.198 558.415 338.77 558.559 338.661 559.014 338.319 559.167 338.242 559.658 337.994 559.817 337.949 560.334 337.8 560.497 337.787 561.029 337.742 z " style="fill: green; stroke: black; stroke-width: 0.000000; fill-type: evenodd"  fill-opacity="1.000000" />
   <path d="M 708.527 324.38 708.784 324.382 708.957 324.407 709.211 324.443 709.379 324.491 709.379 324.491 709.624 324.562 709.784 324.633 710.018 324.736 710.166 324.828 710.384 324.964 710.519 325.075 710.717 325.24 710.835 325.368 711.01 325.56 711.109 325.703 711.259 325.919 711.337 326.073 711.457 326.31 711.513 326.473 711.601 326.728 711.634 326.896 711.688 327.164 711.698 327.335 711.714 327.611 711.702 327.78 711.68 328.06 711.645 328.225 711.585 328.502 711.528 328.66 711.43 328.93 711.352 329.077 711.216 329.335 711.12 329.468 710.948 329.707 710.835 329.824 710.629 330.039 710.503 330.138 710.267 330.324 710.129 330.404 709.868 330.555 709.721 330.614 709.439 330.727 709.287 330.763 708.99 330.835 708.686 330.862 708.531 330.877 708.376 330.868 708.07 330.851 707.919 330.82 707.618 330.758 707.473 330.705 707.185 330.599 707.049 330.526 706.779 330.379 706.655 330.286 706.41 330.102 706.301 329.991 706.086 329.773 705.993 329.647 705.812 329.402 705.738 329.262 705.595 328.994 705.54 328.844 705.438 328.561 705.405 328.402 705.344 328.11 705.333 327.947 705.313 327.651 705.326 327.487 705.347 327.194 705.382 327.031 705.443 326.748 705.5 326.59 705.598 326.32 705.677 326.17 705.809 325.921 705.908 325.782 706.07 325.555 706.188 325.43 706.377 325.231 706.512 325.122 706.723 324.952 706.871 324.863 707.1 324.725 707.26 324.657 707.503 324.552 707.671 324.506 707.923 324.437 708.096 324.414 708.353 324.38 z " style="fill: green; stroke: black; stroke-width: 0.000000; fill-type: evenodd"  fill-opacity="1.000000" />
   <path d="M 708.372 314.025 708.552 314.026 708.755 314.055 708.932 314.08 709.129 314.137 709.301 314.186 709.488 314.269 709.652 314.342 709.826 314.45 709.979 314.544 710.136 314.675 710.275 314.791 710.414 314.941 710.537 315.076 710.653 315.244 710.758 315.396 710.85 315.578 710.935 315.745 711.001 315.938 711.063 316.118 711.103 316.317 711.141 316.507 711.153 316.709 711.165 316.905 711.149 317.106 711.134 317.306 711.092 317.501 711.092 317.501 711.049 317.7 710.981 317.888 710.911 318.082 710.818 318.257 710.72 318.443 710.605 318.602 710.481 318.775 710.346 318.915 710.197 319.071 710.045 319.19 709.874 319.325 709.708 319.421 709.518 319.531 709.341 319.602 709.136 319.684 708.952 319.728 708.735 319.78 708.513 319.801 708.326 319.818 708.138 319.807 707.915 319.795 707.732 319.757 707.512 319.712 707.336 319.648 707.125 319.571 706.961 319.481 706.763 319.374 706.613 319.261 706.434 319.127 706.302 318.992 706.145 318.834 706.032 318.681 705.901 318.502 705.811 318.333 705.707 318.139 705.642 317.958 705.567 317.752 705.527 317.562 705.483 317.35 705.47 317.155 705.456 316.941 705.471 316.744 705.486 316.534 705.528 316.339 705.572 316.135 705.64 315.947 705.64 315.947 705.71 315.755 705.804 315.576 705.898 315.398 706.016 315.233 706.131 315.072 706.271 314.924 706.405 314.783 706.564 314.655 706.713 314.535 706.888 314.429 707.05 314.332 707.238 314.251 707.409 314.178 707.607 314.123 707.783 314.075 707.987 314.048 708.167 314.024 z " style="fill: green; stroke: black; stroke-width: 0.000000; fill-type: evenodd"  fill-opacity="1.000000" />
   <path d="M 720.509 298.124 720.697 298.126 720.979 298.171 721.16 298.199 721.453 298.285 721.62 298.334 721.917 298.461 722.065 298.524 722.361 298.688 722.487 298.759 722.773 298.959 722.876 299.032 723.147 299.264 723.228 299.334 723.477 299.594 723.537 299.657 723.76 299.94 723.801 299.993 723.992 300.294 724.019 300.337 724.175 300.65 724.191 300.682 724.307 301.001 724.315 301.023 724.391 301.343 724.394 301.355 724.427 301.67 724.427 301.675 724.42 301.916 724.42 301.916 724.418 301.979 724.383 302.173 724.365 302.263 724.275 302.51 724.27 302.525 724.262 302.539 724.137 302.762 724.092 302.82 723.971 302.974 723.934 303.008 723.831 303.104 723.788 303.144 723.772 303.16 723.652 303.239 723.539 303.315 723.518 303.325 723.498 303.335 723.392 303.382 723.273 303.436 723.266 303.438 723.26 303.439 723.26 303.439 722.983 303.518 722.978 303.519 722.669 303.563 722.656 303.565 722.642 303.565 722.311 303.57 721.981 303.536 721.946 303.533 721.614 303.462 721.565 303.452 721.237 303.345 721.175 303.325 720.856 303.185 720.779 303.151 720.476 302.981 720.387 302.93 720.105 302.734 720.005 302.664 719.75 302.446 719.642 302.354 719.419 302.118 719.31 302.003 719.121 301.756 719.016 301.618 718.867 301.365 718.774 301.207 718.666 300.953 718.591 300.777 718.527 300.53 718.478 300.342 718.457 300.106 718.441 299.914 718.464 299.694 718.484 299.506 718.55 299.306 718.608 299.131 718.715 298.957 718.811 298.802 718.957 298.658 719.086 298.53 719.268 298.419 719.425 298.323 719.639 298.247 719.815 298.185 720.057 298.149 720.244 298.12 z " style="fill: green; stroke: black; stroke-width: 0.000000; fill-type: evenodd"  fill-opacity="1.000000" />
   <path d="M 713.128 297.041 713.332 297.068 713.539 297.13 713.734 297.189 713.938 297.286 714.12 297.373 714.315 297.504 714.481 297.615 714.663 297.777 714.807 297.905 714.973 298.095 715.095 298.235 715.241 298.451 715.339 298.597 715.461 298.833 715.536 298.981 715.63 299.234 715.684 299.378 715.749 299.643 715.783 299.781 715.817 300.052 715.833 300.181 715.834 300.454 715.835 300.573 715.804 300.841 715.791 300.949 715.728 301.208 715.704 301.304 715.609 301.55 715.577 301.634 715.452 301.861 715.411 301.934 715.259 302.139 715.212 302.202 715.034 302.38 714.982 302.432 714.782 302.581 714.725 302.624 714.506 302.741 714.444 302.775 714.211 302.858 714.144 302.882 713.9 302.93 713.828 302.944 713.753 302.948 713.5 302.961 713.248 302.937 713.166 302.93 712.915 302.871 712.829 302.851 712.585 302.759 712.495 302.725 712.262 302.601 712.169 302.551 711.951 302.398 711.856 302.331 711.657 302.152 711.562 302.067 711.386 301.866 711.294 301.761 711.143 301.542 711.057 301.418 710.933 301.185 710.857 301.041 710.763 300.799 710.7 300.637 710.638 300.392 710.593 300.214 710.562 299.97 710.538 299.779 710.539 299.541 710.54 299.343 710.573 299.116 710.602 298.915 710.665 298.704 710.724 298.507 710.815 298.316 710.904 298.13 711.022 297.962 711.141 297.793 711.282 297.653 711.428 297.508 711.589 297.398 711.759 297.283 711.937 297.205 712.125 297.123 712.317 297.079 712.516 297.033 712.717 297.024 712.922 297.015 z " style="fill: green; stroke: black; stroke-width: 0.000000; fill-type: evenodd"  fill-opacity="1.000000" />
   <path d="M 711.548 283.954 712.041 284.022 712.117 284.044 712.596 284.183 712.668 284.216 713.125 284.424 713.191 284.467 713.621 284.743 713.68 284.794 714.076 285.135 714.127 285.193 714.483 285.597 714.524 285.659 714.727 285.962 714.804 285.943 714.872 285.935 715.405 285.877 715.476 285.879 716.006 285.893 716.077 285.905 716.595 285.99 716.665 286.012 717.161 286.164 717.23 286.196 717.696 286.412 717.76 286.454 718.188 286.729 718.247 286.779 718.631 287.107 718.683 287.165 719.016 287.54 719.06 287.606 719.337 288.021 719.372 288.092 719.589 288.539 719.613 288.615 719.767 289.087 719.781 289.165 719.868 289.655 719.871 289.734 719.891 290.232 719.883 290.31 719.834 290.809 719.816 290.885 719.698 291.376 719.67 291.448 719.486 291.921 719.449 291.988 719.199 292.437 719.154 292.496 718.843 292.911 718.792 292.963 718.424 293.336 718.367 293.38 717.947 293.702 717.886 293.737 717.422 294.003 717.358 294.028 716.857 294.23 716.793 294.246 716.507 294.318 716.215 294.816 716.187 294.853 715.817 295.325 715.782 295.359 715.36 295.768 715.32 295.798 714.854 296.139 714.809 296.163 714.307 296.433 714.258 296.45 713.726 296.645 713.675 296.655 713.121 296.773 712.553 296.811 712.502 296.814 712.451 296.81 711.877 296.768 711.828 296.757 711.257 296.634 711.211 296.617 710.65 296.413 710.608 296.392 710.067 296.108 710.031 296.082 709.519 295.72 709.489 295.692 709.015 295.256 708.991 295.227 708.566 294.72 708.548 294.692 708.396 294.456 708.118 294.673 708.113 294.676 707.514 295.022 707.509 295.024 706.867 295.283 706.862 295.284 706.166 295.458 706.399 295.706 706.501 295.856 706.665 296.096 706.747 296.265 706.874 296.525 706.934 296.71 706.934 296.71 707.022 296.981 707.058 297.18 707.109 297.454 707.12 297.662 707.134 297.933 707.119 298.146 707.1 298.407 707.057 298.621 707.009 298.867 706.94 299.078 706.866 299.305 706.772 299.508 706.675 299.714 706.556 299.904 706.442 300.087 706.301 300.261 706.172 300.42 706.01 300.574 705.87 300.707 705.691 300.838 705.543 300.947 705.35 301.052 705.196 301.135 704.992 301.212 704.835 301.272 704.624 301.319 704.465 301.355 704.305 301.367 704.092 301.384 703.879 301.37 703.721 301.359 703.513 301.314 703.358 301.281 703.158 301.206 703.008 301.15 702.82 301.047 702.676 300.969 702.503 300.84 702.366 300.738 702.211 300.585 702.085 300.461 701.951 300.288 701.837 300.141 701.726 299.951 701.627 299.782 701.54 299.579 701.459 299.389 701.398 299.176 701.338 298.966 701.304 298.748 701.268 298.521 701.26 298.303 701.252 298.061 701.27 297.846 701.292 297.594 701.336 297.387 701.39 297.129 701.457 296.934 701.546 296.676 701.635 296.496 701.76 296.245 701.868 296.084 702.029 295.847 702.154 295.708 702.347 295.492 702.486 295.377 702.711 295.191 702.86 295.101 703.067 294.977 702.822 294.858 702.817 294.854 702.244 294.468 702.24 294.464 701.726 294.001 701.722 293.996 701.313 293.509 701.218 293.565 700.914 293.702 700.781 293.762 700.465 293.867 700.318 293.916 699.996 293.988 699.838 294.024 699.517 294.064 699.349 294.084 699.035 294.092 698.861 294.095 698.56 294.071 698.384 294.057 698.102 294.004 697.927 293.97 697.667 293.889 697.499 293.837 697.266 293.73 697.108 293.659 696.905 293.53 696.762 293.44 696.592 293.292 696.468 293.184 696.332 293.019 696.231 292.897 696.131 292.719 696.056 292.584 695.993 292.395 695.994 292.395 695.946 292.251 695.922 292.055 695.904 291.905 695.919 291.704 695.93 291.552 695.983 291.349 696.023 291.199 696.116 290.999 696.183 290.853 696.313 290.658 696.406 290.521 696.573 290.335 696.687 290.209 696.889 290.036 697.021 289.923 697.255 289.767 697.402 289.669 697.665 289.533 697.821 289.453 698.11 289.34 698.272 289.277 698.582 289.191 698.745 289.145 699.07 289.089 699.231 289.061 699.565 289.036 699.721 289.025 700.057 289.034 700.204 289.039 700.547 289.085 700.624 288.818 700.626 288.812 700.667 288.72 700.67 288.712 700.685 288.669 700.7 288.623 700.796 288.431 700.908 288.18 700.911 288.175 700.974 288.074 700.997 288.03 701.03 287.966 701.144 287.802 701.277 287.589 701.281 287.584 701.37 287.478 701.401 287.435 701.449 287.367 701.577 287.232 701.726 287.054 701.73 287.05 701.84 286.951 701.844 286.948 701.896 286.893 701.946 286.841 702.084 286.732 702.244 286.587 702.249 286.584 702.383 286.494 702.454 286.437 702.482 286.416 702.505 286.398 702.655 286.31 702.822 286.197 702.828 286.195 702.983 286.119 703.113 286.043 703.165 286.021 703.242 285.99 703.242 285.99 703.283 285.973 703.449 285.892 703.455 285.89 703.618 285.837 703.754 285.782 703.92 285.739 704.113 285.676 704.119 285.675 704.119 285.675 704.265 285.649 704.304 285.639 704.375 285.621 704.414 285.612 704.597 285.591 704.8 285.555 704.806 285.555 704.956 285.549 705.081 285.535 705.272 285.538 705.497 285.531 705.503 285.531 705.631 285.545 705.746 285.547 705.841 285.561 705.966 285.58 706.191 285.604 706.197 285.605 706.197 285.605 706.294 285.629 706.352 285.638 706.392 285.644 706.399 285.645 706.642 285.716 706.867 285.772 706.873 285.775 706.951 285.806 706.99 285.817 707.03 285.829 707.284 285.941 707.463 286.013 707.685 285.706 707.73 285.658 708.141 285.218 708.195 285.174 708.64 284.804 708.701 284.765 709.173 284.467 709.241 284.436 709.732 284.211 709.805 284.189 710.306 284.038 710.383 284.026 710.888 283.948 710.967 283.948 711.469 283.943 z " style="fill: green; stroke: black; stroke-width: 0.000000; fill-type: evenodd"  fill-opacity="1.000000" />
   <path d="M 555.797 288.128 556.066 288.147 556.33 288.203 556.497 288.238 556.75 288.331 556.91 288.389 557.148 288.515 557.298 288.595 557.516 288.754 557.654 288.854 557.848 289.041 557.907 289.098 557.987 289.056 558.13 288.98 558.404 288.88 558.556 288.825 558.841 288.764 558.999 288.731 559.29 288.71 559.451 288.699 559.612 288.71 559.903 288.731 560.188 288.791 560.346 288.825 560.62 288.925 560.772 288.98 561.029 289.117 561.172 289.193 561.408 289.364 561.538 289.459 561.748 289.662 561.864 289.774 562.044 290.004 562.143 290.131 562.289 290.384 562.37 290.523 562.479 290.794 562.54 290.943 562.61 291.227 562.649 291.383 562.68 291.673 562.697 291.834 562.686 292.125 562.681 292.286 562.63 292.574 562.602 292.733 562.512 293.01 562.462 293.164 562.334 293.426 562.263 293.571 562.1 293.813 562.01 293.947 561.815 294.163 561.707 294.283 561.483 294.471 561.36 294.575 561.112 294.729 560.976 294.815 560.709 294.933 560.562 294.999 560.281 295.079 560.126 295.124 559.837 295.165 559.677 295.187 559.298 295.187 559.253 295.254 559.071 295.456 558.958 295.582 558.749 295.757 558.619 295.865 558.388 296.01 558.245 296.099 557.996 296.21 557.842 296.279 557.58 296.354 557.417 296.401 557.147 296.439 556.98 296.462 556.539 296.462 556.269 296.424 556.102 296.401 555.84 296.325 555.677 296.279 555.428 296.168 555.274 296.099 555.043 295.955 554.899 295.865 554.691 295.69 554.561 295.582 554.379 295.379 554.266 295.254 554.114 295.028 554.019 294.888 553.9 294.643 553.826 294.491 553.741 294.232 553.689 294.071 553.642 293.803 553.622 293.69 553.568 293.645 553.438 293.536 553.258 293.335 553.144 293.209 552.993 292.985 552.898 292.844 552.78 292.602 552.705 292.449 552.622 292.193 552.569 292.031 552.522 291.765 552.493 291.598 552.483 291.328 552.478 291.158 552.506 290.89 552.523 290.721 552.589 290.459 552.63 290.294 552.731 290.044 552.795 289.887 552.929 289.653 553.014 289.506 553.181 289.293 553.285 289.159 553.479 288.972 553.602 288.854 553.82 288.695 553.957 288.595 554.195 288.469 554.346 288.389 554.599 288.296 554.759 288.238 555.023 288.182 555.189 288.147 555.458 288.128 555.628 288.116 z " style="fill: green; stroke: black; stroke-width: 0.000000; fill-type: evenodd"  fill-opacity="1.000000" />
   <path d="M 731.881 291.28 732.258 291.284 732.364 291.297 732.73 291.339 732.835 291.363 733.185 291.441 733.287 291.476 733.613 291.589 733.709 291.635 734.006 291.779 734.093 291.836 734.356 292.008 734.432 292.075 734.432 292.075 734.656 292.272 734.719 292.347 734.901 292.565 734.95 292.647 735.086 292.881 735.118 292.969 735.207 293.216 735.222 293.307 735.262 293.561 735.259 293.653 735.25 293.91 735.229 294.001 735.17 294.257 735.132 294.345 735.025 294.595 734.972 294.678 734.818 294.916 734.75 294.993 734.552 295.216 734.472 295.284 734.232 295.488 734.142 295.546 733.866 295.726 733.768 295.774 733.459 295.927 733.356 295.964 733.02 296.085 732.915 296.111 732.557 296.199 732.452 296.214 732.08 296.266 731.977 296.27 731.598 296.285 731.499 296.278 731.12 296.254 731.027 296.239 730.655 296.176 730.569 296.152 730.212 296.051 730.135 296.019 729.801 295.881 729.733 295.843 729.429 295.671 729.371 295.628 729.103 295.424 729.055 295.376 728.829 295.145 728.793 295.094 728.614 294.84 728.588 294.785 728.46 294.513 728.446 294.457 728.372 294.173 728.369 294.116 728.351 293.825 728.359 293.768 728.397 293.476 728.416 293.419 728.51 293.133 728.539 293.077 728.686 292.802 728.727 292.749 728.924 292.491 728.975 292.441 729.217 292.204 729.279 292.159 729.561 291.949 729.632 291.908 729.949 291.729 730.029 291.694 730.372 291.549 730.461 291.522 730.824 291.412 730.92 291.393 731.295 291.321 731.396 291.312 731.776 291.278 z " style="fill: green; stroke: black; stroke-width: 0.000000; fill-type: evenodd"  fill-opacity="1.000000" />
   <path d="M 687.841 291.133 688.069 291.157 688.185 291.186 688.407 291.242 688.518 291.286 688.731 291.372 688.834 291.432 689.033 291.547 689.127 291.62 689.308 291.761 689.391 291.847 689.55 292.012 689.62 292.109 689.755 292.294 689.811 292.4 689.919 292.602 689.959 292.715 690.038 292.93 690.063 293.047 690.11 293.271 690.119 293.39 690.135 293.619 690.126 293.738 690.11 293.967 690.086 294.084 690.038 294.308 689.997 294.421 689.919 294.636 689.863 294.741 689.755 294.944 689.685 295.041 689.55 295.226 689.467 295.312 689.308 295.477 689.213 295.551 689.033 295.692 688.929 295.751 688.731 295.866 688.62 295.911 688.407 295.997 688.292 296.026 688.069 296.081 687.95 296.094 687.722 296.118 687.603 296.113 687.374 296.105 687.256 296.085 687.03 296.045 686.916 296.008 686.698 295.937 686.591 295.885 686.385 295.784 686.286 295.717 686.096 295.589 686.007 295.509 685.836 295.356 685.76 295.264 685.612 295.089 685.549 294.987 685.427 294.793 685.379 294.684 685.286 294.474 685.253 294.359 685.189 294.139 685.173 294.021 685.141 293.794 685.141 293.445 685.158 293.326 685.189 293.099 685.222 292.985 685.286 292.764 685.334 292.655 685.427 292.445 685.491 292.344 685.612 292.15 685.689 292.058 685.836 291.883 685.925 291.803 686.096 291.649 686.195 291.582 686.385 291.454 686.492 291.402 686.698 291.301 686.812 291.264 687.03 291.193 687.148 291.173 687.374 291.133 687.493 291.129 687.722 291.121 z " style="fill: green; stroke: black; stroke-width: 0.000000; fill-type: evenodd"  fill-opacity="1.000000" />
   <path d="M 744.78 289.726 745.206 289.763 745.254 289.773 745.657 289.853 745.705 289.869 746.078 289.99 746.124 290.012 746.461 290.171 746.502 290.199 746.797 290.394 746.833 290.427 747.081 290.652 747.111 290.69 747.307 290.942 747.328 290.984 747.47 291.258 747.483 291.303 747.568 291.593 747.572 291.641 747.598 291.942 747.593 291.99 747.56 292.297 747.546 292.344 747.454 292.651 747.432 292.696 747.283 292.998 747.254 293.04 747.051 293.331 747.015 293.369 746.76 293.643 746.721 293.676 746.418 293.928 746.376 293.956 746.031 294.181 745.987 294.203 745.606 294.397 745.562 294.414 745.152 294.571 745.109 294.582 744.677 294.7 744.637 294.707 744.191 294.782 744.155 294.785 744.155 294.785 743.703 294.815 743.671 294.814 743.223 294.799 743.195 294.795 742.759 294.733 742.736 294.727 742.322 294.619 742.303 294.612 741.919 294.46 741.905 294.452 741.905 294.452 741.559 294.258 741.548 294.249 741.248 294.017 741.24 294.008 740.993 293.742 740.987 293.733 740.798 293.438 740.794 293.429 740.667 293.112 740.665 293.103 740.603 292.769 740.603 292.76 740.607 292.416 740.609 292.406 740.679 292.061 740.683 292.05 740.817 291.709 740.824 291.698 740.824 291.698 741.02 291.369 741.029 291.357 741.282 291.046 741.295 291.033 741.599 290.746 741.616 290.733 741.964 290.477 741.987 290.464 742.372 290.242 742.398 290.23 742.812 290.046 742.844 290.036 743.278 289.894 743.315 289.886 743.76 289.788 743.801 289.783 744.248 289.73 744.292 289.73 744.733 289.722 z " style="fill: green; stroke: black; stroke-width: 0.000000; fill-type: evenodd"  fill-opacity="1.000000" />
   <path d="M 752.102 287.82 752.566 287.825 752.591 287.828 753.036 287.879 753.064 287.885 753.482 287.981 753.513 287.992 753.897 288.13 753.928 288.146 754.272 288.322 754.301 288.342 754.599 288.553 754.625 288.579 754.873 288.82 754.894 288.85 755.087 289.117 755.103 289.15 755.238 289.437 755.247 289.473 755.323 289.776 755.325 289.813 755.34 290.126 755.335 290.163 755.289 290.48 755.277 290.516 755.17 290.832 755.152 290.866 754.987 291.175 754.964 291.205 754.742 291.502 754.717 291.528 754.441 291.807 754.414 291.828 754.089 292.083 754.062 292.1 753.694 292.326 753.668 292.338 753.262 292.53 753.239 292.538 752.802 292.693 752.784 292.697 752.324 292.809 752.31 292.811 752.31 292.811 751.836 292.878 751.828 292.879 751.348 292.898 751.345 292.898 751.345 292.898 751.18 292.888 751.106 292.889 750.986 292.874 750.773 292.848 750.771 292.848 750.767 292.847 750.555 292.789 750.451 292.761 750.342 292.716 750.148 292.634 750.134 292.626 750.098 292.605 750.098 292.605 749.93 292.505 749.868 292.468 749.735 292.363 749.615 292.269 749.548 292.201 749.392 292.041 749.373 292.014 749.266 291.871 749.212 291.799 749.203 291.786 749.072 291.551 749.049 291.511 748.955 291.274 748.932 291.218 748.867 290.963 748.855 290.913 748.819 290.617 748.817 290.6 748.817 290.515 748.82 290.283 748.829 290.224 748.866 289.966 748.917 289.786 748.954 289.656 749.05 289.433 749.05 289.433 749.083 289.357 749.114 289.306 749.254 289.076 749.443 288.841 749.463 288.817 749.488 288.793 749.709 288.587 749.903 288.449 749.987 288.392 750.123 288.322 750.212 288.277 750.211 288.273 750.257 288.254 750.293 288.236 750.347 288.217 750.637 288.097 750.642 288.096 750.642 288.096 751.108 287.958 751.118 287.956 751.592 287.865 751.608 287.863 752.081 287.82 z " style="fill: green; stroke: black; stroke-width: 0.000000; fill-type: evenodd"  fill-opacity="1.000000" />
   <path d="M 539.468 284.715 539.687 284.73 539.901 284.776 540.002 284.797 540.208 284.872 540.305 284.907 540.498 285.01 540.589 285.059 540.767 285.187 540.85 285.248 541.008 285.4 541.082 285.472 541.217 285.645 541.28 285.726 541.39 285.915 541.441 286.005 541.523 286.208 541.562 286.304 541.615 286.516 541.64 286.616 541.663 286.834 541.674 286.937 541.666 287.156 541.662 287.259 541.624 287.474 541.606 287.576 541.539 287.784 541.507 287.882 541.411 288.079 541.366 288.172 541.243 288.354 541.185 288.439 541.039 288.602 540.97 288.679 540.802 288.819 540.723 288.886 540.537 289.002 540.45 289.056 540.25 289.146 540.155 289.188 539.945 289.248 539.846 289.276 539.629 289.307 539.527 289.321 539.204 289.321 538.987 289.291 538.885 289.276 538.675 289.216 538.576 289.188 538.375 289.098 538.281 289.056 538.096 288.94 538.008 288.886 537.84 288.745 537.761 288.679 537.615 288.516 537.546 288.439 537.423 288.258 537.365 288.172 537.269 287.975 537.224 287.882 537.156 287.674 537.125 287.576 537.087 287.36 537.069 287.259 537.061 287.04 537.057 286.937 537.08 286.719 537.091 286.616 537.144 286.404 537.169 286.304 537.251 286.101 537.29 286.005 537.399 285.815 537.451 285.726 537.586 285.553 537.649 285.472 537.807 285.32 537.881 285.248 538.058 285.119 538.142 285.059 538.335 284.956 538.426 284.907 538.632 284.833 538.729 284.797 538.943 284.752 539.044 284.73 539.263 284.715 539.365 284.708 z " style="fill: green; stroke: black; stroke-width: 0.000000; fill-type: evenodd"  fill-opacity="1.000000" />
   <path d="M 736.695 283.909 737.11 283.93 737.169 283.94 737.583 284.004 737.646 284.021 738.051 284.127 738.116 284.151 738.504 284.296 738.57 284.329 738.933 284.508 738.998 284.549 739.331 284.76 739.393 284.809 739.689 285.045 739.746 285.102 740.001 285.359 740.05 285.422 740.261 285.695 740.3 285.764 740.463 286.048 740.491 286.12 740.603 286.409 740.618 286.484 740.679 286.772 740.681 286.847 740.689 287.13 740.677 287.204 740.633 287.477 740.608 287.546 740.513 287.804 740.474 287.868 740.33 288.107 740.279 288.163 740.088 288.378 740.027 288.426 739.792 288.613 739.722 288.652 739.447 288.807 739.371 288.836 739.06 288.956 738.981 288.976 738.64 289.058 738.559 289.068 738.193 289.11 738.112 289.111 737.729 289.112 737.651 289.104 737.257 289.063 737.183 289.048 736.785 288.965 736.718 288.943 736.324 288.818 736.263 288.792 735.882 288.627 735.829 288.598 735.467 288.395 735.422 288.363 735.088 288.126 735.051 288.093 734.752 287.826 734.723 287.792 734.466 287.5 734.444 287.467 734.235 287.154 734.219 287.123 734.063 286.797 734.054 286.766 733.955 286.434 733.951 286.405 733.911 286.072 733.913 286.045 733.934 285.719 733.941 285.693 734.023 285.381 734.034 285.358 734.175 285.065 734.191 285.044 734.388 284.778 734.409 284.758 734.658 284.524 734.684 284.507 734.979 284.309 735.01 284.294 735.345 284.137 735.382 284.125 735.75 284.011 735.793 284.003 736.184 283.934 736.233 283.931 736.641 283.907 z " style="fill: green; stroke: black; stroke-width: 0.000000; fill-type: evenodd"  fill-opacity="1.000000" />
   <path d="M 766.602 283.046 766.836 283.053 767.07 283.087 767.314 283.123 767.536 283.183 767.786 283.251 767.991 283.335 768.239 283.436 768.424 283.541 768.662 283.676 768.824 283.8 769.044 283.969 769.18 284.108 769.374 284.309 769.481 284.46 769.641 284.688 769.717 284.849 769.836 285.099 769.881 285.265 769.953 285.531 769.966 285.699 769.987 285.971 769.968 286.138 769.936 286.409 769.885 286.571 769.803 286.831 769.721 286.986 769.592 287.228 769.48 287.371 769.309 287.589 769.169 287.717 768.964 287.904 768.798 288.015 768.567 288.168 768.378 288.258 768.13 288.376 767.921 288.443 767.665 288.525 767.44 288.567 767.184 288.615 766.948 288.629 766.698 288.645 766.456 288.632 766.218 288.619 765.973 288.577 765.752 288.539 765.511 288.469 765.31 288.41 765.077 288.312 764.898 288.236 764.678 288.112 764.521 288.023 764.32 287.874 764.185 287.775 764.006 287.605 763.893 287.498 763.739 287.309 763.648 287.198 763.523 286.993 763.453 286.878 763.358 286.661 763.307 286.545 763.246 286.32 763.214 286.202 763.187 285.973 763.172 285.855 763.18 285.626 763.183 285.509 763.225 285.283 763.246 285.167 763.321 284.949 763.321 284.949 763.361 284.835 763.468 284.629 763.525 284.517 763.662 284.326 763.739 284.218 763.903 284.045 764 283.942 764.188 283.79 764.305 283.695 764.514 283.566 764.652 283.48 764.876 283.376 765.036 283.302 765.272 283.226 765.453 283.167 765.696 283.118 765.897 283.077 766.142 283.057 766.36 283.038 z " style="fill: green; stroke: black; stroke-width: 0.000000; fill-type: evenodd"  fill-opacity="1.000000" />
   <path d="M 526.347 283.932 526.432 283.938 526.516 283.955 526.721 283.999 526.802 284.028 526.999 284.1 527.074 284.14 527.26 284.239 527.329 284.289 527.499 284.413 527.56 284.472 527.711 284.618 527.764 284.685 527.893 284.851 527.936 284.925 528.041 285.107 528.073 285.186 528.152 285.38 528.172 285.463 528.223 285.667 528.232 285.752 528.254 285.961 528.251 286.046 528.244 286.256 528.229 286.34 528.193 286.547 528.166 286.628 528.101 286.828 528.064 286.905 527.972 287.094 527.924 287.165 527.807 287.339 527.75 287.402 527.609 287.558 527.543 287.613 527.382 287.748 527.31 287.793 527.132 287.905 527.054 287.94 526.862 288.025 526.78 288.049 526.578 288.106 526.494 288.118 526.285 288.148 525.99 288.148 525.905 288.136 525.697 288.106 525.615 288.083 525.413 288.025 525.335 287.99 525.143 287.905 525.071 287.86 524.893 287.748 524.828 287.693 524.667 287.558 524.609 287.495 524.469 287.339 524.421 287.268 524.304 287.094 524.266 287.017 524.174 286.828 524.148 286.747 524.083 286.547 524.068 286.463 524.031 286.256 524.028 286.171 524.021 285.961 524.03 285.876 524.052 285.667 524.073 285.584 524.123 285.38 524.155 285.301 524.234 285.107 524.277 285.033 524.382 284.851 524.434 284.783 524.564 284.618 524.625 284.559 524.776 284.413 524.845 284.362 525.015 284.239 525.091 284.199 525.276 284.1 525.356 284.071 525.554 283.999 525.637 283.981 525.843 283.938 525.928 283.932 526.138 283.917 z " style="fill: green; stroke: black; stroke-width: 0.000000; fill-type: evenodd"  fill-opacity="1.000000" />
   <path d="M 565.027 280.062 565.052 280.064 565.137 280.082 565.324 280.123 565.325 280.124 565.587 280.221 565.589 280.222 565.837 280.357 565.84 280.359 566.069 280.528 566.073 280.532 566.279 280.733 566.285 280.74 566.464 280.967 566.47 280.978 566.619 281.229 566.625 281.243 566.741 281.513 566.746 281.532 566.827 281.814 566.83 281.838 566.874 282.129 566.875 282.157 566.881 282.45 566.878 282.483 566.847 282.772 566.838 282.808 566.771 283.087 566.756 283.126 566.654 283.39 566.632 283.43 566.497 283.674 566.468 283.713 566.303 283.932 566.266 283.968 566.075 284.158 566.032 284.19 565.818 284.346 565.77 284.372 565.538 284.492 565.485 284.509 565.24 284.591 565.184 284.6 564.932 284.641 564.62 284.641 564.563 284.632 564.311 284.591 564.257 284.573 564.257 284.573 564.014 284.492 563.964 284.466 563.733 284.346 563.689 284.313 563.477 284.158 563.439 284.12 563.249 283.932 563.218 283.891 563.055 283.674 563.032 283.632 562.898 283.391 562.882 283.349 562.781 283.087 562.771 283.048 562.705 282.772 562.701 282.735 562.67 282.45 562.671 282.417 562.678 282.129 562.682 282.101 562.725 281.814 562.732 281.792 562.811 281.513 562.819 281.495 562.933 281.229 562.941 281.215 563.088 280.967 563.095 280.958 563.272 280.733 563.279 280.727 563.483 280.528 563.487 280.525 563.715 280.357 563.718 280.355 563.964 280.221 563.966 280.221 564.227 280.123 564.228 280.123 564.415 280.082 564.482 280.068 564.499 280.064 564.733 280.047 564.776 280.044 z " style="fill: green; stroke: black; stroke-width: 0.000000; fill-type: evenodd"  fill-opacity="1.000000" />
   <path d="M 704.931 276.877 704.964 276.877 705.228 276.919 705.263 276.924 705.52 277.003 705.558 277.014 705.805 277.128 705.845 277.147 706.078 277.295 706.121 277.322 706.335 277.5 706.379 277.537 706.571 277.743 706.616 277.79 706.783 278.019 706.827 278.079 706.965 278.327 707.006 278.4 707.113 278.661 707.149 278.747 707.224 279.017 707.252 279.116 707.294 279.39 707.311 279.5 707.319 279.771 707.322 279.892 707.297 280.155 707.284 280.282 707.226 280.533 707.195 280.664 707.105 280.896 707.055 281.026 706.936 281.236 706.866 281.359 706.721 281.543 706.632 281.655 706.463 281.808 706.356 281.905 706.168 282.024 706.045 282.101 705.842 282.184 705.708 282.238 705.494 282.282 705.352 282.312 705.207 282.315 704.987 282.32 704.765 282.285 704.623 282.263 704.404 282.19 704.269 282.144 704.058 282.033 703.934 281.967 703.736 281.82 703.625 281.737 703.444 281.557 703.349 281.462 703.189 281.252 703.112 281.15 702.977 280.914 702.917 280.809 702.81 280.552 702.767 280.448 702.691 280.175 702.663 280.075 702.62 279.791 702.605 279.698 702.596 279.409 702.593 279.325 702.617 279.036 702.624 278.962 702.683 278.679 702.696 278.615 702.789 278.344 702.807 278.289 702.931 278.035 702.954 277.989 703.107 277.757 703.132 277.72 703.312 277.513 703.339 277.483 703.543 277.305 703.57 277.282 703.795 277.137 703.823 277.119 704.064 277.008 704.092 276.995 704.345 276.922 704.345 276.922 704.375 276.914 704.636 276.878 704.667 276.874 z " style="fill: green; stroke: black; stroke-width: 0.000000; fill-type: evenodd"  fill-opacity="1.000000" />
   <path d="M 560.634 279.563 560.726 279.574 560.834 279.592 560.968 279.621 561.021 279.635 561.087 279.693 561.172 279.768 561.196 279.801 561.196 279.801 561.271 279.902 561.287 279.934 561.336 280.035 561.352 280.088 561.377 280.169 561.391 280.258 561.398 280.302 561.402 280.421 561.401 280.436 561.4 280.443 561.4 280.443 561.375 280.569 561.349 280.653 561.334 280.703 561.304 280.777 561.265 280.836 561.215 280.903 561.164 280.97 561.119 281.021 561.004 281.103 560.89 281.177 560.696 281.237 560.638 281.254 560.379 281.254 560.358 281.248 560.321 281.237 560.198 281.199 560.127 281.177 560.066 281.137 560.013 281.104 559.96 281.066 559.898 281.021 559.869 280.988 559.853 280.97 559.802 280.902 559.752 280.836 559.738 280.816 559.713 280.777 559.692 280.724 559.683 280.703 559.66 280.627 559.66 280.627 559.642 280.569 559.634 280.529 559.616 280.436 559.616 280.432 559.615 280.421 559.618 280.326 559.619 280.302 559.632 280.218 559.64 280.169 559.659 280.107 559.68 280.035 559.702 279.992 559.746 279.902 559.773 279.866 559.845 279.768 559.923 279.699 559.996 279.635 560.048 279.621 560.183 279.592 560.291 279.574 560.383 279.563 560.467 279.558 560.549 279.558 z " style="fill: green; stroke: black; stroke-width: 0.000000; fill-type: evenodd"  fill-opacity="1.000000" />
   <path d="M 476.253 331.475 476.34 331.739 487.19 364.575 491.904 378.842 481.922 382.636 475.531 385.065 475.531 384.893 475.531 379.736 475.531 379.577 475.531 379.431 475.531 379.3 475.531 379.096 475.531 331.655 475.531 329.291 z " style="fill: blue; stroke: black; stroke-width: 0.000000; fill-type: evenodd"  fill-opacity="1.000000" />
   <path d="M 686.282 258.891 689.55 264.227 691.231 266.969 691.939 268.125 693.033 269.755 695.735 273.78 695.544 277.934 695.505 278.792 693.679 278.814 691.763 278.836 690.242 278.854 689.082 278.868 688.238 278.878 678.18 278.997 678.18 291.605 678.18 300.037 683.759 299.972 692.437 299.869 692.437 302.246 692.437 302.875 692.437 304.566 692.437 305.881 692.525 305.88 692.844 305.876 693.506 305.868 694.353 305.858 694.286 307.913 694.254 308.865 693.115 314.973 692.62 317.626 691.345 325.403 690.764 328.945 686.775 328.993 686.584 328.995 681.238 329.058 680.627 329.065 674.069 329.142 672.971 329.155 666.784 329.228 665.571 329.243 661.158 329.295 657.163 329.342 655.531 329.361 650.772 329.417 648.246 329.447 643.999 329.497 641.077 329.531 638.085 329.567 635.54 329.597 632.887 329.628 630.173 329.66 627.095 329.696 623.236 329.742 620.672 329.772 616.633 329.82 614.894 329.84 611.529 329.88 609.696 329.901 605.364 329.953 604.154 329.967 600.604 330.009 597.148 330.049 596.261 330.06 591.554 330.115 590.635 330.126 582.047 330.228 579.027 330.263 576.625 330.292 574.437 330.317 571.538 330.352 569.571 330.375 566.987 330.405 564.839 330.43 563.163 330.45 562.999 330.452 562.093 329.61 561.995 329.518 560.666 328.267 559.363 329.631 559.275 329.722 558.523 330.505 558.078 330.51 551.786 330.584 548.458 330.624 544.637 330.669 540.524 330.717 537.774 330.75 534.945 330.783 531.809 330.82 528.866 330.855 526.921 330.878 524.59 330.905 523.046 330.923 521.62 330.94 520.028 330.959 518.634 330.975 517.697 330.986 516.859 330.996 515.905 331.008 515.267 331.015 514.534 331.024 513.916 331.031 513.487 331.036 513.123 331.04 512.695 331.045 512.348 331.049 512.103 331.052 506.081 331.123 506.081 302.289 506.081 302.067 536.013 301.714 539.686 301.671 539.686 302.124 539.686 303.502 539.686 304.676 547.841 304.58 562.773 304.404 563.452 306.459 563.762 307.398 563.864 307.397 563.878 307.397 564.833 307.386 566.596 307.365 568.639 307.341 570.46 307.319 571.847 307.303 572.811 307.292 573.445 307.284 573.846 307.28 574.089 307.277 574.226 307.275 574.31 307.274 574.31 304.65 574.31 304.268 574.31 302.152 574.31 301.262 584.664 301.14 588.567 301.094 588.567 280.053 580.495 280.149 579.818 280.157 578.886 280.168 577.666 280.182 576.128 280.2 574.257 280.222 572.058 280.248 569.571 280.277 566.88 280.309 564.889 280.333 565.331 277.846 565.78 275.312 566.302 275.027 566.317 275.018 566.363 274.993 566.418 274.951 568.61 273.29 568.734 273.195 570.483 271.515 570.697 271.311 571.39 270.645 572.39 269.493 572.91 268.894 574.475 267.091 575.113 266.242 576.059 264.982 578.214 262.111 579.378 260.371 579.42 260.309 579.545 260.121 583.73 260.071 587.31 260.029 588.484 260.015 589.547 260.003 592.016 259.974 593.966 259.951 594.619 259.943 597.847 259.905 598.526 259.897 600.124 259.878 601.357 259.864 601.776 259.859 602.121 259.855 602.95 259.845 603.548 259.838 603.755 259.835 677.255 258.969 679.434 258.943 686.238 258.863 686.266 258.862 z " style="fill: blue; stroke: black; stroke-width: 0.000000; fill-type: evenodd"  fill-opacity="1.000000" />
   <path d="M 760.666 303.147 760.666 328.121 746.367 328.29 745.662 328.298 744.644 328.31 743.379 328.325 742.275 328.338 740.964 328.354 739.014 328.376 736.636 328.405 734.486 328.43 731.168 328.469 728.102 328.505 725.249 328.539 724.767 325.969 723.22 317.723 722.634 314.934 722.378 313.719 721.291 308.547 721.242 307.677 721.122 305.543 723.82 305.511 725.46 305.492 726.273 305.482 726.703 305.477 726.928 305.474 727.061 305.473 727.061 302.986 727.061 302.467 727.061 302.274 727.061 299.461 734.451 299.374 760.666 299.065 z " style="fill: blue; stroke: black; stroke-width: 0.000000; fill-type: evenodd"  fill-opacity="1.000000" />
   <path d="M 540.272 260.606 541.221 261.96 541.505 262.365 542.493 263.622 543.245 264.58 545.387 267.307 546.714 268.773 547.1 269.199 548.572 270.823 549.295 271.49 549.517 271.695 551.298 273.336 551.429 273.431 553.654 275.05 553.719 275.097 553.74 275.108 554.386 275.447 554.929 278.169 555.383 280.445 543.08 280.59 531.193 280.73 523.669 280.819 518.848 280.876 515.668 280.913 513.507 280.938 512 280.956 510.924 280.969 510.143 280.978 509.568 280.985 509.142 280.99 508.826 280.994 506.081 281.026 506.081 269.469 506.081 267.421 506.793 266.712 512.62 260.91 521.392 260.807 521.562 260.805 521.796 260.802 522.475 260.794 523.412 260.783 523.801 260.778 524.271 260.773 525.654 260.756 527.432 260.735 528.185 260.726 530.57 260.698 531.59 260.686 532.716 260.673 536.123 260.633 540.257 260.584 z " style="fill: blue; stroke: black; stroke-width: 0.000000; fill-type: evenodd"  fill-opacity="1.000000" />
   <path d="M 759.463 268.259 760.666 269.428 760.666 272.817 760.666 278.024 751.28 278.135 750.199 278.147 748.742 278.164 746.776 278.188 744.103 278.219 740.425 278.263 735.27 278.323 727.882 278.41 719.334 278.511 719.284 277.775 719.025 274.03 718.988 273.602 718.98 273.506 719.032 273.434 719.036 273.427 719.053 273.404 719.088 273.349 722.271 268.34 722.777 267.543 724.37 264.792 725.058 263.605 728.091 258.369 728.204 258.368 730.752 258.338 731.643 258.327 732.436 258.318 734.383 258.295 734.997 258.288 736.504 258.27 737.673 258.256 738.085 258.251 738.406 258.247 739.201 258.238 739.733 258.232 739.922 258.23 740.031 258.228 740.304 258.225 749.035 258.122 z " style="fill: blue; stroke: black; stroke-width: 0.000000; fill-type: evenodd"  fill-opacity="1.000000" />
   <path d="M 565.027 280.062 565.052 280.064 565.137 280.082 565.324 280.123 565.325 280.124 565.587 280.221 565.589 280.222 565.773 280.322 564.889 280.333 564.938 280.056 z" style="fill: red; stroke: black; stroke-width: 0.000000; fill-type: evenodd"  fill-opacity="1.000000" />
</svg>
