<?xml version="1.0" encoding="UTF-8" standalone="yes"?>
<!DOCTYPE svg PUBLIC "-//W3C//DTD SVG 1.0//EN" "http://www.w3.org/TR/2001/REC-SVG-20010904/DTD/svg10.dtd">
<svg height="2000" width="2000" xmlns="http://www.w3.org/2000/svg" xmlns:svg="http://www.w3.org/2000/svg" xmlns:xlink="http://www.w3.org/1999/xlink">
   <marker id="endArrow" markerHeight="8" markerUnits="strokeWidth" markerWidth="10" orient="auto" refX="1" refY="5" viewBox="0 0 10 10">
      <polyline fill="darkblue" points="0,0 10,5 0,10 1,5" />
   </marker>
<rect fill='white' stroke='none' x='0' y='0' width='2000.000000' height='2000.000000'/>
   <path d="M 564.113 364.747 564.33 364.771 564.809 364.917 565.023 364.983 565.489 365.221 565.693 365.326 566.138 365.652 566.33 365.793 566.744 366.202 566.919 366.374 567.295 366.861 567.449 367.06 567.78 367.615 567.911 367.835 568.189 368.45 568.295 368.686 568.513 369.35 568.594 369.595 568.747 370.297 568.801 370.545 568.885 371.271 568.913 371.517 568.925 372.254 568.928 372.493 568.865 373.226 568.846 373.453 568.708 374.167 568.667 374.379 568.456 375.059 568.396 375.253 568.115 375.884 568.037 376.057 567.69 376.625 567.598 376.776 567.193 377.27 567.088 377.397 566.63 377.804 566.515 377.906 566.016 378.218 565.892 378.295 565.361 378.504 565.231 378.555 564.678 378.657 564.544 378.682 563.981 378.674 563.844 378.672 563.284 378.556 563.146 378.527 562.599 378.304 562.462 378.249 561.941 377.926 561.807 377.843 561.321 377.427 561.193 377.317 560.752 376.818 560.632 376.682 560.244 376.111 560.134 375.95 559.807 375.32 559.711 375.135 559.449 374.46 559.369 374.253 559.176 373.547 559.115 373.321 558.995 372.599 558.955 372.358 558.907 371.633 558.891 371.382 558.916 370.669 558.925 370.411 559.02 369.724 559.056 369.466 559.218 368.817 559.281 368.564 559.506 367.964 559.597 367.723 559.879 367.183 559.997 366.959 560.33 366.488 560.472 366.287 560.851 365.893 561.015 365.721 561.431 365.409 561.614 365.271 562.059 365.046 562.258 364.946 562.724 364.812 562.934 364.752 563.413 364.711 563.63 364.693 z " style="fill: green; stroke: black; stroke-width: 0.000000; fill-type: evenodd"  fill-opacity="1.000000" />
   <path d="M 714.631 337.707 715.157 337.764 715.392 337.829 715.922 337.974 716.162 338.078 716.685 338.305 716.925 338.449 717.43 338.753 717.665 338.936 718.143 339.308 718.369 339.529 718.809 339.959 719.021 340.216 719.417 340.694 719.61 340.983 719.954 341.499 720.122 341.816 720.409 342.357 720.548 342.698 720.774 343.253 720.879 343.61 721.042 344.168 721.108 344.535 721.207 345.085 721.232 345.454 721.267 345.986 721.247 346.349 721.219 346.854 721.154 347.201 721.066 347.671 720.955 347.995 720.81 348.422 720.655 348.715 720.455 349.091 720.259 349.346 720.01 349.667 719.776 349.876 719.482 350.138 719.215 350.297 718.882 350.495 718.588 350.599 718.221 350.73 717.907 350.778 717.513 350.839 717.187 350.831 716.771 350.82 716.439 350.757 716.01 350.674 715.68 350.557 715.244 350.403 714.924 350.238 714.488 350.012 714.185 349.804 713.757 349.51 713.476 349.264 713.066 348.905 712.812 348.629 712.427 348.21 712.205 347.911 711.854 347.439 711.666 347.124 711.356 346.605 711.205 346.282 710.945 345.726 710.832 345.402 710.628 344.818 710.552 344.5 710.411 343.9 710.373 343.593 710.298 342.989 710.296 342.697 710.292 342.102 710.324 341.832 710.393 341.258 710.457 341.011 710.598 340.472 710.692 340.253 710.904 339.76 711.025 339.571 711.305 339.135 711.451 338.978 711.793 338.611 711.961 338.488 712.358 338.196 712.545 338.108 712.99 337.9 713.194 337.848 713.676 337.727 713.894 337.713 714.403 337.682 z " style="fill: green; stroke: black; stroke-width: 0.000000; fill-type: evenodd"  fill-opacity="1.000000" />
   <path d="M 773.532 281.377 774.185 281.446 774.225 281.456 774.862 281.615 774.9 281.63 775.509 281.876 775.544 281.896 776.113 282.225 776.145 282.25 776.663 282.654 776.691 282.684 777.147 283.156 777.171 283.189 777.557 283.72 777.576 283.756 777.885 284.336 777.899 284.375 778.123 284.992 778.132 285.032 778.268 285.674 778.271 285.715 778.317 286.37 778.314 286.411 778.268 287.066 778.26 287.106 778.123 287.748 778.109 287.787 777.885 288.404 777.865 288.44 777.557 289.019 777.533 289.053 777.147 289.584 777.119 289.613 776.663 290.086 776.63 290.111 776.113 290.515 776.077 290.536 775.509 290.864 775.471 290.879 774.862 291.125 774.822 291.135 774.185 291.294 774.145 291.298 773.491 291.367 773.45 291.365 773.38 291.363 773.38 291.495 773.317 291.962 773.264 292.352 773.131 292.856 773.034 293.224 772.825 293.759 772.695 294.095 772.406 294.652 772.252 294.947 771.88 295.515 771.716 295.764 771.259 296.329 771.096 296.531 770.557 297.077 770.404 297.231 769.788 297.741 769.654 297.852 768.971 298.308 768.86 298.382 768.122 298.766 768.038 298.809 767.261 299.105 767.204 299.127 766.406 299.32 766.374 299.328 765.575 299.408 765.565 299.409 765.423 299.401 765.363 299.406 765.076 299.385 764.82 299.368 764.621 299.325 764.208 299.314 764.126 299.312 763.367 299.206 763.261 299.191 762.553 299.015 762.426 298.983 761.781 298.751 761.638 298.699 761.063 298.425 760.907 298.351 760.406 298.048 760.244 297.951 759.817 297.63 759.655 297.508 759.299 297.178 759.144 297.034 758.856 296.702 758.714 296.537 758.489 296.209 758.365 296.026 758.199 295.705 758.098 295.508 757.986 295.196 757.912 294.988 757.85 294.689 757.838 294.632 757.388 294.542 757.378 294.539 757.214 294.488 757.129 294.47 756.932 294.437 756.93 294.437 756.492 294.313 756.488 294.311 756.083 294.145 756.076 294.142 755.712 293.936 755.704 293.932 755.386 293.691 755.378 293.685 755.112 293.414 755.104 293.406 754.896 293.11 754.889 293.1 754.741 292.785 754.736 292.774 754.651 292.445 754.648 292.434 754.627 292.098 754.626 292.085 754.671 291.748 754.672 291.736 754.781 291.404 754.785 291.393 754.956 291.072 754.961 291.063 755.193 290.759 755.199 290.751 755.486 290.471 755.492 290.465 755.831 290.213 755.836 290.209 756.22 289.991 756.224 289.989 756.646 289.81 756.647 289.809 756.729 289.785 756.744 289.778 756.874 289.741 757.088 289.644 757.099 289.64 757.551 289.488 757.589 289.479 758.049 289.374 758.116 289.365 758.576 289.307 758.674 289.304 759.121 289.293 759.249 289.303 759.675 289.336 759.827 289.366 760.224 289.442 760.394 289.496 760.753 289.61 760.931 289.694 761.245 289.842 761.419 289.957 761.684 290.134 761.84 290.281 762.053 290.481 762.097 290.542 762.203 290.534 762.764 290.545 762.957 290.549 763.099 290.566 763.273 290.327 763.409 290.142 763.887 289.607 764.066 289.407 764.564 288.95 764.789 288.744 765.293 288.369 765.563 288.168 766.061 287.873 766.373 287.688 767.203 287.314 767.561 287.203 767.563 287.019 767.563 286.975 767.626 286.663 767.635 286.62 767.757 286.31 767.774 286.268 767.953 285.967 767.976 285.928 768.209 285.64 768.238 285.605 768.411 285.442 768.426 285.33 768.438 285.291 768.618 284.66 768.635 284.622 768.902 284.022 768.924 283.988 769.272 283.431 769.298 283.4 769.72 282.897 769.751 282.869 770.239 282.43 770.273 282.407 770.817 282.04 770.854 282.022 771.444 281.734 771.483 281.721 772.107 281.518 772.148 281.511 772.794 281.397 772.835 281.396 773.491 281.373 z " style="fill: green; stroke: black; stroke-width: 0.000000; fill-type: evenodd"  fill-opacity="1.000000" />
   <path d="M 708.613 287.625 708.904 287.646 709.189 287.707 709.347 287.74 709.621 287.84 709.773 287.895 710.03 288.032 710.173 288.108 710.409 288.279 710.533 288.37 710.69 288.287 710.811 288.222 711.143 288.101 711.271 288.055 711.617 287.981 711.751 287.953 712.103 287.928 712.24 287.919 712.376 287.928 712.729 287.953 713.075 288.026 713.208 288.055 713.541 288.176 713.669 288.222 713.981 288.388 714.102 288.453 714.388 288.66 714.499 288.741 714.753 288.986 714.851 289.081 715.069 289.36 715.153 289.468 715.33 289.774 715.398 289.892 715.531 290.22 715.582 290.347 715.667 290.69 715.7 290.822 715.738 291.174 715.752 291.31 715.739 291.663 715.735 291.8 715.673 292.148 715.65 292.283 715.54 292.619 715.498 292.749 715.343 293.067 715.283 293.19 715.085 293.483 715.009 293.596 714.772 293.859 714.681 293.961 714.41 294.188 714.305 294.276 714.006 294.463 713.89 294.535 713.567 294.679 713.442 294.735 713.27 294.784 713.162 295.006 713.101 295.132 712.908 295.418 712.829 295.534 712.599 295.79 712.505 295.894 712.241 296.116 712.133 296.206 711.841 296.389 711.722 296.463 711.407 296.603 711.279 296.66 710.948 296.755 710.813 296.794 710.472 296.842 710.333 296.861 709.848 296.861 709.507 296.813 709.368 296.794 709.036 296.699 708.902 296.66 708.587 296.52 708.459 296.463 708.166 296.28 708.047 296.206 707.783 295.984 707.676 295.894 707.445 295.638 707.351 295.534 707.206 295.319 706.905 295.506 706.774 295.589 706.493 295.714 706.351 295.777 706.055 295.862 705.906 295.904 705.602 295.947 705.448 295.969 704.985 295.969 704.68 295.926 704.527 295.904 704.231 295.819 704.082 295.777 703.801 295.652 703.659 295.589 703.398 295.425 703.267 295.343 703.031 295.145 702.912 295.046 702.706 294.817 702.603 294.702 702.43 294.447 702.344 294.318 702.209 294.041 702.141 293.902 702.046 293.609 701.998 293.462 701.944 293.159 701.917 293.006 701.907 292.698 701.901 292.544 701.934 292.237 701.95 292.083 702.024 291.785 702.062 291.634 702.177 291.349 702.235 291.205 702.389 290.938 702.467 290.804 702.656 290.562 702.751 290.44 702.973 290.226 703.084 290.118 703.333 289.937 703.459 289.846 703.731 289.702 703.867 289.629 704.157 289.524 704.302 289.471 704.604 289.407 704.755 289.374 705.062 289.353 705.217 289.342 705.371 289.353 705.574 289.367 705.679 289.186 705.759 289.046 705.939 288.816 706.038 288.689 706.248 288.486 706.364 288.374 706.6 288.203 706.731 288.108 706.989 287.971 707.131 287.895 707.405 287.795 707.557 287.74 707.842 287.679 708 287.646 708.291 287.625 708.452 287.614 z " style="fill: green; stroke: black; stroke-width: 0.000000; fill-type: evenodd"  fill-opacity="1.000000" />
   <path d="M 687.719 291.281 687.961 291.298 688.199 291.348 688.281 291.366 688.509 291.449 688.588 291.478 688.803 291.592 688.877 291.631 689.074 291.774 689.142 291.823 689.317 291.992 689.377 292.051 689.527 292.242 689.578 292.308 689.7 292.519 689.742 292.592 689.833 292.817 689.864 292.895 689.923 293.131 689.943 293.212 689.969 293.454 689.977 293.537 689.969 293.78 689.966 293.864 689.924 294.104 689.909 294.186 689.834 294.418 689.808 294.497 689.702 294.716 689.665 294.791 689.529 294.993 689.482 295.062 689.319 295.243 689.263 295.305 689.077 295.462 689.013 295.516 688.806 295.644 688.735 295.689 688.513 295.788 688.437 295.822 688.203 295.889 688.122 295.912 687.881 295.946 687.798 295.958 687.471 295.958 687.23 295.924 687.147 295.912 686.914 295.845 686.833 295.822 686.611 295.723 686.534 295.689 686.328 295.56 686.257 295.516 686.071 295.359 686.006 295.305 685.844 295.125 685.788 295.062 685.652 294.861 685.605 294.791 685.498 294.573 685.461 294.497 685.386 294.266 685.36 294.186 685.318 293.947 685.303 293.864 685.295 293.621 685.292 293.537 685.318 293.295 685.326 293.212 685.385 292.976 685.405 292.895 685.496 292.669 685.528 292.592 685.649 292.381 685.692 292.308 685.841 292.117 685.893 292.051 686.068 291.882 686.128 291.823 686.325 291.681 686.393 291.631 686.607 291.517 686.681 291.478 686.91 291.394 686.989 291.366 687.227 291.315 687.309 291.298 687.551 291.281 687.635 291.275 z " style="fill: green; stroke: black; stroke-width: 0.000000; fill-type: evenodd"  fill-opacity="1.000000" />
   <path d="M 705.37 280.048 705.382 280.049 705.466 280.062 705.583 280.082 705.607 280.088 705.781 280.138 705.887 280.18 705.978 280.217 706.107 280.286 706.171 280.322 706.247 280.375 706.357 280.454 706.419 280.509 706.532 280.615 706.632 280.732 706.692 280.805 706.788 280.955 706.83 281.024 706.901 281.178 706.941 281.27 706.98 281.402 707.017 281.538 707.029 281.625 707.052 281.823 707.052 281.848 707.05 281.931 707.046 282.071 707.043 282.115 707.011 282.294 706.988 282.404 706.949 282.518 706.888 282.683 706.857 282.741 706.746 282.941 706.729 282.964 706.57 283.176 706.568 283.178 706.363 283.381 706.358 283.385 706.129 283.552 706.122 283.556 705.874 283.685 705.865 283.688 705.603 283.775 705.593 283.777 705.323 283.821 705.039 283.821 705.028 283.819 704.758 283.775 704.749 283.772 704.488 283.685 704.479 283.681 704.233 283.552 704.226 283.548 704.226 283.548 703.999 283.381 703.995 283.378 703.792 283.176 703.791 283.174 703.632 282.964 703.624 282.953 703.615 282.941 703.556 282.833 703.556 282.833 703.504 282.74 703.49 282.714 703.474 282.683 703.44 282.591 703.413 282.517 703.395 282.467 703.373 282.404 703.361 282.342 703.351 282.294 703.337 282.215 703.318 282.115 703.317 282.09 703.316 282.071 703.313 281.962 703.31 281.848 703.31 281.837 703.309 281.823 703.323 281.711 703.333 281.624 703.339 281.586 703.345 281.538 703.366 281.462 703.382 281.401 703.4 281.34 703.421 281.27 703.442 281.221 703.461 281.178 703.495 281.103 703.531 281.024 703.553 280.989 703.573 280.955 703.623 280.878 703.67 280.805 703.698 280.77 703.729 280.732 703.785 280.667 703.83 280.615 703.879 280.569 703.943 280.509 703.98 280.476 704.005 280.454 704.095 280.39 704.19 280.322 704.212 280.309 704.255 280.286 704.344 280.238 704.383 280.217 704.487 280.175 704.58 280.138 704.636 280.122 704.779 280.082 704.795 280.079 704.896 280.062 704.97 280.051 704.98 280.049 705.161 280.039 705.181 280.038 z " style="fill: green; stroke: black; stroke-width: 0.000000; fill-type: evenodd"  fill-opacity="1.000000" />
   <path d="M 714.922 280.238 715.028 280.243 715.074 280.249 715.173 280.262 715.239 280.277 715.32 280.295 715.424 280.328 715.469 280.342 715.592 280.393 715.621 280.406 715.639 280.416 715.774 280.492 715.923 280.595 715.928 280.599 715.938 280.608 716.078 280.735 716.135 280.797 716.221 280.9 716.289 280.999 716.349 281.096 716.401 281.201 716.455 281.322 716.481 281.403 716.529 281.576 716.534 281.605 716.544 281.692 716.558 281.808 716.562 281.849 716.557 282.01 716.549 282.132 716.534 282.212 716.488 282.414 716.488 282.414 716.406 282.616 716.378 282.682 716.294 282.818 716.224 282.927 716.142 283.02 716.031 283.141 715.93 283.222 715.808 283.317 715.612 283.425 715.561 283.452 715.495 283.474 715.297 283.543 715.089 283.577 715.023 283.588 714.746 283.588 714.565 283.558 714.472 283.543 714.365 283.506 714.208 283.452 714.188 283.441 714.157 283.424 714.039 283.36 713.961 283.317 713.904 283.273 713.839 283.223 713.785 283.179 713.737 283.141 713.68 283.079 713.627 283.02 713.587 282.975 713.545 282.927 713.506 282.867 713.474 282.818 713.437 282.756 713.391 282.682 713.362 282.616 713.327 282.528 713.281 282.414 713.254 282.295 713.235 282.212 713.228 282.178 713.22 282.132 713.215 282.06 713.212 282.01 713.21 281.941 713.206 281.849 713.209 281.825 713.21 281.808 713.223 281.707 713.235 281.606 713.237 281.592 713.24 281.576 713.267 281.477 713.288 281.403 713.3 281.366 713.314 281.322 713.343 281.256 713.343 281.256 713.368 281.201 713.393 281.149 713.419 281.095 713.45 281.046 713.48 280.999 713.516 280.946 713.548 280.9 713.589 280.851 713.634 280.797 713.667 280.761 713.691 280.735 713.755 280.676 713.84 280.599 713.843 280.598 713.843 280.598 713.846 280.595 713.947 280.525 713.995 280.492 714.051 280.46 714.148 280.406 714.156 280.402 714.177 280.393 714.274 280.353 714.3 280.342 714.395 280.312 714.395 280.312 714.449 280.295 714.519 280.279 714.596 280.262 714.647 280.255 714.74 280.243 714.78 280.241 714.884 280.237 z " style="fill: green; stroke: black; stroke-width: 0.000000; fill-type: evenodd"  fill-opacity="1.000000" />
   <path d="M 688.231 262.371 689.065 263.56 689.688 264.449 690.516 265.502 691.744 267.066 693.389 269.16 694.408 270.286 694.704 270.613 696.425 272.512 696.879 272.931 697.018 273.059 699.024 274.908 699.056 274.931 699.726 275.418 700.038 277.626 700.433 280.42 696.877 280.462 691.809 280.522 687.752 280.569 684.606 280.606 682.211 280.635 680.407 280.656 679.058 280.672 678.058 280.684 677.325 280.692 676.798 280.699 676.431 280.703 672.89 280.745 672.89 283.052 672.89 301.786 685.283 301.639 687.147 301.617 687.147 302.128 687.146 303.679 687.146 304.623 693.706 304.546 705.716 304.404 706.263 306.057 706.706 307.398 706.852 307.397 706.871 307.396 708.236 307.38 710.754 307.351 713.67 307.316 716.271 307.286 718.253 307.262 719.63 307.246 720.535 307.235 721.107 307.229 721.454 307.224 721.65 307.222 721.77 307.221 721.77 304.746 721.77 304.215 721.77 302.155 721.77 301.209 744.281 300.944 755.375 300.813 755.375 320.472 755.375 329.869 738.96 330.063 738.366 330.07 737.533 330.08 736.551 330.091 735.729 330.101 734.803 330.112 733.502 330.127 732.042 330.144 730.816 330.159 729.099 330.179 727.659 330.196 726.16 330.214 724.062 330.238 721.905 330.264 720.116 330.285 718.378 330.306 715.99 330.334 714.719 330.349 714.101 330.356 714.008 330.357 712.572 324.072 711.703 321.657 711.216 320.305 710.074 317.137 709.722 316.811 708.157 315.344 707.812 315.019 707.473 315.373 705.95 316.969 705.6 317.333 704.549 320.542 703.26 324.476 702.171 329.886 702.171 329.886 702.118 330.152 702.048 330.498 701.052 330.51 700.254 330.519 699.708 330.526 699.03 330.534 698.381 330.541 697.598 330.551 697.006 330.558 696.583 330.563 696.212 330.567 695.947 330.57 695.802 330.572 695.63 330.574 658.552 331.011 657.429 331.024 656.535 331.035 655.721 331.044 654.643 331.057 653.911 331.066 652.95 331.077 652.151 331.086 651.527 331.094 651.053 331.099 650.437 331.107 619.197 331.475 621.604 338.762 622.494 341.456 592.493 341.81 533.28 342.508 527.604 342.575 500.791 342.891 500.791 347.566 500.791 348.26 500.791 349.494 500.791 351.467 500.791 354.47 500.791 358.928 500.791 362.417 502.467 365.356 503.373 367.142 505.491 371.317 506.278 373.112 507.66 376.261 507.829 376.724 508.428 378.365 508.428 380.615 508.428 380.786 508.428 384.495 508.428 384.871 508.428 388.007 508.428 388.495 508.428 391.298 508.428 393.932 508.428 394.486 508.428 397.132 508.428 397.674 508.428 400.479 508.428 400.967 508.428 404.106 508.428 404.481 508.428 408.365 508.428 410.581 507.818 412.25 507.645 412.722 507.249 413.625 505.471 417.673 503.332 421.884 502.439 423.644 501.976 424.454 500.791 426.53 488.196 428.257 470.241 430.12 470.241 411.693 470.241 404.374 470.241 393.283 470.241 391.819 470.241 390.495 470.241 387.83 470.241 386.232 470.241 384.76 470.241 383.449 470.241 364.702 470.241 363.059 470.241 361.656 470.241 360.488 470.241 329.707 470.241 282.317 470.241 276.596 470.241 269.529 476.127 263.668 476.78 263.018 485.01 262.921 507.742 262.653 519.352 262.516 538.319 262.293 538.642 262.289 539.578 262.278 539.948 262.273 540.333 262.269 541.393 262.256 541.804 262.252 542.923 262.238 544.47 262.22 545.547 262.207 545.956 262.203 546.936 262.191 547.304 262.187 547.622 262.183 548.448 262.173 577.691 261.828 594.444 288.313 612.159 316.32 613.826 318.956 615.716 312.907 627.12 276.399 631.872 261.189 686.148 260.549 686.948 260.54 z " style="fill: blue; stroke: black; stroke-width: 0.000000; fill-type: evenodd"  fill-opacity="1.000000" />
   <path d="M 753.134 268.997 755.375 271.176 755.375 277.489 755.375 279.772 733.959 280.024 732.469 280.042 730.643 280.064 728.463 280.089 725.921 280.119 723.037 280.153 719.858 280.191 716.474 280.231 714.44 280.255 714.706 278.01 715.035 275.238 715.62 274.795 715.647 274.774 717.615 272.883 717.748 272.756 718.179 272.342 718.8 271.626 719.123 271.254 721.12 268.954 721.608 268.304 722.882 266.608 724.685 264.206 725.658 262.752 726.105 262.083 727.456 260.062 727.996 260.056 728.823 260.046 729.132 260.042 729.338 260.04 729.876 260.034 743.745 259.87 z " style="fill: blue; stroke: black; stroke-width: 0.000000; fill-type: evenodd"  fill-opacity="1.000000" />
   <path d="M 714.922 280.238 715.028 280.243 715.061 280.247 714.673 280.252 714.74 280.243 714.78 280.241 714.884 280.237 z" style="fill: red; stroke: black; stroke-width: 0.000000; fill-type: evenodd"  fill-opacity="1.000000" />
</svg>
